<?xml version="1.0" standalone="no"?>
<!DOCTYPE svg PUBLIC "-//W3C//DTD SVG 20010904//EN"
 "http://www.w3.org/TR/2001/REC-SVG-20010904/DTD/svg10.dtd">
<svg version="1.0" xmlns="http://www.w3.org/2000/svg"
 width="700.000000pt" height="700.000000pt" viewBox="0 0 700.000000 700.000000"
 preserveAspectRatio="xMidYMid meet">
<metadata>
Created by potrace 1.11, written by Peter Selinger 2001-2013
</metadata>
<g transform="translate(0.000000,700.000000) scale(0.100000,-0.100000)"
fill="#000000" stroke="none">
<path d="M2109 5543 c-92 -24 -152 -74 -193 -164 -68 -149 -7 -318 143 -391
44 -22 58 -23 332 -26 270 -3 288 -2 342 18 160 60 238 251 164 402 -35 71
-102 131 -170 154 -44 15 -92 18 -311 19 -176 0 -274 -4 -307 -12z"/>
<path d="M3452 5544 c-92 -21 -161 -76 -203 -161 -31 -64 -32 -177 -2 -244 25
-57 88 -120 148 -149 43 -21 60 -22 313 -24 257 -2 269 -3 309 -25 51 -27 121
-97 129 -128 4 -13 10 -20 15 -17 5 3 9 2 8 -3 -2 -4 1 -30 6 -58 5 -27 9 -52
8 -55 0 -3 -3 -27 -6 -53 -13 -110 -120 -222 -229 -241 -21 -4 -476 -7 -1010
-7 l-973 -1 -50 -22 c-104 -48 -167 -143 -171 -261 -2 -56 2 -80 21 -121 39
-85 123 -155 203 -171 15 -3 504 -6 1087 -6 l1060 -2 50 -27 c227 -119 224
-428 -5 -540 -44 -22 -53 -22 -452 -24 -435 -1 -437 -2 -508 -53 -87 -64 -124
-136 -124 -241 0 -83 36 -163 97 -216 73 -62 93 -67 285 -70 94 -1 180 -5 190
-9 9 -4 28 -9 41 -11 68 -13 150 -88 170 -155 25 -83 27 -94 25 -129 -7 -119
-65 -206 -171 -260 l-48 -25 -1700 -1 -1700 -1 -55 -25 c-63 -28 -123 -89
-150 -154 -69 -161 24 -354 194 -402 30 -8 4046 -11 4046 -3 0 4 9 57 20 117
10 60 22 125 25 144 4 19 24 136 46 260 22 124 43 239 45 255 3 17 6 39 8 50
2 11 9 48 15 83 7 35 14 77 16 93 2 17 6 42 10 57 10 49 15 77 21 112 3 19 11
69 19 110 12 66 20 114 31 185 2 11 7 33 12 49 l8 30 113 -1 c63 -1 117 -5
121 -10 4 -4 15 -30 24 -58 10 -27 21 -59 26 -70 4 -11 18 -47 30 -80 12 -33
26 -69 30 -80 5 -11 41 -108 80 -215 39 -107 75 -204 80 -215 5 -11 18 -47 30
-80 11 -33 24 -69 29 -80 5 -11 17 -45 28 -75 12 -30 34 -91 51 -135 16 -44
61 -163 99 -265 l69 -185 559 0 c492 0 560 2 558 15 -1 14 -334 848 -374 937
-10 24 -19 45 -19 48 0 3 -8 24 -19 48 -10 23 -58 141 -105 262 -48 121 -96
242 -107 269 -12 26 -17 51 -12 55 4 4 46 20 93 35 276 92 540 270 712 479 10
12 22 27 27 33 57 69 146 221 191 326 39 91 86 264 101 368 11 81 8 353 -5
427 -11 65 -65 206 -107 278 -86 151 -204 264 -370 353 -108 59 -246 110 -343
128 -16 2 -32 6 -35 8 -3 2 -31 7 -61 11 -30 4 -57 8 -60 10 -34 21 -2472 29
-2558 9z m2133 -818 c148 -15 248 -61 312 -143 97 -122 94 -362 -8 -562 -75
-148 -184 -239 -346 -287 -88 -27 -89 -27 -471 -29 l-384 -3 7 37 c4 20 9 47
11 61 2 14 6 34 9 46 3 12 7 39 10 60 4 21 8 50 11 64 3 14 7 37 9 52 2 15 9
55 16 90 6 35 13 77 16 93 2 17 11 66 19 110 8 44 17 98 20 120 2 22 7 48 10
58 3 10 7 30 9 45 3 15 6 37 9 49 2 11 8 43 12 70 5 26 9 51 10 56 1 4 2 10 3
15 1 8 636 7 716 -2z"/>
<path d="M1013 3199 c-130 -24 -232 -145 -235 -281 -2 -120 58 -219 166 -276
l51 -27 780 0 780 0 57 28 c177 87 220 322 86 467 -42 46 -73 65 -134 83 -41
12 -168 14 -779 14 -401 0 -749 -4 -772 -8z"/>
</g>
</svg>
