<svg viewBox="0 0 158 40" fill="none" xmlns="http://www.w3.org/2000/svg"><path fill-rule="evenodd" clip-rule="evenodd" d="M135.341 7.39h6.16v11.362a5.134 5.134 0 1010.266 0V7.391h6.159V29.222h-.005C157.755 35.88 152.747 40 146.634 40V33.82c2.84 0 5.133-1.888 5.133-4.943v-.037a11.2 11.2 0 01-5.133 1.239c-6.171 0-11.2-4.988-11.292-11.156h-.001V7.39zM62.247 30.046V16.246c0-5.629-3.388-9.336-8.556-9.336-3.216 0-5.27 1.167-6.535 2.986-1.267-1.888-3.217-2.986-5.886-2.986-3.012 0-4.997 1.167-6.023 2.712V7.39h-6.742v22.654h6.708V17.38c0-2.677 1.266-4.256 3.524-4.256 2.156 0 3.251 1.442 3.251 3.707l.034 13.215h6.742L48.73 17.38c0-2.677 1.266-4.256 3.524-4.256 2.156 0 3.251 1.442 3.251 3.707v13.215h6.742zm41.201.687c4.859 0 9.376-2.231 9.376-7.414 0-5.363-4.568-6.568-7.831-7.43-1.812-.478-3.222-.85-3.222-1.77 0-.824.719-1.27 1.882-1.27 1.472 0 2.395.824 3.011 1.991l5.749-3.123c-1.882-3.193-5.133-4.806-8.76-4.84-4.688 0-8.829 2.505-8.829 7.414 0 5.01 4.415 6.246 7.791 7.19 1.832.514 3.262.914 3.262 1.803 0 .927-.821 1.408-2.429 1.408-1.985 0-3.251-.961-3.833-2.678l-5.852 3.33c1.78 3.673 5.202 5.389 9.685 5.389zm22.996-8.719v-7.998h4.619V7.391h-4.619V1.21l-6.776 2.026v4.154h-3.593v6.659h3.593v7.997c0 6.316 2.567 8.96 11.395 8.067V23.97c-2.942.171-4.619 0-4.619-1.957zM82.984 7.391h6.844v22.654h-6.844v-1.384a11.198 11.198 0 01-5.407 1.384c-6.228 0-11.292-5.08-11.292-11.327S71.349 7.39 77.577 7.39c1.958 0 3.8.501 5.407 1.384V7.39zm-5.407 16.647a5.295 5.295 0 01-5.304-5.32 5.295 5.295 0 015.304-5.32 5.295 5.295 0 015.304 5.32 5.317 5.317 0 01-5.304 5.32zM23.612 7.391h-6.844V8.8a11.265 11.265 0 00-5.475-1.41C5.065 7.39 0 12.47 0 18.718s5.065 11.327 11.293 11.327c1.985 0 3.852-.516 5.475-1.422v1.422h6.844V7.391zM5.989 18.718a5.317 5.317 0 005.304 5.32 5.295 5.295 0 005.304-5.32 5.295 5.295 0 00-5.304-5.32 5.317 5.317 0 00-5.304 5.32z" fill="#1A1A1A"/><path d="M24.308 33.628H0v6.06h24.308v-6.06z" fill="#FF6621"/></svg>
