<svg xmlns="http://www.w3.org/2000/svg" fill="none" viewBox="0 0 281 281">
    <path fill="currentColor" d="M0 140.5c0-37.263 14.8026-72.9996 41.1515-99.3485S103.237 0 140.5 0s73 14.8026 99.349 41.1515C266.197 67.5004 281 103.237 281 140.5s-14.803 73-41.151 99.349C213.5 266.197 177.763 281 140.5 281c-37.263 0-72.9996-14.803-99.3485-41.151C14.8026 213.5 0 177.763 0 140.5Zm185.888 76.781c3.622-3.238 3.897-8.781.659-12.403-8.836-9.824-24.259-20.472-46.047-20.472-21.788 0-37.211 10.648-46.0467 20.472-3.2381 3.622-2.9637 9.165.6586 12.403 3.6223 3.238 9.1651 2.964 12.4031-.659 6.422-7.134 17.343-14.653 32.985-14.653s26.563 7.519 32.985 14.653c3.238 3.623 8.781 3.897 12.403.659Zm-89.0747-68c9.7147 0 17.5627-7.848 17.5627-17.562 0-.823-.055-1.647-.165-2.415l5.982 1.976c4.611 1.536 9.55-.933 11.087-5.543 1.536-4.611-.933-9.55-5.543-11.087L73.049 97.0877c-4.6101-1.5367-9.5496.933-11.0863 5.5433-1.5367 4.61.933 9.549 5.5432 11.086l16.849 5.598c-3.1832 3.183-5.1041 7.574-5.1041 12.404 0 9.714 7.8482 17.562 17.5625 17.562Zm105.3747-17.562c0-4.885-1.976-9.33-5.214-12.514l16.575-5.543c4.61-1.536 7.08-6.531 5.543-11.086-1.537-4.5553-6.531-7.0799-11.086-5.5432l-52.688 17.5622c-4.61 1.537-7.08 6.531-5.543 11.087 1.537 4.555 6.531 7.08 11.087 5.543l6.421-2.141c-.11.824-.165 1.702-.165 2.58 0 9.714 7.848 17.562 17.563 17.562 9.714 0 17.562-7.848 17.562-17.562l-.055.055Z"/>
  </svg>
