<svg version="1.1" id="Layer_1" xmlns="http://www.w3.org/2000/svg" xmlns:xlink="http://www.w3.org/1999/xlink" x="0px" y="0px"
     viewBox="547 -77.2 922 186.4" style="enable-background:new 547 -77.2 922 186.4;" xml:space="preserve">
<style type="text/css">
	.st0{fill:#020A0A;}
	.st1{fill:#FFFFFF;}
</style>
    <g>
	<g>
		<path class="st0" d="M830,58.1l-8.3,8.3c-1.8,1.8-3.9,1.6-3.9,1.6h-47.4c-1.2,0-2.1-0.9-2.1-2.1v-99.9c0-1.2,0.9-2.1,2.1-2.1h47.4
			c0,0,2.2,0,3.9,1.6l8.3,8.3c1.6,1.6,1.6,3.9,1.6,3.9v76.4C831.7,54.2,831.8,56.3,830,58.1z M790.3-14.1v60.3h17l2.1-2.1
			c0.3-0.4,0.5-0.7,0.5-1v-53.2c0,0,0-0.6-0.5-1l-2.5-2.5c-0.3-0.4-0.7-0.4-1-0.4L790.3-14.1L790.3-14.1z"/>
        <path class="st0" d="M913,54.2c0,0,0.3,2.1-1.5,3.9l-8.5,8.3c-1.8,1.8-3.7,1.6-3.7,1.6h-38.6c0,0-2.1,0.1-3.9-1.6l-8.3-8.3
			c-1.8-1.8-1.6-3.9-1.6-3.9v-76.4c0,0-0.1-2.1,1.6-3.9l8.3-8.3c1.8-1.9,3.9-1.6,3.9-1.6h38.4c0,0,2.1-0.3,3.9,1.6l8.5,8.3
			c1.8,1.8,1.5,3.9,1.5,3.9V54.2L913,54.2z M872.6-14.1c-0.2,0-0.6,0-0.9,0.4l-2.5,2.4c-0.4,0.6-0.4,1.2-0.4,1.2V43
			c0,0.3,0.1,0.6,0.4,1l2.1,2.1h17.3l2.1-2.1c0.5-0.4,0.5-0.7,0.5-1v-53.2c0,0,0.2-0.6-0.5-1.2l-2.4-2.4c-0.5-0.4-0.9-0.4-1-0.4
			H872.6z"/>
        <path class="st0" d="M992.5,15.9c0,0,0.3,2.1-1.5,3.9l-8.5,8.5l-0.5,0.3L997.3,66c0.3,1-1,2.1-2.1,2.1h-20c-1.2,0-2.2-1-2.7-2.1
			L958,29.8h-6.9V66c0,1-0.9,2.1-2.1,2.1h-17.7c-1,0-2.1-1-2.1-2.1v-99.9c0-1.2,1-2.1,2.1-2.1h47.4c0,0,2.1-0.3,3.9,1.5L991-26
			c1.8,1.8,1.5,4.2,1.5,4.2V15.9L992.5,15.9z M951.1,7.9h15.6c0.2,0,0.6,0,1-0.4l2.4-2.4c0.6-0.6,0.5-1.2,0.5-1.2v-14
			c0,0,0.1-0.6-0.5-1.2l-2.4-2.4c-0.6-0.6-1.2-0.4-1.2-0.4h-15.5V7.9z"/>
        <path class="st0" d="M1077.2-22.2l0.2,0.1v15.3c0,1.2-1,2.1-2.2,2.1h-17.6c-1.2,0-2.1-0.9-2.1-2.1v-7.4H1037c-0.3,0-0.6,0-1,0.4
			l-2.4,2.4c-0.6,0.6-0.6,1.2-0.6,1.2V1.9l0.2-0.1c0,0-0.2,0.6,0.5,1.2l2.1,2.1h27.8c0,0,2.1-0.3,3.9,1.6l8.3,8.3
			c1.8,1.8,1.6,3.9,1.6,3.9v35.3c0,0,0.1,2.1-1.6,3.9l-8.3,8.3c-1.8,1.8-3.9,1.6-3.9,1.6H1025c0,0-2.1,0.1-3.9-1.6l-8.3-8.3
			c-1.8-1.8-1.5-3.9-1.5-3.9s-0.2-0.1-0.2-0.3V39.4c0-1.2,1-2.1,2.2-2.1h17.6c1.2,0,2.1,0.9,2.1,2.1v6.7h18.8c0.3,0,0.4-0.1,0.7-0.4
			l2.5-2.4c0.4-0.6,0.4-1.2,0.4-1.2V31c0,0,0-0.6-0.4-1.2l-2.5-2.4c-0.3-0.3-0.4-0.4-0.7-0.4H1025c0,0-2.1,0.1-3.9-1.6l-8.3-8.3
			c-1.8-1.8-1.5-3.9-1.5-3.9h-0.2v-35.3h0.2c0,0-0.3-2.1,1.5-3.9l8.3-8.3c1.8-1.9,3.9-1.6,3.9-1.6h38.6c0,0,2.1-0.3,3.9,1.6l8.3,8.3
			c1.8,1.8,1.6,3.9,1.6,3.9L1077.2-22.2L1077.2-22.2z"/>
        <path class="st0" d="M1155.1-33.5v17.6c0,1.2-1,2.1-2.2,2.1H1134v80.1c-0.1,1-1,1.8-2.1,1.8h-17.6c-1,0-1.9-0.7-2.1-1.8v-80.1
			h-18.9c-1.2,0-2.2-0.9-2.2-2.1v-17.6c0-1.2,1-2.2,2.2-2.2h59.6C1154.1-35.7,1155.1-34.7,1155.1-33.5z"/>
        <path class="st0" d="M1232.2,48.3V66c0,1.2-1,2.1-2.2,2.1h-59.6c-1.2,0-2.2-0.9-2.2-2.1v-99.9h0.2c0.1-0.9,1-1.6,2.1-1.6h17.6
			c1,0,1.9,0.7,2.1,1.6v80.1h39.9C1231.2,46.2,1232.2,47.2,1232.2,48.3z"/>
        <path class="st0" d="M1309.7,54.2c0,0,0.3,2.1-1.5,3.9l-8.3,8.3c-1.8,1.8-3.9,1.6-3.9,1.6l-38.6-0.1c0,0-2.1,0.3-3.9-1.5l-8.3-8.3
			c-1.8-1.8-1.6-3.9-1.6-3.9h0.2c0-0.1-0.2-0.1-0.2-0.3V-34c0-1.2,1-2.1,2.1-2.1h17.7c1.2,0,2.1,0.9,2.1,2.1v77c0,0.1,0.1,0.6,0.4,1
			l2.1,2.1h17.3l2.1-2.1c0.5-0.4,0.5-0.9,0.6-1v-77c0-1.2,0.9-2.1,2.1-2.1h17.6c1.2,0,2.1,0.9,2.1,2.1L1309.7,54.2L1309.7,54.2z"/>
        <path class="st0" d="M1392.7-22.2l0.2,0.1v15.3c0,1.2-1,2.1-2.2,2.1H1373c-1.2,0-2.1-0.9-2.1-2.1v-7.4h-18.5c-0.3,0-0.6,0-1,0.4
			l-2.4,2.4c-0.6,0.6-0.6,1.2-0.6,1.2V1.9l0.2-0.1c0,0-0.2,0.6,0.4,1.2l2.1,2.1h27.8c0,0,2.1-0.3,3.9,1.6l8.3,8.3
			c1.8,1.8,1.6,3.9,1.6,3.9v35.3c0,0,0.2,2.1-1.6,3.9l-8.3,8.3c-1.8,1.8-3.9,1.6-3.9,1.6h-38.6c0,0-2.1,0.1-3.9-1.6l-8.3-8.3
			c-1.8-1.8-1.5-3.9-1.5-3.9s-0.1-0.1-0.1-0.3V39.4c0-1.2,1-2.1,2.2-2.1h17.6c1.2,0,2.1,0.9,2.1,2.1v6.7h18.8c0.3,0,0.5-0.1,0.7-0.4
			l2.5-2.4c0.5-0.6,0.5-1.2,0.5-1.2V31c0,0,0-0.6-0.5-1.2l-2.5-2.4c-0.3-0.3-0.4-0.4-0.7-0.4h-26.8c0,0-2.1,0.1-3.9-1.6l-8.3-8.3
			c-1.8-1.8-1.5-3.9-1.5-3.9h-0.1v-35.3h0.1c0,0-0.3-2.1,1.5-3.9l8.3-8.3c1.8-1.9,3.9-1.6,3.9-1.6h38.6c0,0,2.1-0.3,3.9,1.6l8.3,8.3
			c1.8,1.8,1.6,3.9,1.6,3.9L1392.7-22.2L1392.7-22.2z"/>
        <path class="st0" d="M1469-33.5v17.6c0,1.2-1,2.1-2.2,2.1h-18.9v80.1c-0.2,1-1,1.8-2.1,1.8h-17.6c-1,0-1.9-0.7-2.1-1.8v-80.1
			h-18.9c-1.2,0-2.2-0.9-2.2-2.1v-17.6c0-1.2,1-2.2,2.2-2.2h59.6C1467.9-35.7,1469-34.7,1469-33.5z"/>
	</g>
        <g>
		<circle class="st1" cx="640.2" cy="16" r="81.5"/>
            <g>
			<path class="st0" d="M640.2-77.2C588.7-77.2,547-35.5,547,16s41.7,93.2,93.2,93.2c51.5,0,93.2-41.7,93.2-93.2
				S691.7-77.2,640.2-77.2z M672.3,70.6L672.3,70.6c-18.3,16.3-45.9,16.3-64.1,0l0,0c-17.6-15.7-21.3-41.8-8.7-61.8l40.7-64.4
				l40.7,64.4C693.6,28.7,689.9,54.9,672.3,70.6z"/>
                <g>
				<path class="st0" d="M656,21.7c0-4.7-2.1-9.2-4.3-13.9l0,0c-2.4-5.2-4.9-10.5-4.9-16.6V-21c0-1.1-0.9-2.1-2.1-2.1h-9.2
					c-1.1,0-2.1,0.9-2.1,2.1v12.2c0,6.1-2.5,11.4-4.9,16.6c-2.2,4.7-4.3,9.2-4.3,13.9v48.9c0,0,0,0,0,0c0,1.8,1.3,3.4,3,4
					c4.1,1.3,8.4,2,12.8,2c4.4,0,8.7-0.7,12.9-2c1.7-0.5,3-2.1,3-3.9c0,0,0,0,0,0V21.7L656,21.7z"/>
			</g>
		</g>
	</g>
</g>
</svg>
