<?xml version="1.0" encoding="utf-8"?>
<!-- Generator: Adobe Illustrator 26.0.2, SVG Export Plug-In . SVG Version: 6.00 Build 0)  -->
<svg version="1.1" id="Layer_1" xmlns="http://www.w3.org/2000/svg" xmlns:xlink="http://www.w3.org/1999/xlink" x="0px" y="0px"
	 viewBox="0 0 220 55.94" style="enable-background:new 0 0 220 55.94;" xml:space="preserve">
<style type="text/css">
	.st0{fill:#4F342F;}
	.st1{fill:#FC5300;}
	.st2{opacity:0.13;}
	.st3{fill:#FFFFFF;}
</style>
<path class="st0" d="M68,28.2c-0.02,1.56,0.54,3.08,1.56,4.26c1.04,1.02,2.47,1.56,3.93,1.48c1.05,0.02,2.09-0.24,3-0.77
	c0.89-0.56,1.61-1.35,2.08-2.3l5.4,1.73c-0.85,2.02-2.35,3.71-4.26,4.78c-2.14,1.18-4.56,1.77-7,1.71
	c-3.22,0.14-6.35-1.06-8.64-3.32c-2.24-2.37-3.42-5.55-3.27-8.81c-0.15-3.25,1.02-6.43,3.26-8.8c2.3-2.26,5.43-3.46,8.65-3.31
	c3.25-0.15,6.41,1.13,8.64,3.5c2.13,2.33,3.2,5.5,3.2,9.51v0.36L68,28.2z M68,24.28h9.18c-0.03-1.2-0.53-2.35-1.39-3.19
	c-0.88-0.8-2.04-1.23-3.23-1.18c-1.18-0.05-2.33,0.38-3.19,1.18C68.52,21.94,68.03,23.08,68,24.28z"/>
<path class="st0" d="M85.77,11h-3V6.06h9.93v27.28h3.21v5.08H82.79v-5.08h3L85.77,11z"/>
<path class="st0" d="M110.89,34.94c-0.86,1.1-1.96,2-3.21,2.62c-1.25,0.59-2.62,0.89-4,0.87c-2.7,0.11-5.3-1.01-7.07-3.05
	c-1.75-2.03-2.63-4.8-2.63-8.29c-0.1-3.04,0.92-6.01,2.86-8.35c1.73-2.15,4.34-3.38,7.09-3.36c1.33-0.01,2.65,0.29,3.85,0.88
	c1.3,0.66,2.46,1.57,3.42,2.68v-3.57h9.66v4.94h-3v15.22c0.05,1.55-0.11,3.1-0.48,4.61c-0.32,1.07-0.88,2.04-1.64,2.86
	c-1.16,1.21-2.61,2.11-4.21,2.62c-1.96,0.64-4,0.94-6.06,0.91c-1.85,0.01-3.69-0.23-5.47-0.71c-1.61-0.43-3.14-1.14-4.51-2.09
	l3.46-4c1.11,0.53,2.26,0.96,3.45,1.27c1,0.26,2.03,0.39,3.07,0.4c1.49,0.12,2.98-0.32,4.16-1.23c0.98-0.99,1.48-2.36,1.37-3.75
	c0-0.17,0-0.35,0-0.56L110.89,34.94z M106,33.84c1.42,0.05,2.76-0.63,3.58-1.79c0.96-1.46,1.42-3.19,1.32-4.93
	c0.1-1.73-0.36-3.44-1.31-4.88c-0.82-1.15-2.17-1.82-3.59-1.77c-1.43-0.05-2.78,0.61-3.62,1.77c-0.96,1.44-1.42,3.15-1.32,4.88
	c-0.1,1.74,0.36,3.47,1.32,4.93C103.21,33.22,104.57,33.89,106,33.84z"/>
<path class="st0" d="M126.07,28.2c-0.02,1.56,0.54,3.08,1.56,4.26c1.04,1.02,2.47,1.56,3.93,1.48c1.05,0.02,2.09-0.24,3-0.77
	c0.89-0.56,1.61-1.35,2.08-2.3l5.4,1.73c-0.85,2.02-2.35,3.71-4.26,4.78c-2.14,1.18-4.56,1.77-7,1.71
	c-3.22,0.14-6.35-1.06-8.64-3.32c-2.24-2.37-3.42-5.55-3.27-8.81c-0.15-3.25,1.02-6.43,3.26-8.8c2.3-2.26,5.43-3.46,8.65-3.31
	c3.25-0.15,6.41,1.13,8.64,3.5c2.13,2.33,3.2,5.5,3.2,9.51v0.36L126.07,28.2z M126.07,24.28h9.18c-0.03-1.2-0.53-2.35-1.39-3.19
	c-0.88-0.8-2.04-1.23-3.23-1.18c-1.18-0.05-2.33,0.38-3.19,1.18c-0.83,0.86-1.31,2-1.33,3.19H126.07z"/>
<path class="st0" d="M141.08,38.42v-5.08h3v-13h-3v-5H151v2.3c1.09-0.72,2.27-1.31,3.5-1.75c1.05-0.36,2.16-0.55,3.27-0.55
	c1.78-0.1,3.51,0.64,4.67,2c1.18,1.64,1.75,3.64,1.62,5.66v10.34h3.28v5.08h-10.23V24.76c0.08-1-0.12-2.01-0.58-2.91
	c-0.44-0.61-1.17-0.94-1.92-0.87c-0.63,0.01-1.25,0.14-1.82,0.39c-0.63,0.28-1.22,0.66-1.73,1.12v10.85h3.51v5.08H141.08z"/>
<path class="st0" d="M173.94,30.22c-0.08,0.86,0.06,1.72,0.41,2.51c0.36,0.45,0.93,0.68,1.5,0.61c0.36,0,0.73-0.05,1.08-0.15
	c0.42-0.12,0.83-0.28,1.22-0.47v5.12c-0.76,0.4-1.57,0.71-2.4,0.92c-0.86,0.21-1.74,0.31-2.63,0.31c-2.26,0-3.85-0.48-4.76-1.43
	c-0.91-0.95-1.37-2.65-1.36-5.1V20.32h-2.64v-4.95H167v-2.6l6.95-5.88v8.47h4.21v4.94h-4.21L173.94,30.22z"/>
<path class="st0" d="M200.82,26.94c0.14,3.27-1.08,6.45-3.38,8.79c-5.04,4.44-12.6,4.44-17.64,0c-2.27-2.36-3.47-5.55-3.32-8.82
	c-0.15-3.26,1.05-6.44,3.32-8.79c5.05-4.43,12.61-4.43,17.66,0C199.76,20.47,200.97,23.66,200.82,26.94z M188.61,33.43
	c1.46,0.06,2.86-0.58,3.76-1.74c0.98-1.4,1.47-3.08,1.37-4.79c0.1-1.68-0.39-3.34-1.37-4.71c-1.83-2.07-4.99-2.27-7.06-0.44
	c-0.16,0.14-0.3,0.29-0.44,0.44c-0.99,1.36-1.48,3.03-1.38,4.71c-0.09,1.7,0.39,3.39,1.38,4.78
	C185.76,32.83,187.15,33.49,188.61,33.43z"/>
<path class="st0" d="M200.41,38.42v-8.11h5.42v0.09c-0.05,1.08,0.42,2.12,1.25,2.8c1,0.72,2.21,1.08,3.44,1
	c0.82,0.04,1.64-0.18,2.33-0.63c0.54-0.38,0.86-1.01,0.85-1.67c0-1.06-1.25-1.86-3.74-2.39l-0.55-0.11l-4-0.89
	c-1.59-0.29-3.05-1.09-4.14-2.28c-0.98-1.18-1.49-2.69-1.43-4.23c-0.07-1.96,0.72-3.86,2.16-5.19c1.59-1.38,3.66-2.09,5.76-2
	c0.98,0,1.96,0.14,2.9,0.4c1.02,0.29,2,0.7,2.93,1.22v-1.06h5.17V22h-5.17c-0.45-0.81-1.13-1.47-1.95-1.9
	c-0.9-0.45-1.89-0.67-2.9-0.65c-0.67-0.03-1.34,0.13-1.91,0.48c-0.45,0.27-0.72,0.76-0.71,1.28c-0.01,0.5,0.25,0.97,0.69,1.21
	c0.83,0.41,1.73,0.68,2.65,0.8l3.78,0.75c1.91,0.25,3.69,1.11,5.08,2.45c1.17,1.35,1.77,3.09,1.68,4.87
	c0.08,2.12-0.75,4.17-2.29,5.63c-1.63,1.49-3.79,2.27-6,2.16c-1,0-1.99-0.13-2.95-0.39c-1.04-0.28-2.05-0.66-3-1.16v0.89
	L200.41,38.42z"/>
<g>
	<path class="st1" d="M50.81,2.7c0.35,0.46,0.65,0.95,0.9,1.47c0.26,0.53,0.47,1.09,0.62,1.66c0.16,0.59,0.27,1.19,0.33,1.8
		c0.05,0.63,0.05,1.26,0,1.89c0.05-0.63,0.05-1.26,0-1.89c-0.06-0.61-0.17-1.21-0.33-1.8c-0.15-0.57-0.36-1.13-0.62-1.66
		C51.46,3.65,51.16,3.16,50.81,2.7z"/>
	<path class="st1" d="M47.61,43.95c0.07,0.67,0.04,1.34-0.09,2c-0.12,0.64-0.34,1.26-0.64,1.84c-0.29,0.56-0.66,1.07-1.11,1.51
		c-0.43,0.43-0.95,0.77-1.51,1c0.56-0.23,1.08-0.57,1.51-1c0.45-0.44,0.82-0.95,1.11-1.51c0.3-0.58,0.52-1.2,0.64-1.84
		C47.65,45.29,47.68,44.62,47.61,43.95z"/>
	<path class="st1" d="M5.59,2.8l7.16-0.5l14.12-1l12.44-0.88L45.07,0l-5.76,0.42L26.88,1.3l-14.12,1L5.59,2.8z"/>
	<path class="st1" d="M50.81,2.7c0.35,0.46,0.65,0.95,0.9,1.47c0.26,0.53,0.47,1.09,0.62,1.66c0.16,0.59,0.27,1.19,0.33,1.8
		c0.05,0.63,0.05,1.26,0,1.89L51.15,27.6L25,34.47l0.94,4.82L50.81,32L50,43.09l-2.37,0.86c0.07,0.67,0.04,1.34-0.09,2
		c-0.12,0.64-0.34,1.26-0.64,1.84c-0.29,0.56-0.66,1.07-1.11,1.51c-0.43,0.43-0.95,0.77-1.51,1c-0.53,0.22-1.11,0.31-1.68,0.27
		c-0.57-0.04-1.11-0.22-1.6-0.51c-0.5-0.3-0.94-0.7-1.28-1.18c-0.38-0.53-0.66-1.13-0.83-1.76l-4,1.45
		c0.07,0.73,0.03,1.46-0.12,2.17c-0.15,0.7-0.41,1.37-0.76,2c-0.35,0.63-0.79,1.19-1.32,1.68C32.2,54.9,31.63,55.3,31,55.58
		c-0.63,0.26-1.32,0.38-2,0.35c-0.64-0.02-1.27-0.19-1.84-0.48c-0.59-0.3-1.1-0.72-1.51-1.24c-0.46-0.56-0.8-1.2-1-1.89
		c-1.21,0.43-2.49,0.64-3.78,0.61c-1.12-0.04-2.22-0.36-3.18-0.93c-1-0.61-1.83-1.45-2.42-2.46c-0.73-1.24-1.23-2.59-1.49-4
		L7.72,16.17c-0.85,0.04-1.69-0.08-2.5-0.35c-0.8-0.28-1.55-0.69-2.22-1.21c-0.7-0.53-1.3-1.18-1.78-1.92
		c-0.48-0.76-0.82-1.6-1-2.48c-0.19-0.9-0.19-1.83,0-2.73c0.16-0.84,0.51-1.63,1-2.32c0.49-0.67,1.12-1.23,1.85-1.64
		C3.85,3.1,4.71,2.86,5.59,2.8l7.16-0.5l14.12-1l12.44-0.88L45.07,0c0.56-0.04,1.12-0.01,1.67,0.09c0.53,0.1,1.04,0.27,1.53,0.51
		c0.49,0.23,0.94,0.53,1.36,0.87C50.07,1.83,50.46,2.25,50.81,2.7z M43.48,19.21l0.32-8.07l-22.74,3.24l1.73,8.85l20.68-4"/>
</g>
<g class="st2">
	<path class="st3" d="M19.8,13.41L45,9.43l-0.77,10.64l-22.72,5.38L19.8,13.41z M43.47,19.22l0.32-8.07l-22.73,3.23l1.73,8.85
		l20.68-4"/>
	<g>
		<path class="st3" d="M50.81,2.7c0.35,0.46,0.65,0.95,0.9,1.47c0.26,0.53,0.47,1.09,0.62,1.66c0.16,0.59,0.27,1.19,0.33,1.8
			c0.05,0.63,0.05,1.26,0,1.89c0.05-0.63,0.05-1.26,0-1.89c-0.06-0.61-0.17-1.21-0.33-1.8c-0.15-0.57-0.36-1.13-0.62-1.66
			C51.46,3.65,51.16,3.16,50.81,2.7z"/>
		<path class="st3" d="M47.61,43.95c0.07,0.67,0.04,1.34-0.09,2c-0.12,0.64-0.34,1.26-0.64,1.84c-0.29,0.56-0.66,1.07-1.11,1.51
			c-0.43,0.43-0.95,0.77-1.51,1c0.56-0.23,1.08-0.57,1.51-1c0.45-0.44,0.82-0.95,1.11-1.51c0.3-0.58,0.52-1.2,0.64-1.84
			C47.65,45.29,47.68,44.62,47.61,43.95z"/>
		<path class="st3" d="M39.63,46.34c0.1,0.57,0.31,1.12,0.61,1.61c0.28,0.42,0.64,0.78,1.06,1.05c0.4,0.27,0.85,0.44,1.33,0.49
			c0.49,0.05,0.99-0.02,1.45-0.2c0.49-0.2,0.93-0.49,1.3-0.87c0.38-0.39,0.7-0.84,0.93-1.34c0.5-1.05,0.67-2.23,0.47-3.38
			c0.2,1.15,0.03,2.33-0.47,3.38c-0.23,0.5-0.55,0.95-0.93,1.34c-0.37,0.38-0.81,0.67-1.3,0.87c-0.46,0.18-0.96,0.25-1.45,0.2
			c-0.48-0.05-0.93-0.22-1.33-0.49c-0.42-0.29-0.78-0.66-1.05-1.1C39.95,47.42,39.74,46.89,39.63,46.34z"/>
		<path class="st3" d="M5.59,2.8l7.16-0.5l14.12-1l12.44-0.88L45.07,0l-5.76,0.42L26.88,1.3l-14.12,1L5.59,2.8z"/>
		<path class="st3" d="M50.81,2.7c0.35,0.46,0.65,0.95,0.9,1.47c0.26,0.53,0.47,1.09,0.62,1.66c0.16,0.59,0.27,1.19,0.33,1.8
			c0.05,0.63,0.05,1.26,0,1.89L51.15,27.6L25,34.47l0.94,4.82L50.81,32L50,43.09l-2.37,0.86c0.07,0.67,0.04,1.34-0.09,2
			c-0.12,0.64-0.34,1.26-0.64,1.84c-0.29,0.56-0.66,1.07-1.11,1.51c-0.43,0.43-0.95,0.77-1.51,1c-0.53,0.22-1.11,0.31-1.68,0.27
			c-0.57-0.04-1.11-0.22-1.6-0.51c-0.5-0.3-0.94-0.7-1.28-1.18c-0.38-0.53-0.66-1.13-0.83-1.76l-4,1.45
			c0.07,0.73,0.03,1.46-0.12,2.17c-0.15,0.7-0.41,1.37-0.76,2c-0.35,0.63-0.79,1.19-1.32,1.68C32.2,54.9,31.63,55.3,31,55.58
			c-0.63,0.26-1.32,0.38-2,0.35c-0.64-0.02-1.27-0.19-1.84-0.48c-0.59-0.3-1.1-0.72-1.51-1.24c-0.46-0.56-0.8-1.2-1-1.89
			c-1.21,0.43-2.49,0.64-3.78,0.61c-1.12-0.04-2.22-0.36-3.18-0.93c-1-0.61-1.83-1.45-2.42-2.46c-0.73-1.24-1.23-2.59-1.49-4
			L7.72,16.17c-0.85,0.04-1.69-0.08-2.5-0.35c-0.8-0.28-1.55-0.69-2.22-1.21c-0.7-0.53-1.3-1.18-1.78-1.92
			c-0.48-0.76-0.82-1.6-1-2.48c-0.19-0.9-0.19-1.83,0-2.73c0.16-0.84,0.51-1.63,1-2.32c0.49-0.67,1.12-1.23,1.85-1.64
			C3.85,3.1,4.71,2.86,5.59,2.8l7.16-0.5l14.12-1l12.44-0.88L45.07,0c0.56-0.04,1.12-0.01,1.67,0.09c0.53,0.1,1.04,0.27,1.53,0.51
			c0.49,0.23,0.94,0.53,1.36,0.87C50.07,1.83,50.46,2.25,50.81,2.7z M52,9.13c0.03-0.54,0.01-1.08-0.05-1.62
			C51.89,7,51.79,6.49,51.65,6c-0.14-0.49-0.32-0.96-0.54-1.42c-0.21-0.44-0.47-0.86-0.77-1.25c-0.21-0.28-0.45-0.54-0.7-0.78
			c-0.25-0.23-0.51-0.44-0.79-0.63C48.58,1.73,48.3,1.57,48,1.43c-0.32-0.13-0.66-0.24-1-0.31l-3.57,6.35l-6.31-5.85h-0.59h-0.6
			h-0.61h-0.63l-4.42,7.32l-7.33-6.23l-0.71,0.05l-0.71,0.05l-0.7,0.06l-0.7,0.05l-5.36,7.94L5.9,4C5.17,4.05,4.46,4.26,3.82,4.6
			C3.21,4.95,2.68,5.42,2.27,6c-0.42,0.56-0.7,1.21-0.85,1.89c-0.16,0.73-0.16,1.49,0,2.22c0.16,0.76,0.47,1.48,0.9,2.12
			c0.43,0.62,0.96,1.15,1.58,1.58c0.6,0.45,1.28,0.79,2,1c0.71,0.19,1.45,0.24,2.18,0.15l0.58-0.08l8.82,6.38L11.8,30.1l0.33,1.58
			l8.54,5.59l-5.44,9.24c0.28,0.99,0.71,1.93,1.28,2.78c0.49,0.7,1.12,1.28,1.85,1.71c0.72,0.42,1.54,0.67,2.37,0.73
			c0.95,0.06,1.9-0.03,2.82-0.28l5-9l7.21,4.71l2.19-0.78l4.19-8.21l6.16,4.53l1.05-0.38v-8.41l-24.2,6.75l-2-6.75l5.55-8.73
			l7.14,5.37l2.78-0.71l4.11-7.63l6,5l1.69-0.43L51.05,21l-4.31-7.17L52,9.13"/>
	</g>
</g>
<path class="st1" d="M127.9,47.74c-0.4,0.29-0.88,0.43-1.37,0.41c-0.34,0.01-0.68-0.06-1-0.19c-0.28-0.12-0.52-0.29-0.72-0.52
	c-0.2-0.24-0.35-0.51-0.44-0.81c-0.1-0.33-0.15-0.66-0.16-1c0-0.34,0.06-0.68,0.17-1c0.1-0.29,0.26-0.57,0.47-0.8
	c0.2-0.22,0.45-0.4,0.72-0.52c0.29-0.13,0.6-0.19,0.91-0.19c0.37-0.01,0.75,0.08,1.07,0.27c0.28,0.17,0.51,0.4,0.68,0.68
	c0.17,0.28,0.3,0.58,0.36,0.9c0.06,0.31,0.09,0.62,0.08,0.93H125c-0.01,0.2,0.01,0.4,0.07,0.6c0.05,0.19,0.14,0.36,0.27,0.51
	c0.13,0.15,0.3,0.27,0.48,0.35c0.22,0.09,0.45,0.13,0.68,0.13c0.29,0.01,0.58-0.07,0.83-0.23c0.23-0.17,0.38-0.43,0.43-0.71h0.79
	C128.48,47.01,128.25,47.44,127.9,47.74z M127.71,44.63c-0.14-0.33-0.39-0.59-0.72-0.73c-0.17-0.07-0.36-0.11-0.55-0.11
	c-0.19,0-0.38,0.04-0.56,0.11c-0.16,0.07-0.31,0.17-0.43,0.3c-0.12,0.13-0.22,0.28-0.28,0.44c-0.07,0.17-0.11,0.35-0.12,0.53h2.78
	c-0.01-0.19-0.06-0.37-0.13-0.54H127.71z"/>
<path class="st1" d="M132.39,44.05c-0.23-0.18-0.52-0.27-0.81-0.25c-0.25-0.01-0.5,0.05-0.72,0.16c-0.19,0.1-0.34,0.24-0.46,0.42
	c-0.12,0.19-0.21,0.39-0.25,0.61c-0.05,0.23-0.07,0.47-0.07,0.71c0,0.22,0.03,0.44,0.08,0.66c0.05,0.2,0.13,0.4,0.25,0.57
	c0.11,0.17,0.26,0.3,0.44,0.4c0.2,0.1,0.42,0.16,0.65,0.15c0.34,0.02,0.66-0.09,0.92-0.31c0.24-0.23,0.38-0.54,0.41-0.87h0.81
	c-0.05,0.53-0.29,1.02-0.67,1.39c-0.41,0.34-0.94,0.52-1.47,0.49c-0.34,0.01-0.68-0.05-1-0.18c-0.27-0.11-0.52-0.29-0.71-0.51
	c-0.2-0.23-0.34-0.49-0.43-0.78c-0.1-0.32-0.15-0.66-0.15-1c0-0.34,0.05-0.68,0.14-1c0.09-0.3,0.23-0.58,0.43-0.82
	c0.19-0.24,0.44-0.42,0.72-0.55c0.31-0.14,0.66-0.21,1-0.2c0.26,0,0.52,0.03,0.77,0.1c0.23,0.06,0.45,0.16,0.64,0.3
	c0.18,0.14,0.34,0.32,0.45,0.52c0.12,0.23,0.2,0.48,0.22,0.74h-0.82C132.73,44.51,132.6,44.25,132.39,44.05z"/>
<path class="st1" d="M134.42,44.64c0.09-0.3,0.25-0.57,0.45-0.81c0.2-0.23,0.46-0.42,0.74-0.54c0.64-0.25,1.36-0.25,2,0
	c0.28,0.12,0.54,0.31,0.74,0.54c0.2,0.24,0.36,0.51,0.45,0.81c0.1,0.32,0.15,0.66,0.15,1c0,0.34-0.05,0.68-0.15,1
	c-0.09,0.29-0.25,0.57-0.45,0.8c-0.2,0.23-0.46,0.41-0.74,0.53c-0.64,0.25-1.36,0.25-2,0c-0.28-0.12-0.54-0.3-0.74-0.53
	c-0.2-0.23-0.36-0.51-0.45-0.8c-0.1-0.32-0.15-0.66-0.15-1C134.27,45.3,134.32,44.96,134.42,44.64z M135.23,46.42
	c0.07,0.21,0.18,0.4,0.32,0.57c0.13,0.15,0.3,0.27,0.48,0.35c0.37,0.16,0.8,0.16,1.17,0c0.18-0.08,0.35-0.2,0.48-0.35
	c0.14-0.17,0.25-0.36,0.32-0.57c0.15-0.51,0.15-1.05,0-1.56c-0.07-0.21-0.18-0.41-0.32-0.58c-0.13-0.15-0.3-0.28-0.48-0.36
	c-0.37-0.16-0.8-0.16-1.17,0c-0.18,0.08-0.35,0.21-0.48,0.36c-0.14,0.17-0.25,0.37-0.32,0.58
	C135.08,45.37,135.08,45.91,135.23,46.42z"/>
<path class="st1" d="M140.65,43.21v0.71l0,0c0.53-0.77,1.54-1.04,2.38-0.64c0.25,0.13,0.44,0.36,0.52,0.64
	c0.16-0.26,0.38-0.47,0.64-0.61c0.27-0.15,0.57-0.22,0.88-0.22c0.22,0,0.44,0.02,0.66,0.08c0.19,0.05,0.36,0.13,0.51,0.25
	c0.14,0.12,0.26,0.27,0.33,0.44c0.08,0.2,0.12,0.42,0.12,0.64v3.55h-0.8v-3.18c0.01-0.14,0.01-0.28,0-0.42
	c-0.02-0.12-0.07-0.24-0.14-0.34c-0.07-0.1-0.17-0.18-0.29-0.23c-0.15-0.06-0.31-0.09-0.47-0.08c-0.34-0.02-0.68,0.1-0.93,0.34
	c-0.23,0.24-0.36,0.57-0.34,0.9v3h-0.8v-3.17c0.02-0.14,0.02-0.29,0-0.43c-0.02-0.12-0.07-0.24-0.14-0.34
	c-0.07-0.1-0.17-0.17-0.28-0.22c-0.14-0.06-0.3-0.09-0.45-0.08c-0.21-0.01-0.41,0.04-0.59,0.14c-0.15,0.09-0.29,0.2-0.4,0.34
	c-0.1,0.12-0.18,0.26-0.23,0.41c-0.04,0.11-0.06,0.23-0.07,0.35v3h-0.8v-4.83H140.65z"/>
<path class="st1" d="M148.64,43.21v0.71l0,0c0.53-0.77,1.54-1.04,2.38-0.64c0.25,0.13,0.44,0.36,0.52,0.64
	c0.16-0.26,0.38-0.47,0.64-0.61c0.27-0.15,0.57-0.22,0.88-0.22c0.22,0,0.44,0.02,0.66,0.08c0.19,0.05,0.36,0.13,0.51,0.25
	c0.14,0.12,0.26,0.27,0.33,0.44c0.08,0.2,0.12,0.42,0.12,0.64v3.55h-0.8v-3.18c0.01-0.14,0.01-0.28,0-0.42
	c-0.02-0.12-0.07-0.24-0.14-0.34c-0.07-0.1-0.17-0.18-0.29-0.23c-0.15-0.06-0.31-0.09-0.47-0.08c-0.34-0.02-0.68,0.1-0.93,0.34
	c-0.23,0.24-0.36,0.57-0.34,0.9v3h-0.8v-3.17c0.02-0.14,0.02-0.29,0-0.43c-0.02-0.12-0.07-0.24-0.14-0.34
	c-0.07-0.1-0.17-0.17-0.28-0.22c-0.14-0.06-0.3-0.09-0.45-0.08c-0.21-0.01-0.41,0.04-0.59,0.14c-0.15,0.09-0.29,0.2-0.4,0.34
	c-0.1,0.12-0.17,0.26-0.22,0.41c-0.04,0.11-0.06,0.23-0.07,0.35v3h-0.8v-4.83H148.64z"/>
<path class="st1" d="M159.31,47.74c-0.4,0.29-0.88,0.43-1.37,0.41c-0.34,0.01-0.68-0.06-1-0.19c-0.28-0.12-0.52-0.29-0.72-0.52
	c-0.2-0.24-0.35-0.51-0.44-0.81c-0.1-0.33-0.15-0.66-0.16-1c0-0.34,0.06-0.68,0.17-1c0.1-0.29,0.26-0.57,0.47-0.8
	c0.2-0.22,0.45-0.4,0.72-0.52c0.29-0.13,0.6-0.19,0.91-0.19c0.37-0.01,0.75,0.08,1.07,0.27c0.28,0.17,0.51,0.4,0.68,0.68
	c0.17,0.28,0.3,0.58,0.36,0.9c0.06,0.31,0.09,0.62,0.08,0.93h-3.62c-0.01,0.2,0.01,0.4,0.07,0.6c0.05,0.19,0.14,0.36,0.27,0.51
	c0.13,0.15,0.3,0.27,0.48,0.35c0.22,0.09,0.45,0.13,0.68,0.13c0.29,0.01,0.58-0.07,0.83-0.23c0.23-0.17,0.38-0.43,0.43-0.71H160
	C159.92,47.02,159.68,47.44,159.31,47.74z M159.12,44.63c-0.14-0.33-0.39-0.59-0.72-0.73c-0.17-0.07-0.36-0.11-0.55-0.11
	c-0.19,0-0.38,0.04-0.56,0.11c-0.16,0.07-0.31,0.17-0.43,0.3c-0.12,0.13-0.22,0.28-0.28,0.44c-0.07,0.17-0.11,0.35-0.12,0.53h2.78
	C159.23,44.98,159.19,44.8,159.12,44.63z"/>
<path class="st1" d="M161.64,43.21v1l0,0c0.16-0.35,0.4-0.65,0.71-0.87c0.32-0.2,0.69-0.29,1.07-0.26v0.84
	c-0.28-0.01-0.55,0.04-0.81,0.13c-0.21,0.08-0.4,0.21-0.54,0.38c-0.14,0.18-0.25,0.39-0.3,0.61c-0.07,0.27-0.1,0.55-0.09,0.83v2.15
	h-0.8v-4.81H161.64z"/>
<path class="st1" d="M166.76,44.05c-0.23-0.18-0.52-0.27-0.81-0.25c-0.25-0.01-0.5,0.05-0.72,0.16c-0.19,0.1-0.34,0.24-0.46,0.42
	c-0.12,0.19-0.21,0.39-0.25,0.61c-0.05,0.23-0.07,0.47-0.07,0.71c0,0.22,0.03,0.44,0.08,0.66c0.05,0.2,0.13,0.4,0.25,0.57
	c0.11,0.17,0.26,0.3,0.44,0.4c0.2,0.1,0.42,0.16,0.65,0.15c0.34,0.02,0.66-0.09,0.92-0.31c0.24-0.23,0.38-0.54,0.41-0.87h0.8
	c-0.05,0.53-0.29,1.02-0.67,1.39c-0.41,0.34-0.94,0.52-1.47,0.49c-0.34,0.01-0.68-0.05-1-0.18c-0.27-0.11-0.52-0.29-0.71-0.51
	c-0.2-0.23-0.34-0.49-0.43-0.78c-0.1-0.32-0.15-0.66-0.15-1c0-0.34,0.05-0.68,0.14-1c0.09-0.3,0.23-0.58,0.43-0.82
	c0.19-0.24,0.44-0.42,0.72-0.55c0.31-0.14,0.66-0.21,1-0.2c0.26,0,0.52,0.03,0.77,0.1c0.23,0.06,0.45,0.16,0.64,0.3
	c0.18,0.14,0.34,0.32,0.45,0.52c0.12,0.23,0.2,0.48,0.22,0.74h-0.82C167.09,44.52,166.96,44.25,166.76,44.05z"/>
<path class="st1" d="M172.32,47.74c-0.4,0.29-0.88,0.43-1.37,0.41c-0.34,0.01-0.68-0.06-1-0.19c-0.28-0.12-0.52-0.29-0.72-0.52
	c-0.2-0.24-0.35-0.51-0.44-0.81c-0.1-0.33-0.15-0.66-0.16-1c0-0.34,0.06-0.68,0.17-1c0.1-0.29,0.26-0.57,0.47-0.8
	c0.2-0.22,0.45-0.4,0.72-0.52c0.29-0.13,0.6-0.19,0.91-0.19c0.37-0.01,0.75,0.08,1.07,0.27c0.28,0.17,0.51,0.4,0.68,0.68
	c0.17,0.28,0.3,0.58,0.36,0.9c0.06,0.31,0.09,0.62,0.08,0.93h-3.62c-0.01,0.2,0.02,0.4,0.07,0.6c0.05,0.19,0.14,0.36,0.27,0.51
	c0.13,0.15,0.3,0.27,0.48,0.35c0.22,0.09,0.45,0.13,0.68,0.13c0.29,0.01,0.58-0.07,0.83-0.23c0.23-0.17,0.38-0.43,0.43-0.71H173
	C172.93,47.02,172.68,47.44,172.32,47.74z M172.13,44.63c-0.14-0.33-0.39-0.59-0.72-0.73c-0.17-0.07-0.36-0.11-0.55-0.11
	c-0.19,0-0.38,0.04-0.56,0.11c-0.16,0.07-0.31,0.17-0.43,0.3c-0.12,0.13-0.22,0.28-0.28,0.44c-0.07,0.17-0.11,0.35-0.12,0.53h2.78
	C172.24,44.98,172.2,44.8,172.13,44.63z"/>
<path class="st1" d="M177.14,47c0.07,0.12,0.17,0.22,0.29,0.29c0.13,0.08,0.27,0.13,0.41,0.16c0.16,0.02,0.31,0.02,0.47,0h0.39
	c0.13-0.02,0.26-0.05,0.38-0.1c0.11-0.05,0.21-0.12,0.29-0.22c0.08-0.11,0.12-0.24,0.11-0.37c0.01-0.19-0.08-0.36-0.23-0.47
	c-0.18-0.12-0.38-0.21-0.59-0.26c-0.23-0.07-0.49-0.13-0.76-0.18c-0.26-0.05-0.52-0.13-0.76-0.23c-0.22-0.09-0.42-0.23-0.58-0.41
	c-0.16-0.21-0.25-0.47-0.23-0.73c-0.01-0.22,0.05-0.44,0.16-0.63c0.11-0.17,0.25-0.32,0.42-0.43c0.18-0.11,0.37-0.19,0.58-0.24
	c0.21-0.05,0.42-0.08,0.64-0.08c0.26,0,0.51,0.02,0.76,0.07c0.22,0.04,0.42,0.12,0.61,0.24c0.18,0.12,0.33,0.28,0.43,0.47
	c0.12,0.23,0.18,0.48,0.19,0.74h-0.8c-0.01-0.14-0.05-0.27-0.12-0.39c-0.07-0.1-0.16-0.19-0.26-0.25c-0.11-0.07-0.23-0.11-0.35-0.14
	c-0.13-0.01-0.26-0.01-0.39,0h-0.36c-0.11,0.02-0.23,0.05-0.33,0.1c-0.09,0.04-0.18,0.11-0.24,0.19c-0.06,0.09-0.1,0.19-0.09,0.3
	c0,0.13,0.05,0.25,0.14,0.34c0.11,0.1,0.23,0.17,0.37,0.22c0.17,0.06,0.34,0.11,0.51,0.15l0.56,0.13c0.2,0.05,0.4,0.1,0.59,0.16
	c0.18,0.06,0.35,0.14,0.51,0.25c0.15,0.1,0.27,0.23,0.36,0.39c0.1,0.18,0.15,0.38,0.14,0.58c0.01,0.26-0.05,0.51-0.18,0.73
	c-0.12,0.19-0.28,0.35-0.48,0.47c-0.21,0.12-0.43,0.21-0.67,0.25c-0.24,0.05-0.49,0.07-0.74,0.07c-0.26,0-0.52-0.02-0.77-0.08
	c-0.23-0.05-0.45-0.15-0.65-0.28c-0.19-0.13-0.34-0.31-0.45-0.51c-0.12-0.24-0.18-0.5-0.19-0.76h0.8
	C177.02,46.7,177.06,46.86,177.14,47z"/>
<path class="st1" d="M181.1,44.64c0.09-0.3,0.25-0.57,0.45-0.81c0.2-0.23,0.46-0.42,0.74-0.54c0.64-0.25,1.36-0.25,2,0
	c0.28,0.12,0.54,0.31,0.74,0.54c0.2,0.24,0.36,0.51,0.45,0.81c0.1,0.32,0.15,0.66,0.15,1c0,0.34-0.05,0.68-0.15,1
	c-0.09,0.29-0.25,0.57-0.45,0.8c-0.2,0.23-0.46,0.41-0.74,0.53c-0.64,0.25-1.36,0.25-2,0c-0.28-0.12-0.54-0.3-0.74-0.53
	c-0.2-0.23-0.36-0.51-0.45-0.8c-0.1-0.32-0.15-0.66-0.15-1C180.95,45.3,181,44.96,181.1,44.64z M181.91,46.42
	c0.07,0.21,0.18,0.4,0.32,0.57c0.13,0.15,0.3,0.27,0.48,0.35c0.37,0.16,0.8,0.16,1.17,0c0.18-0.08,0.35-0.2,0.48-0.35
	c0.14-0.17,0.25-0.36,0.32-0.57c0.15-0.51,0.15-1.05,0-1.56c-0.07-0.21-0.18-0.41-0.32-0.58c-0.13-0.15-0.3-0.28-0.48-0.36
	c-0.37-0.16-0.8-0.16-1.17,0c-0.18,0.08-0.35,0.21-0.48,0.36c-0.14,0.17-0.25,0.37-0.32,0.58
	C181.76,45.37,181.76,45.91,181.91,46.42z"/>
<path class="st1" d="M187.43,41.36v6.69h-0.8v-6.69H187.43z"/>
<path class="st1" d="M191.93,48.05v-0.77l0,0c-0.15,0.28-0.37,0.51-0.65,0.66c-0.29,0.15-0.61,0.22-0.93,0.21
	c-0.27,0.01-0.54-0.04-0.8-0.13c-0.2-0.08-0.37-0.2-0.51-0.36c-0.14-0.16-0.23-0.35-0.28-0.56c-0.06-0.24-0.08-0.48-0.08-0.72v-3.17
	h0.8v3.28c-0.05,0.5,0.31,0.95,0.81,1c0.06,0.01,0.13,0.01,0.19,0c0.22,0.01,0.43-0.03,0.63-0.11c0.17-0.07,0.32-0.18,0.44-0.32
	c0.12-0.14,0.21-0.3,0.27-0.48c0.06-0.2,0.09-0.4,0.09-0.61v-2.76h0.8v4.84H191.93z"/>
<path class="st1" d="M195.95,43.21v0.7h-1v3c-0.01,0.07-0.01,0.15,0,0.22c0.01,0.05,0.05,0.1,0.09,0.13
	c0.05,0.03,0.12,0.06,0.18,0.06h0.67v0.7h-0.61c-0.18,0.02-0.35,0.02-0.53,0c-0.13-0.02-0.25-0.07-0.36-0.15
	c-0.1-0.08-0.17-0.2-0.2-0.32c-0.05-0.18-0.07-0.36-0.07-0.54v-3.1h-0.82v-0.7h0.82v-1.45h0.8v1.45H195.95z"/>
<path class="st1" d="M196.87,42.34v-1h0.8v1H196.87z M197.67,43.21v4.84h-0.8v-4.84H197.67z"/>
<path class="st1" d="M198.79,44.64c0.09-0.3,0.25-0.57,0.45-0.81c0.2-0.23,0.46-0.42,0.74-0.54c0.64-0.25,1.36-0.25,2,0
	c0.28,0.12,0.54,0.31,0.74,0.54c0.2,0.24,0.36,0.51,0.45,0.81c0.1,0.32,0.15,0.66,0.15,1c0,0.34-0.05,0.68-0.15,1
	c-0.09,0.29-0.25,0.57-0.45,0.8c-0.2,0.24-0.44,0.43-0.72,0.56c-0.64,0.25-1.36,0.25-2,0c-0.28-0.12-0.54-0.3-0.74-0.53
	c-0.2-0.23-0.36-0.51-0.45-0.8c-0.1-0.32-0.15-0.66-0.15-1C198.65,45.32,198.69,44.97,198.79,44.64z M199.6,46.42
	c0.07,0.21,0.18,0.4,0.32,0.57c0.13,0.15,0.3,0.27,0.48,0.35c0.37,0.16,0.8,0.16,1.17,0c0.18-0.08,0.35-0.2,0.48-0.35
	c0.14-0.17,0.25-0.36,0.32-0.57c0.15-0.51,0.15-1.05,0-1.56c-0.07-0.21-0.18-0.41-0.32-0.58c-0.13-0.15-0.3-0.28-0.48-0.36
	c-0.37-0.16-0.8-0.16-1.17,0c-0.18,0.08-0.35,0.21-0.48,0.36c-0.14,0.17-0.25,0.37-0.32,0.58C199.45,45.37,199.45,45.91,199.6,46.42
	z"/>
<path class="st1" d="M205,43.21V44l0,0c0.31-0.57,0.92-0.92,1.57-0.88c0.27-0.01,0.54,0.03,0.8,0.13c0.2,0.08,0.38,0.21,0.52,0.37
	c0.14,0.16,0.23,0.35,0.28,0.56c0.06,0.24,0.08,0.48,0.08,0.72v3.19h-0.8v-3.32c0.01-0.26-0.08-0.52-0.26-0.71
	c-0.2-0.18-0.46-0.27-0.72-0.26c-0.22-0.01-0.43,0.03-0.63,0.11c-0.17,0.07-0.32,0.18-0.44,0.32c-0.12,0.14-0.21,0.3-0.27,0.48
	c-0.06,0.19-0.09,0.4-0.09,0.6v2.74h-0.8v-4.84H205z"/>
<path class="st1" d="M210.1,47c0.07,0.12,0.17,0.22,0.29,0.29c0.13,0.08,0.27,0.13,0.41,0.16c0.16,0.02,0.31,0.02,0.47,0h0.39
	c0.13-0.02,0.26-0.05,0.38-0.1c0.11-0.05,0.21-0.12,0.29-0.22c0.08-0.11,0.12-0.24,0.11-0.37c0.01-0.19-0.08-0.36-0.23-0.47
	c-0.18-0.12-0.38-0.21-0.59-0.26c-0.23-0.07-0.49-0.13-0.76-0.18c-0.26-0.05-0.52-0.13-0.76-0.23c-0.22-0.09-0.42-0.23-0.58-0.41
	c-0.16-0.21-0.25-0.47-0.23-0.73c-0.01-0.22,0.05-0.44,0.16-0.63c0.11-0.17,0.25-0.32,0.42-0.43c0.18-0.11,0.37-0.19,0.58-0.24
	c0.21-0.05,0.42-0.08,0.64-0.08c0.26,0,0.51,0.02,0.76,0.07c0.22,0.04,0.42,0.12,0.61,0.24c0.18,0.12,0.33,0.28,0.43,0.47
	c0.12,0.23,0.18,0.48,0.19,0.74h-0.8c-0.01-0.14-0.05-0.27-0.12-0.39c-0.07-0.1-0.16-0.19-0.26-0.25c-0.11-0.07-0.23-0.11-0.35-0.14
	c-0.13-0.01-0.26-0.01-0.39,0h-0.36c-0.11,0.02-0.23,0.05-0.33,0.1c-0.09,0.04-0.18,0.11-0.24,0.19c-0.06,0.09-0.1,0.19-0.09,0.3
	c0,0.13,0.05,0.25,0.14,0.34c0.11,0.1,0.23,0.17,0.37,0.22c0.17,0.06,0.34,0.11,0.51,0.15l0.56,0.13c0.2,0.05,0.4,0.1,0.59,0.16
	c0.18,0.06,0.35,0.14,0.51,0.25c0.15,0.1,0.27,0.23,0.36,0.39c0.1,0.18,0.15,0.38,0.14,0.58c0.01,0.26-0.05,0.51-0.18,0.73
	c-0.12,0.19-0.28,0.35-0.48,0.47c-0.21,0.12-0.43,0.21-0.67,0.25c-0.24,0.05-0.49,0.07-0.74,0.07c-0.26,0-0.52-0.02-0.77-0.08
	c-0.23-0.05-0.45-0.15-0.65-0.28c-0.19-0.13-0.34-0.31-0.45-0.51c-0.12-0.24-0.18-0.5-0.19-0.76h0.8
	C209.99,46.7,210.02,46.86,210.1,47z"/>
</svg>
