<?xml version="1.0" encoding="utf-8"?>
<!-- Generator: Adobe Illustrator 23.0.3, SVG Export Plug-In . SVG Version: 6.00 Build 0)  -->
<svg version="1.1" id="Laag_1" xmlns="http://www.w3.org/2000/svg" xmlns:xlink="http://www.w3.org/1999/xlink" x="0px" y="0px"
	 viewBox="0 0 402.6 335.1" style="enable-background:new 0 0 402.6 335.1;" xml:space="preserve">
<style type="text/css">
	.st0{fill:#9C7048;}
	.st1{fill:#B98754;}
	.st2{fill:#453429;}
	.st3{fill:#7B634C;}
	.st4{fill:#A47651;}
	.st5{fill:#84705D;}
	.st6{fill:#7A644B;}
	.st7{fill:#7E664F;}
	.st8{fill:#634C3C;}
	.st9{fill-rule:evenodd;clip-rule:evenodd;}
	.st10{fill:#2B2523;}
	.st11{fill:#911913;}
	.st12{fill:#E0818F;}
	.st13{fill:#903525;}
	.st14{fill:#151310;}
	.st15{fill:#FFFEFA;}
	.st16{fill:#14130E;}
	.st17{fill:#E30613;}
	.st18{fill:url(#SVGID_1_);stroke:#13110C;stroke-width:2.1275;stroke-miterlimit:10;}
	.st19{fill-rule:evenodd;clip-rule:evenodd;fill:#E30D13;}
	.st20{fill-rule:evenodd;clip-rule:evenodd;fill:#2B2523;}
	.st21{fill-rule:evenodd;clip-rule:evenodd;fill:url(#SVGID_2_);stroke:#13110C;stroke-width:2.1275;stroke-miterlimit:10;}
	.st22{fill-rule:evenodd;clip-rule:evenodd;fill:url(#SVGID_3_);stroke:#13110C;stroke-width:2.1275;stroke-miterlimit:10;}
	.st23{fill-rule:evenodd;clip-rule:evenodd;fill:url(#SVGID_4_);stroke:#13110C;stroke-width:2.1275;stroke-miterlimit:10;}
	.st24{fill-rule:evenodd;clip-rule:evenodd;fill:url(#SVGID_5_);stroke:#13110C;stroke-width:2.1275;stroke-miterlimit:10;}
	.st25{fill-rule:evenodd;clip-rule:evenodd;fill:url(#SVGID_6_);stroke:#13110C;stroke-width:2.1275;stroke-miterlimit:10;}
	.st26{fill-rule:evenodd;clip-rule:evenodd;fill:url(#SVGID_7_);}
	.st27{fill:#13110C;}
	.st28{fill-rule:evenodd;clip-rule:evenodd;fill:url(#SVGID_8_);}
	.st29{fill-rule:evenodd;clip-rule:evenodd;fill:url(#SVGID_9_);}
	.st30{fill-rule:evenodd;clip-rule:evenodd;fill:url(#SVGID_10_);stroke:#13110C;stroke-width:2.1275;stroke-miterlimit:10;}
	.st31{fill-rule:evenodd;clip-rule:evenodd;fill:url(#SVGID_11_);stroke:#13110C;stroke-width:2.1275;stroke-miterlimit:10;}
	.st32{fill-rule:evenodd;clip-rule:evenodd;fill:url(#SVGID_12_);stroke:#13110C;stroke-width:2.1275;stroke-miterlimit:10;}
	.st33{fill-rule:evenodd;clip-rule:evenodd;fill:url(#SVGID_13_);stroke:#13110C;stroke-width:2.1275;stroke-miterlimit:10;}
	.st34{fill-rule:evenodd;clip-rule:evenodd;fill:url(#SVGID_14_);stroke:#13110C;stroke-width:2.1275;stroke-miterlimit:10;}
	.st35{fill:#FFFFFF;stroke:#13110C;stroke-width:2.5531;stroke-miterlimit:10;}
	.st36{fill:#DAC000;}
	.st37{fill:#E9521E;}
	.st38{fill:#FEFFFF;}
	.st39{fill:#FFFFFF;}
	.st40{fill:#3CAAE1;}
	.st41{fill:#B1CC32;}
	.st42{fill:#7E5619;}
</style>
<path class="st0" d="M41,148.7c-0.3,0.3,17.3,37.4,17.3,37.4l13.6-0.6l-21.4-44L41,148.7z"/>
<polygon class="st1" points="71.9,185.5 91.6,171.9 68.9,129.1 54.2,124.6 50.4,142.1 "/>
<path class="st2" d="M69.3,141.9c1.1,2.4,0.4,5-1.6,5.9c-2,0.9-4.5-0.3-5.6-2.6c-1.1-2.4-0.4-5,1.6-5.9
	C65.8,138.4,68.2,139.5,69.3,141.9z"/>
<g>
	<g>
		<g>
			<path class="st3" d="M63.8,139.3c-0.2,0.1-0.5,0.2-0.7,0.4c1.8-0.4,3.9,0.8,4.8,2.9c1,2.1,0.5,4.4-1,5.5c0.2-0.1,0.5-0.1,0.7-0.2
				c2-0.9,2.7-3.6,1.6-5.9C68.2,139.5,65.7,138.4,63.8,139.3z"/>
		</g>
	</g>
</g>
<path class="st3" d="M69.2,153.2l12.1-5.6c0,0,1.9,0.5,1.2,2.5l-12.7,4.3L69.2,153.2z"/>
<polygon class="st4" points="71.9,185.5 48.6,138.4 48,141 69.8,185.5 "/>
<polygon class="st5" points="48.6,150.1 46.9,149.7 52.9,124.6 54.1,125.4 "/>
<polygon class="st6" points="41.8,129.5 53.7,124.2 48.2,149 34.8,152.6 "/>
<polygon class="st2" points="34.8,152.6 35.3,153.7 48.7,150.1 48.2,149 "/>
<polygon class="st7" points="53.7,124.2 75.1,130.4 74.6,132.8 53.2,126.4 "/>
<polygon class="st8" points="53.5,128.2 53.9,125.7 74.9,131.3 74.6,132.8 71.6,134.2 70.6,132.2 "/>
<path class="st9" d="M66.5,94.9c0.1,0,0.2,0,0.2,0c1.8,2.4,4.7,4.8,7.7,6.3c0.5,0.2,1,0.2,1.5,0.5c0.8,0.4,1.7,2.2,2.6,1.5
	c-0.7-2.2-0.1-5.1,0.7-6.9c0.6,1.7,0.9,3.7,1.1,5.7c1.2-0.3,2.6-0.6,3.9,0.1c0.6,0.4,0.9,1.1,1.5,1.5c0.9,0.6,2,0.2,3,1
	c-1,0.2-2,0-2.8,0.1c-1.3,0.2-2.9,1.5-3.2,2.3c-0.3,0.9-0.1,1.7-0.6,2.4c-1,1.4-2.6,1.7-3.7,2.9c-0.3,0.3-0.2,0.8-0.7,0.9
	c-0.4-0.1,0.2-0.2,0.1-0.5c-0.9,0.1-1.1,1-1.7,1.5c-0.9,0.8-2.2,1-3,2c-0.5,0.6-0.4,1.3-1.2,1.6c0-1,0.4-1.5,0.6-2.3
	c-1,0.2-2.1,0.9-3.3,1.1c1.2-1,2.3-2.2,3.2-3.5c0.2-2.2,1.4-3.3,1.8-5.2c-1.2-0.9-1.6-2.1-2.8-3c-0.1-0.2,0.1-0.3,0.1-0.5
	c-0.6-0.3-0.7-0.8-1-1.3c-0.2-0.2-0.5-0.4-0.7-0.6c-0.4-0.5-0.7-1.2-1.2-1.9c-1-1.4-1.2-2.1-1.7-3.9C67,96.2,66.3,95.6,66.5,94.9z"
	/>
<path class="st10" d="M328.3,215.9c0-0.3,1.5-2.7,0.1-9.3c-1.4-6.6,3.7-9.4,7.1-8.1c3.4,1.3,5.1-2.1-0.8-3.2
	c-5.9-1.1-11,2.7-10.7,12.6c0.3,9.9-3.3,10.6-4.8,11.5c-1.5,1-9.5,8.8-8.7,20.3c0,0,0.1,5.3-4,5c0,0,3.4,3,5.8,1.8
	c0,0,0.4-6.3,3.4-7l5.1,9.2c0,0-2.4,5.1-2.4,6c0,0,4.7,4.2,7.1,0.2c0,0,2.3,7.7,6,6.4c3.6-1.3,3.2-2.7,2-5.1c0,0-5.7-7.9-4.3-11.9
	c0,0,8.3-7.5,8.6-11.2c0,0,1.7-0.6,6.3,3.6c0,0,3.9,1.9,5.5-2.7c0,0,0-2.3,1.8-7.1c0,0,1.8-3.4,0.5-5.7c0,0-0.7-1.1,3.7-3.3
	c4.3-2.2,1.9-2.1,1.9-2.1s-6.4,0.2-6.5,0.4c-0.1,0.2-2.3-3.4-12.1-1.4C328.9,216.6,328.3,215.9,328.3,215.9z"/>
<g>
	<path class="st10" d="M390,198c-0.3-0.1-35.3-5.8-48-12.8c-0.9,0.5-4.2,2.3-8.4,3.3c-6.3,1.6-11.5,0.6-14.9-2.9l0.6-0.6
		c7.7,7.9,22.3-0.6,22.4-0.7l0.2-0.1l0.2,0.1c12.3,7,47,12.7,47.3,12.8L390,198z"/>
</g>
<path class="st11" d="M309.3,182.3c0,0,70.3-2.7,84,17.8c0,0,0.4,1.6-2-0.8c0,0-15-19.2-82-13.8
	C309.3,185.5,307.1,183.3,309.3,182.3z"/>
<path class="st12" d="M136.8,68.9c0,0,1.4-9.3,15.5-8.6c0,0,2.7,16.9-8.9,13.6c0,0-9.6,1.2-7.8,13.1c1.9,11.9-15.5,8.2-6.2-7.8
	c0,0-5,5.5-2.8,12.5c0,0,1.9,5.1-6.7,2.3c0,0-9-2.5,2.4-15.5C122.6,78.5,125.9,71,136.8,68.9z"/>
<path class="st13" d="M140,26.3l1.9-8.9c0,0-21.9-1.6-19.8-10.2l22.6,4.1c0,0,8.9-1.2,0,14.9l0.7,1.9c0,0,14.9,0.2,18.1,3.7
	c0,0,0.1-17.7,19-15.1c18.9,2.6,16.6,41.4,12.2,43.5c0,0-22.2-9.2-13.4-21.6c0,0-11.6-16.6-12.1,9.3c0,0-7.9,55.2,19.8,68.8h-30.8
	c0,0,1.8-12.2-25.7-36c0,0,33.8,3.6,29.4-27c0,0-20.3,20.3-38,13.5c-17.7-6.8-22.4-25.9-20.7-39.2c0,0-1.4-6.5,17.7-4.2
	C140,26.3,140,26.3,140,26.3z"/>
<path class="st14" d="M119.8,55.8c0,0-7.7-7.5-8.4-19.1c0,0-4.7,0.5-7.2-9.4c0,0-1.9-4.7,7.8-4.4c9.7,0.3,9.7,0.3,9.7,0.3
	s0.2,13.8-6.8,13.8C114.9,37.1,113.9,46.9,119.8,55.8z"/>
<path class="st15" d="M116.1,25.6c0,0,0.3,8,0,8.7c0,0,3.3-1.4,3.7-8.7H116.1z"/>
<path class="st15" d="M109.5,25.1c0,0-0.3,8,0,8.7c0,0-3.3-1.4-3.7-8.7H109.5z"/>
<path class="st16" d="M160.9,11.4c0,0,5.4,0.8,5.6,4.9C166.5,16.3,167.8,9.6,160.9,11.4z"/>
<path class="st13" d="M239.5,57.4c0,0,44.6,47,18.8,88.6l10.8,6.2C269,152.2,295,91.8,239.5,57.4z"/>
<path class="st17" d="M175.3,104.8c0,0,13.3,2.1,17-3.7l4.2,6.3c0,0-6.8,10.8-18.4,4.7L175.3,104.8z"/>
<linearGradient id="SVGID_1_" gradientUnits="userSpaceOnUse" x1="48.7061" y1="194.9314" x2="100.9758" y2="194.9314">
	<stop  offset="0" style="stop-color:#FFFBE3"/>
	<stop  offset="1" style="stop-color:#FFFFFD"/>
</linearGradient>
<path class="st18" d="M96.3,159c0,0-32.5,17.3-47.6,40.2c0,0,16.5-3.9,23,2.4l15.6-22.4L77.4,206c0,0,9.9,7.2,11.8,24.8
	C89.2,230.8,110,189.8,96.3,159z"/>
<polygon class="st19" points="300.8,325.6 79.1,283.4 104.8,97.3 336.5,124.2 "/>
<g>
	<g>
		<path class="st20" d="M273.7,296.6c-4.5-4-9.2-7.6-13.4-12.1c2.5-4.8,7-12.9,2.2-19.7c-5-6.9-18.3,1-24.5,4.2
			c4,14.5,7.8,29.3,12.3,43c2.4-1.8,5.5-3.1,8-4.8c-1.6-4.7-3.1-9.6-4.5-14.7c5,4.6,9.4,9.9,14.4,14.4
			C270,303.5,272.5,300.5,273.7,296.6z M252,284.7c-1-2.1-1.8-5.9-1.9-8.2c1.7-1,4.2-2.8,6-1.4C257,279.7,254,282.8,252,284.7z"/>
		<path class="st20" d="M234.1,268.3c-5.7,1.6-11.9,2.9-17.6,4.5c0.4,11.5-0.3,22.5-1.1,33.1c-3.4-12.6-6.5-25.6-8.3-40.1
			c-0.2,0-0.3,0-0.5,0c-5.7,1.6-11.9,2.9-17.6,4.5c0.4,12.2-0.5,23.9-1.2,35.1c-4.9,0.3-9.1,1.3-14,1.7c2.9-6,6.9-12.2,10.6-18.1
			c1-1.6,3.3-4.6,3.4-6.1c0.4-3.6-1.7-6.9-1.8-11.2c-8.4,1-16.2,2.5-24.6,3.4c1,4,1.6,8.4,3.1,11.8c3.3-1,7.2-1.5,10.9-2.2
			c-4.7,7.8-9.7,15.4-14.3,23.3c-2.9-11-5.4-22.4-6.9-35c-0.2,0-0.3,0-0.5,0c-5.7,1.6-11.9,2.9-17.6,4.5c0.2,6,0.1,11.8-0.1,17.5
			c-1.8-2.6-4.9-3.1-9.1-1.8c3-4.6,7.4-15.5,1.1-20.7c-6.5-5.4-17.5,3.7-24.4,5.8c4.7,13.4,8.7,27.9,12.5,42.7
			c7.8-1.1,15.2-5.6,18.9-11.6c-0.3,4.7-0.7,9.3-0.9,13.7c3.8-1.1,8.1-1.9,12.1-2.8c-0.1-2-0.3-4-0.1-5.6c1.3-0.4,2.7-0.7,4-1
			c0.6,2.5,0.5,5.8,1.5,7.8c3.5-1.4,7.4-2.5,11.3-3.6c0.2,0.9,0.5,1.7,0.7,2.6c8.1-2.1,17.9-2.6,26.6-4c-0.1-0.4-0.2-0.8-0.3-1.3
			c3-0.7,6.2-1.3,9.2-2.1c-0.1-2-0.3-4-0.1-5.6c1.3-0.4,2.7-0.7,4-1c0.6,2.5,0.5,5.8,1.5,7.8c3.3-1.3,6.9-2.3,10.4-3.4
			c-0.2,2.5-0.3,5.1-0.5,7.5c3.8-1.1,8.1-1.9,12.1-2.8c-0.1-2-0.3-4-0.1-5.6c1.3-0.4,2.7-0.7,4-1c0.6,2.5,0.5,5.8,1.5,7.8
			c3.8-1.5,8-2.6,12-3.9c-4-14-7.6-28.4-9.6-44.7C234.4,268.3,234.3,268.3,234.1,268.3z M117.3,284.8c1.2-0.9,3.9-2.2,5.2-1.2
			c0.9,4.2-1.4,6.6-3.2,9.1C118.3,290.7,118.1,287.4,117.3,284.8z M123.2,307.6c-1.1-1.5-1.4-4.3-2-6.6c2.4-0.7,6.5-3.5,7.8-1.2
			C130.8,302.8,125.4,305.7,123.2,307.6z M146.1,306.2c-0.9-7.7-0.8-16.6-1.1-24.5c1.5,7.6,2.6,15.7,3.8,23.6
			C148.1,305.8,146.7,305.7,146.1,306.2z M199,299c-0.9-7.7-0.8-16.6-1.1-24.5c1.5,7.6,2.6,15.7,3.8,23.6
			C201.1,298.6,199.6,298.4,199,299z M226.5,301.5c-0.9-7.7-0.8-16.6-1.1-24.5c1.5,7.6,2.6,15.7,3.8,23.6
			C228.6,301.1,227.2,301,226.5,301.5z"/>
	</g>
	<path class="st20" d="M294.6,295.7c-1-8.6-1.8-17.4-2.8-25.9c3.5-1,7.3-1.8,10.7-2.9c0.6,15,1.5,32.4,4,46.6
		c-3.2,1.1-6.4,2.3-9.6,3.5c-3.5-4.6-6.5-9.7-9.8-14.6c0.5,5.3,1.3,10.2,2,15.2c-3.4,1.1-6.3,2.6-9.7,3.7
		c-1.8-16.7-3.4-33.6-5.2-50.2c3.5-1,7.6-2.2,10.9-2.9C287.7,278,290.2,287.9,294.6,295.7z"/>
	<path class="st20" d="M320.5,300.3c3.6-0.9,7.6-1.7,11.2-2.7c1,3.9,1.7,8.2,2.6,12.3c-8,1.4-15,3.7-21.9,6.1
		c-1.5-15.8-3.3-31.4-4.9-47.2c3.5-1,7.3-1.8,10.7-2.9C318.7,276.7,319,289.2,320.5,300.3z"/>
	<path class="st20" d="M265.1,309.5c4-0.5,8.1,2.2,6.5,6.9c-1.6,4.8-11,7.7-13.6,2.7C255.3,314,260.9,310,265.1,309.5z"/>
</g>
<g>
	<path class="st20" d="M180.3,246.3c0.1-2.5-0.1-4.7-0.3-6.9c4.7-1.5,10-2.2,15-3.3c-0.7-3.8-1.2-7.8-1.8-11.7
		c-4.4,0.7-9.4,2.4-13.2,2.7c0-3.2,0-6.4,0-9.6c4.9-0.8,9.8-1.6,15.3-1.8c-1-5.3-1.1-11.5-2.7-16.2c-8.9,1.6-18.1,2.9-27.3,4.2
		c0.7,20.9,2.1,41.1,2.7,62.1c9.7-2.4,19.3-5,30.3-6c-0.6-5.4-1.7-10.3-2.1-15.9C190.9,244.7,185.6,245.5,180.3,246.3z"/>
	<path class="st20" d="M243.2,201.8c-2.3,15.6-4.2,30.9-6.3,46.4c-4-5.4-8-10.8-11.5-16.7c5.6-4.9,14.7-17.8,8.4-27
		c-6-8.9-24.6-2.6-33.3-0.3c0.7,20.5,1.9,40.6,2.4,61.2c4.4-1.1,8.3-2.7,12.9-3.6c-0.6-6.7-1.5-14.6-1.2-21
		c4.9,7.6,9.5,15.5,14.1,23.4c2.5-2.1,4.8-4.5,6.9-6.9c-0.3,2.1-0.6,4.1-0.9,6.2c10-0.6,19.8-1.4,30.9-0.5c0.4-5.4,0.2-10.5,0.8-16
		c-5.4-0.2-10.7-0.4-16.1-0.5c0.6-2.5,0.7-4.6,0.9-6.8c4.8-0.6,10.2-0.4,15.4-0.6c0-3.9,0.2-7.9,0.3-11.8c-4.4-0.1-9.7,0.7-13.5,0.3
		c0.6-3.2,1.1-6.3,1.7-9.5c5,0.1,9.9,0.2,15.4,1c0-5.4,1-11.5,0.2-16.4C261.8,202.6,252.5,202.2,243.2,201.8z M214.4,229.4
		c-0.4-3.6-0.4-8.1,0-11.7c2-0.8,5.1-1.8,7.8-0.9C224.4,222.5,218.3,226.9,214.4,229.4z"/>
	<path class="st20" d="M135.3,206.1c-7.7-3.7-18.8-1-25.5,1.5c1,20.4,1.6,41,2.7,61.2c18.4-2.8,35.6-17.7,35.4-40.5
		C147.8,219,143.1,209.9,135.3,206.1z M125.7,253.9c-0.2-10.2-1.8-22.2-0.3-32.1C143.2,221.4,132.1,250.1,125.7,253.9z"/>
	<path class="st20" d="M161.4,204.6c-4.3,1.1-8.9,1.9-13.5,2.7c0.8,20.5,1.1,41.6,2.7,61.2c3.9-1.4,7.9-2.7,12.3-3.6
		C160.7,246.5,161.6,224.1,161.4,204.6z"/>
	<path class="st20" d="M296.4,262.5c4.3-1.3,8.8-2.4,12.9-3.9c-2.1-18.4-2.1-40.2-1.2-60c-4.6,1-9.2,2-14.1,2.7
		c0.4,11,1.2,23.3,1.2,33.6c-4.8-10.6-7.3-23.5-9.9-36.3c-4.6,1.1-9.4,2-14.1,3c1.2,21.4,1.4,43.8,2.7,65.1
		c4.1-1.5,8.4-2.8,12.6-4.2c-0.3-6.3-1.6-13.2-0.9-19.5C288.7,249.9,292.8,256,296.4,262.5z"/>
</g>
<g>
	<g>
		<path class="st20" d="M301,155.3c-0.5-9.4-5.1-15.2-14.4-15.9c-7.3-0.5-22.6,5.7-24.3-1.5c-2.3-9.9,14.2-18.6,15-6.6
			c5.9-2.8,12.7-4.7,18-8.1c-2.1-13.9-3.9-30.3-19.2-28.2c-10.2,1.4-18.4,11.9-24.3,20.7c-3.9,5.8-8,12.9-10.1,20.7
			c1.6-12.6,3.5-25.1,5.3-36.7c0.3-1.8,1.3-4.6,0-4.8c-7,0.4-13.8,1.1-21,1.2c-2.8,31-5.4,61.9-8.4,93c6.8-1,13.3-2.2,20.1-3.2
			c0.2-11.9,1.2-25.1,2.7-38.4c0,0.3,0,0.6,0,1c1.1,16.5,15.6,13.9,29.1,11.4c5.8-1,12-1.6,12.3,3c0.6,8.5-19.8,11.8-25.2,6.6
			c-1.7,7.9-3.7,15.3-5.4,23.1c15.3,9.1,31.1-0.5,39.6-10.5C297,174.7,301.5,165,301,155.3z"/>
	</g>
	<g>
		<path class="st20" d="M158.2,104.8c-8.1,1-15.3,2.9-23.4,3.9c0.5,13.2,1.3,26.2,1.5,39.6c-3.7,0.5-6.7,1.7-10.5,2.1
			c-0.2-13.5,0.1-28.5,0.6-40.8c0.1-1.4,0.9-3.9-0.6-4.8c-7.5,1.3-14.8,2.8-22.5,3.9c1.2,31.2,2.9,62,3.9,93.4
			c7.2-1.8,14.1-4,21.3-5.7c-1.1-8.9-1.6-18.4-2.1-27.9c3.6-0.7,7.1-1.5,10.8-2.1c0.6,11.8,1,23.8,1.5,35.7
			c7.2-1.8,14.1-3.9,21.3-5.7C156.5,168.6,156.8,134.7,158.2,104.8z"/>
	</g>
	<g>
		<path class="st20" d="M216.2,102.2c-7.5,1-14.1,2.9-21.6,3.9c0.7,17.4,1.2,35,2.1,52.2c-3.7,2.9-8.3,6.5-12.3,8.1
			c-1.1-20.2,0.4-41.9,0.6-61.2c0-0.6,1.2-2.9-0.6-3c-6.9,1.3-13.6,2.8-20.7,3.9c0.3,27.9,0.7,55.5,1.2,83.2
			c5.3,2.4,10.4,5,15.6,7.5c5.3-4.1,11.4-8.8,17.1-11.4c0.5,4.5,0.5,9.3,0.6,14.1c6.6-1.8,13-3.8,19.5-5.7
			C214.9,165.4,214.7,132.3,216.2,102.2z"/>
	</g>
</g>
<g>
	<linearGradient id="SVGID_2_" gradientUnits="userSpaceOnUse" x1="177.353" y1="262.1724" x2="177.353" y2="195.8325">
		<stop  offset="0" style="stop-color:#FBE0A9"/>
		<stop  offset="1" style="stop-color:#FED700"/>
	</linearGradient>
	<path class="st21" d="M175.9,242.7c0.1-2.5-0.1-4.7-0.3-6.9c4.7-1.5,10-2.2,15-3.3c-0.7-3.8-1.2-7.8-1.8-11.7
		c-4.4,0.7-9.4,2.4-13.2,2.7c0-3.2,0-6.4,0-9.6c4.9-0.8,9.8-1.6,15.3-1.8c-1-5.3-1.1-11.5-2.7-16.2c-8.9,1.6-18.1,2.9-27.3,4.2
		c0.7,20.9,2.1,41.1,2.7,62.1c9.7-2.4,19.3-5,30.3-6c-0.6-5.4-1.7-10.3-2.1-15.9C186.4,241,181.1,241.8,175.9,242.7z"/>
	<linearGradient id="SVGID_3_" gradientUnits="userSpaceOnUse" x1="231.4047" y1="261.7759" x2="231.4047" y2="196.229">
		<stop  offset="0" style="stop-color:#FBE0A9"/>
		<stop  offset="1" style="stop-color:#FED700"/>
	</linearGradient>
	<path class="st22" d="M238.8,198.2c-2.3,15.6-4.2,30.9-6.3,46.4c-4-5.4-8-10.8-11.5-16.7c5.6-4.9,14.7-17.8,8.4-27
		c-6-8.9-24.6-2.6-33.3-0.3c0.7,20.5,1.9,40.6,2.4,61.2c4.4-1.1,8.3-2.7,12.9-3.6c-0.6-6.7-1.5-14.6-1.2-21
		c4.9,7.6,9.5,15.5,14.1,23.4c2.5-2.1,4.8-4.5,6.9-6.9c-0.3,2.1-0.6,4.1-0.9,6.2c10-0.6,19.8-1.4,30.9-0.5c0.4-5.4,0.2-10.5,0.8-16
		c-5.4-0.2-10.7-0.4-16.1-0.5c0.6-2.5,0.7-4.6,0.9-6.8c4.8-0.6,10.2-0.4,15.4-0.6c0-3.9,0.2-7.9,0.3-11.8c-4.4-0.1-9.7,0.7-13.5,0.3
		c0.6-3.2,1.1-6.3,1.7-9.5c5,0.1,9.9,0.2,15.4,1c0-5.4,1-11.5,0.2-16.4C257.4,198.9,248.1,198.6,238.8,198.2z M209.9,225.8
		c-0.4-3.6-0.4-8.1,0-11.7c2-0.8,5.1-1.8,7.8-0.9C219.9,218.9,213.8,223.2,209.9,225.8z"/>
	<linearGradient id="SVGID_4_" gradientUnits="userSpaceOnUse" x1="124.3721" y1="265.2368" x2="124.3721" y2="200.6709">
		<stop  offset="0" style="stop-color:#FBE0A9"/>
		<stop  offset="1" style="stop-color:#FED700"/>
	</linearGradient>
	<path class="st23" d="M130.8,202.5c-7.7-3.7-18.8-1-25.5,1.5c1,20.4,1.6,41,2.7,61.2c18.4-2.8,35.6-17.7,35.4-40.5
		C143.4,215.4,138.6,206.3,130.8,202.5z M121.2,250.2c-0.2-10.2-1.8-22.2-0.3-32.1C138.7,217.8,127.6,246.5,121.2,250.2z"/>
	<linearGradient id="SVGID_5_" gradientUnits="userSpaceOnUse" x1="150.9392" y1="264.9224" x2="150.9392" y2="200.9849">
		<stop  offset="0" style="stop-color:#FBE0A9"/>
		<stop  offset="1" style="stop-color:#FED700"/>
	</linearGradient>
	<path class="st24" d="M156.9,201c-4.3,1.1-8.9,1.9-13.5,2.7c0.8,20.5,1.1,41.6,2.7,61.2c3.9-1.4,7.9-2.7,12.3-3.6
		C156.3,242.9,157.2,220.5,156.9,201z"/>
	<linearGradient id="SVGID_6_" gradientUnits="userSpaceOnUse" x1="285.7563" y1="263.0728" x2="285.7563" y2="194.9321">
		<stop  offset="0" style="stop-color:#FBE0A9"/>
		<stop  offset="1" style="stop-color:#FED700"/>
	</linearGradient>
	<path class="st25" d="M291.9,258.9c4.3-1.3,8.8-2.4,12.9-3.9c-2.1-18.4-2.1-40.2-1.2-60c-4.6,1-9.2,2-14.1,2.7
		c0.4,11,1.2,23.3,1.2,33.6c-4.8-10.6-7.3-23.5-9.9-36.3c-4.6,1.1-9.4,2-14.1,3c1.2,21.4,1.4,43.8,2.7,65.1
		c4.1-1.5,8.4-2.8,12.6-4.2c-0.3-6.3-1.6-13.2-0.9-19.5C284.3,246.3,288.3,252.3,291.9,258.9z"/>
</g>
<g>
	<g>
		<linearGradient id="SVGID_7_" gradientUnits="userSpaceOnUse" x1="254.7448" y1="193.5903" x2="254.7448" y2="90.0606">
			<stop  offset="0" style="stop-color:#FFD800"/>
			<stop  offset="3.556222e-02" style="stop-color:#FFDB00"/>
			<stop  offset="0.1128" style="stop-color:#FFE247"/>
			<stop  offset="0.198" style="stop-color:#FFE86C"/>
			<stop  offset="0.2914" style="stop-color:#FFED86"/>
			<stop  offset="0.3966" style="stop-color:#FFF199"/>
			<stop  offset="0.52" style="stop-color:#FFF4A6"/>
			<stop  offset="0.679" style="stop-color:#FFF5AD"/>
			<stop  offset="1" style="stop-color:#FFF6AF"/>
		</linearGradient>
		<path class="st26" d="M259.6,193.6c-4.7,0-9.2-1.3-13.5-3.8l-0.7-0.4l0.2-0.7c0.8-3.9,1.8-7.7,2.7-11.4c0.9-3.8,1.9-7.8,2.7-11.8
			l0.4-1.9l1.4,1.3c1.4,1.4,4.4,2.2,8.1,2.2c5.7,0,11.5-1.9,13.9-4.6c1-1.1,1.4-2.2,1.3-3.4c-0.1-1.3-0.7-2.7-4.8-2.7
			c-2.1,0-4.4,0.4-6.2,0.7c-5,0.9-10.1,1.8-14.7,1.8c-7.4,0-12.2-2.6-14.3-8c-1.2,11.8-1.8,22.1-2,31.2l0,0.9l-0.9,0.1
			c-3.2,0.5-6.5,1-9.7,1.5c-3.4,0.6-6.9,1.1-10.4,1.6l-1.3,0.2l0.1-1.3c2-21.5,4-43.2,5.8-64.2c0.9-9.6,1.7-19.2,2.6-28.9l0.1-1l1,0
			c5-0.1,9.8-0.4,14.5-0.8c2.2-0.2,4.3-0.3,6.5-0.4l0.1,0l0.1,0c0.5,0.1,0.9,0.4,1.1,0.8c0.6,1,0.3,2.4-0.1,4
			c-0.1,0.5-0.2,0.9-0.3,1.3c-1.2,7.7-2.7,17.2-4,27.3c2.1-4.6,4.7-8.7,6.9-12c6.1-9.1,14.4-19.7,25.1-21.2c0.9-0.1,1.8-0.2,2.7-0.2
			c13.2,0,15.5,14.5,17.4,27.4l0.4,2.6l-0.6,0.4c-3.4,2.2-7.3,3.7-11.2,5.2c-2.3,0.9-4.8,1.9-7,2.9l-1.4,0.7l-0.1-1.6
			c-0.1-2.2-1-4.8-4-4.8c-2.3,0-5.2,1.6-7,3.9c-1,1.3-2.6,3.9-1.9,7.2c0.3,1.2,1.2,2.7,5.4,2.7c2.6,0,5.7-0.5,8.8-1
			c3-0.5,5.8-1,8.2-1c0.4,0,0.7,0,1,0c9.5,0.7,14.8,6.5,15.4,16.9c0.5,9-3.3,19.1-10.5,27.5C279.4,188.2,269.1,193.6,259.6,193.6
			C259.6,193.6,259.6,193.6,259.6,193.6z"/>
		<path class="st27" d="M242.5,91.1c1.3,0.3,0.3,3,0,4.8c-1.8,11.6-3.7,24.2-5.3,36.7c2.1-7.8,6.2-14.9,10.1-20.7
			c5.9-8.8,14.1-19.3,24.3-20.7c0.9-0.1,1.8-0.2,2.6-0.2c13,0,14.6,15.3,16.6,28.4c-5.3,3.4-12.1,5.3-18,8.1
			c-0.3-4.1-2.4-5.8-5.1-5.8c-4.9,0-11.4,5.9-9.9,12.4c0.6,2.7,3.1,3.5,6.4,3.5c5.2,0,12.3-2,16.9-2c0.3,0,0.6,0,0.9,0
			c9.3,0.7,13.9,6.5,14.4,15.9c0.5,9.7-4,19.4-10.2,26.7c-6.1,7.2-16,14.2-26.7,14.2c-4.2,0-8.6-1.1-12.9-3.7
			c1.7-7.8,3.7-15.3,5.4-23.1c1.8,1.7,5.1,2.5,8.9,2.5c7.7,0,16.8-3.4,16.3-9.1c-0.2-2.9-2.7-3.7-5.9-3.7c-2,0-4.2,0.3-6.4,0.7
			c-5,0.9-10,1.8-14.5,1.8c-7.8,0-13.9-2.8-14.6-13.2c0-0.3,0-0.6,0-1c-1.5,13.4-2.5,26.6-2.7,38.4c-6.7,1-13.3,2.2-20.1,3.2
			c3-31.1,5.6-62,8.4-93C228.7,92.2,235.5,91.6,242.5,91.1 M242.6,89l-0.3,0c-2.2,0.1-4.4,0.3-6.5,0.4c-4.7,0.3-9.5,0.7-14.4,0.8
			l-1.9,0l-0.2,1.9c-0.9,9.6-1.7,19.3-2.6,28.9c-1.9,21-3.8,42.7-5.8,64.2l-0.3,2.7l2.7-0.4c3.5-0.5,7-1.1,10.4-1.6
			c3.2-0.5,6.4-1.1,9.7-1.5l1.8-0.3l0-1.8c0.1-8.2,0.7-17.3,1.6-27.6c2.7,3.7,7.2,5.5,13.6,5.5c4.7,0,9.9-0.9,14.9-1.8
			c1.8-0.3,4.1-0.7,6.1-0.7c3.6,0,3.7,1.1,3.8,1.8c0.1,0.9-0.3,1.8-1.1,2.6c-2.3,2.4-7.8,4.2-13.2,4.2c-3.4,0-6.2-0.7-7.4-1.9
			l-2.8-2.7l-0.8,3.8c-0.8,4-1.8,7.9-2.7,11.7c-0.9,3.7-1.8,7.5-2.7,11.4l-0.3,1.5l1.3,0.8c4.4,2.6,9.1,3.9,14,3.9
			c9.8,0,20.4-5.6,28.3-14.9c7.3-8.6,11.2-18.9,10.7-28.2c-0.6-10.8-6.4-17.2-16.4-17.9c-0.3,0-0.7,0-1.1,0c-2.4,0-5.3,0.5-8.4,1
			c-3,0.5-6.1,1-8.6,1c-3.9,0-4.2-1.3-4.4-1.9c-0.7-2.8,0.8-5.1,1.7-6.3c1.7-2.1,4.2-3.5,6.2-3.5c0.7,0,2.7,0,2.9,3.8l0.2,3.1
			l2.8-1.4c2.2-1.1,4.6-2,6.9-2.9c3.9-1.5,7.9-3.1,11.3-5.3l1.2-0.7l-0.2-1.4c-0.1-0.6-0.2-1.3-0.3-1.9
			c-1.9-12.6-4.3-28.3-18.4-28.3c-0.9,0-1.9,0.1-2.9,0.2c-11.1,1.5-19.6,12.4-25.8,21.6c-1.3,2-2.8,4.2-4.2,6.7
			c1.1-7.8,2.2-15.1,3.2-21.2c0.1-0.4,0.2-0.8,0.3-1.2c0.4-1.7,0.8-3.4-0.1-4.8c-0.4-0.6-1.1-1.1-1.8-1.2L242.6,89L242.6,89z"/>
	</g>
	<g>
		<linearGradient id="SVGID_8_" gradientUnits="userSpaceOnUse" x1="127.175" y1="199.7446" x2="127.175" y2="99.9151">
			<stop  offset="0" style="stop-color:#FFD800"/>
			<stop  offset="3.556222e-02" style="stop-color:#FFDB00"/>
			<stop  offset="0.1128" style="stop-color:#FFE247"/>
			<stop  offset="0.198" style="stop-color:#FFE86C"/>
			<stop  offset="0.2914" style="stop-color:#FFED86"/>
			<stop  offset="0.3966" style="stop-color:#FFF199"/>
			<stop  offset="0.52" style="stop-color:#FFF4A6"/>
			<stop  offset="0.679" style="stop-color:#FFF5AD"/>
			<stop  offset="1" style="stop-color:#FFF6AF"/>
		</linearGradient>
		<path class="st28" d="M133.1,198.4c-0.4-11-0.9-22.7-1.4-34.5c-2.3,0.4-4.5,0.8-6.7,1.3c-0.7,0.1-1.3,0.3-2,0.4
			c0.4,8.8,1,18.1,2,26.9l0.1,0.9l-0.9,0.2c-3.6,0.9-7.2,1.9-10.7,2.9c-3.4,1-7,2-10.6,2.8l-1.3,0.3l0-1.3
			c-0.6-17.8-1.4-35.8-2.2-53.2c-0.6-13.1-1.2-26.7-1.7-40.2l0-1l1-0.1c5.3-0.7,10.5-1.7,15.5-2.6c2.3-0.4,4.7-0.9,7-1.3l0.4-0.1
			l0.3,0.2c1.8,1.1,1.5,3.3,1.2,4.8c-0.1,0.4-0.1,0.7-0.1,1c-0.5,11.8-0.7,26.2-0.6,39.6c1.6-0.2,3-0.6,4.5-0.9
			c1.2-0.3,2.5-0.6,3.9-0.8c-0.2-8-0.5-16-0.9-23.7c-0.2-4.9-0.4-10-0.6-15l0-1l1-0.1c4.1-0.5,8-1.3,11.9-2
			c3.7-0.7,7.6-1.4,11.5-1.9l1.3-0.2l-0.1,1.3c-1.7,37.1-1.1,67.8,1.8,91.4l0.1,0.9l-0.9,0.2c-3.8,0.9-7.6,2-11.3,3
			c-3.3,0.9-6.6,1.8-10,2.7l-1.3,0.3L133.1,198.4z"/>
		<path class="st27" d="M153.7,101.1c-1.4,30-1.7,63.8,1.8,91.6c-7.2,1.8-14.1,3.9-21.3,5.7c-0.5-11.9-0.9-23.9-1.5-35.7
			c-3.7,0.6-7.2,1.4-10.8,2.1c0.5,9.5,1,19,2.1,27.9c-7.3,1.8-14.1,3.9-21.3,5.7c-1.1-31.4-2.7-62.1-3.9-93.4
			c7.7-1.1,15-2.6,22.5-3.9c1.5,0.9,0.7,3.4,0.6,4.8c-0.5,12.3-0.8,27.3-0.6,40.8c3.8-0.4,6.8-1.6,10.5-2.1
			c-0.2-13.5-1-26.4-1.5-39.6C138.4,104,145.6,102.2,153.7,101.1 M155.9,98.7l-2.5,0.3c-4,0.5-7.9,1.2-11.6,1.9
			c-3.8,0.7-7.7,1.5-11.8,2l-1.9,0.2l0.1,1.9c0.2,5,0.4,10.1,0.6,15c0.3,7.4,0.7,15,0.8,22.7c-1,0.2-2,0.5-3,0.7
			c-1.1,0.3-2.1,0.5-3.2,0.7c-0.1-13,0.1-26.8,0.6-38.3c0-0.2,0.1-0.5,0.1-0.9c0.2-1.5,0.7-4.4-1.7-5.9l-0.7-0.4l-0.8,0.1
			c-2.4,0.4-4.7,0.9-7,1.3c-5,0.9-10.1,1.9-15.4,2.6l-1.9,0.3l0.1,1.9c0.5,13.5,1.1,27,1.7,40.2c0.8,17.4,1.6,35.3,2.2,53.2l0.1,2.6
			l2.5-0.6c3.6-0.9,7.2-1.9,10.6-2.8c3.5-1,7.1-2,10.7-2.9l1.8-0.4l-0.2-1.9c-1-8.5-1.6-17.5-2-26c0.4-0.1,0.7-0.2,1.1-0.2
			c1.8-0.4,3.6-0.8,5.5-1.1c0.5,11.4,1,22.7,1.4,33.3l0.1,2.6l2.5-0.6c3.4-0.9,6.8-1.8,10-2.7c3.7-1,7.5-2.1,11.3-3l1.8-0.5
			l-0.2-1.9c-2.9-23.5-3.5-54.1-1.8-91.2L155.9,98.7L155.9,98.7z"/>
	</g>
	<g>
		<linearGradient id="SVGID_9_" gradientUnits="userSpaceOnUse" x1="186.2736" y1="197.2232" x2="186.2736" y2="97.3408">
			<stop  offset="0" style="stop-color:#FFD800"/>
			<stop  offset="3.556222e-02" style="stop-color:#FFDB00"/>
			<stop  offset="0.1128" style="stop-color:#FFE247"/>
			<stop  offset="0.198" style="stop-color:#FFE86C"/>
			<stop  offset="0.2914" style="stop-color:#FFED86"/>
			<stop  offset="0.3966" style="stop-color:#FFF199"/>
			<stop  offset="0.52" style="stop-color:#FFF4A6"/>
			<stop  offset="0.679" style="stop-color:#FFF5AD"/>
			<stop  offset="1" style="stop-color:#FFF6AF"/>
		</linearGradient>
		<path class="st29" d="M192.7,195.9c0-1.1-0.1-2.2-0.1-3.3c-0.1-3.1-0.1-6.3-0.4-9.2c-5.3,2.7-10.9,7.1-15.5,10.6l-0.5,0.4
			l-0.6-0.3c-1.7-0.8-3.5-1.7-5.2-2.5c-3.4-1.7-6.9-3.4-10.4-5l-0.6-0.3l0-0.7c-0.4-22.9-0.9-53-1.2-83.2l0-0.9l0.9-0.1
			c5.5-0.9,10.9-1.9,16.1-3c1.5-0.3,3-0.6,4.6-0.9l0.1,0l0.1,0c0.9,0,1.4,0.4,1.6,0.8c0.7,0.9,0.3,2.1,0.1,2.9
			c0,0.2-0.1,0.3-0.1,0.4c-0.1,6.5-0.3,13.1-0.5,20.1c-0.4,13.1-0.8,26.6-0.2,39.5c3.5-1.8,7.4-4.8,10.2-7
			c-0.5-10.7-0.9-21.7-1.3-32.3c-0.2-6.5-0.5-13-0.7-19.4l0-1l1-0.1c3.8-0.5,7.5-1.3,11-2c3.4-0.7,6.9-1.4,10.6-1.9l1.3-0.2
			l-0.1,1.3c-1.6,32.8-1.1,65.2,1.5,91.4l0.1,0.9l-0.8,0.2c-2,0.6-4.1,1.2-6.1,1.8c-4.4,1.3-8.9,2.6-13.4,3.9l-1.3,0.4L192.7,195.9z
			"/>
		<path class="st27" d="M211.8,98.6c-1.5,30.1-1.3,63.1,1.5,91.6c-6.5,1.9-12.9,3.9-19.5,5.7c-0.1-4.8-0.1-9.7-0.6-14.1
			c-5.7,2.6-11.9,7.4-17.1,11.4c-5.2-2.5-10.3-5.1-15.6-7.5c-0.5-27.6-0.9-55.3-1.2-83.1c7.1-1.1,13.9-2.6,20.7-3.9
			c1.8,0.1,0.6,2.4,0.6,3c-0.2,19.3-1.7,41-0.6,61.2c4-1.6,8.6-5.2,12.3-8.1c-0.9-17.2-1.4-34.8-2.1-52.2
			C197.6,101.5,204.3,99.6,211.8,98.6 M214,96.1l-2.5,0.4c-3.7,0.5-7.2,1.2-10.6,1.9c-3.5,0.7-7.2,1.5-11,2l-1.9,0.3l0.1,1.9
			c0.3,6.4,0.5,13,0.7,19.4c0.4,10.4,0.8,21.2,1.3,31.8c-2.3,1.8-5.3,4.1-8.2,5.7c-0.5-12.3-0.1-25.2,0.3-37.7
			c0.2-7,0.4-13.6,0.5-20c0-0.1,0-0.2,0.1-0.3c0.3-0.9,0.7-2.5-0.3-3.8c-0.3-0.4-1.1-1.2-2.4-1.2l-0.2,0l-0.2,0
			c-1.5,0.3-3.1,0.6-4.6,0.9c-5.2,1-10.6,2.1-16.1,3l-1.8,0.3l0,1.8c0.3,30.2,0.8,60.3,1.2,83.2l0,1.3l1.2,0.6
			c3.5,1.6,7,3.3,10.3,4.9c1.7,0.9,3.5,1.7,5.2,2.5l1.2,0.6l1-0.8c4.2-3.2,9.2-7.1,13.9-9.7c0.1,2.5,0.2,5,0.3,7.5
			c0,1.1,0.1,2.2,0.1,3.3l0.1,2.7l2.6-0.7c4.5-1.3,9-2.6,13.4-3.9c2-0.6,4.1-1.2,6.1-1.8l1.7-0.5l-0.2-1.8
			c-2.6-26.1-3.1-58.5-1.5-91.2L214,96.1L214,96.1z"/>
	</g>
</g>
<g>
	<g>
		<linearGradient id="SVGID_10_" gradientUnits="userSpaceOnUse" x1="235.2231" y1="284.4897" x2="270.8882" y2="284.4897">
			<stop  offset="0" style="stop-color:#4BC1F0"/>
			<stop  offset="0.5" style="stop-color:#3AACE2"/>
			<stop  offset="1" style="stop-color:#2593D2"/>
		</linearGradient>
		<path class="st30" d="M270.9,294c-4.5-4-9.2-7.6-13.4-12.1c2.5-4.8,7-12.9,2.2-19.7c-5-6.9-18.3,1-24.5,4.2
			c4,14.5,7.8,29.3,12.3,43c2.4-1.8,5.5-3.1,8-4.8c-1.6-4.7-3.1-9.6-4.5-14.7c5,4.6,9.4,9.9,14.4,14.4
			C267.2,300.9,269.7,297.8,270.9,294z M249.2,282c-1-2.1-1.8-5.9-1.9-8.2c1.7-1,4.2-2.8,6-1.4C254.2,277,251.2,280.1,249.2,282z"/>
		<linearGradient id="SVGID_11_" gradientUnits="userSpaceOnUse" x1="100.7368" y1="291.7515" x2="241.3765" y2="291.7515">
			<stop  offset="0" style="stop-color:#4BC1F0"/>
			<stop  offset="0.5" style="stop-color:#3AACE2"/>
			<stop  offset="1" style="stop-color:#2593D2"/>
		</linearGradient>
		<path class="st31" d="M231.3,265.6c-5.7,1.6-11.9,2.9-17.6,4.5c0.4,11.5-0.3,22.5-1.1,33.1c-3.4-12.6-6.5-25.6-8.3-40.1
			c-0.2,0-0.3,0-0.5,0c-5.7,1.6-11.9,2.9-17.6,4.5c0.4,12.2-0.5,23.9-1.2,35.1c-4.9,0.3-9.1,1.3-14,1.7c2.9-6,6.9-12.2,10.6-18.1
			c1-1.6,3.3-4.6,3.4-6.1c0.4-3.6-1.7-6.9-1.8-11.2c-8.4,1-16.2,2.5-24.6,3.4c1,4,1.6,8.4,3.1,11.8c3.3-1,7.2-1.5,10.9-2.2
			c-4.7,7.8-9.7,15.4-14.3,23.3c-2.9-11-5.4-22.4-6.9-35c-0.2,0-0.3,0-0.5,0c-5.7,1.6-11.9,2.9-17.6,4.5c0.2,6,0.1,11.8-0.1,17.5
			c-1.8-2.6-4.9-3.1-9.1-1.8c3-4.6,7.4-15.5,1.1-20.7c-6.5-5.4-17.5,3.7-24.4,5.8c4.7,13.4,8.7,27.9,12.5,42.7
			c7.8-1.1,15.2-5.6,18.9-11.6c-0.3,4.7-0.7,9.3-0.9,13.7c3.8-1.1,8.1-1.9,12.1-2.8c-0.1-2-0.3-4-0.1-5.6c1.3-0.4,2.7-0.7,4-1
			c0.6,2.5,0.5,5.8,1.5,7.8c3.5-1.4,7.4-2.5,11.3-3.6c0.2,0.9,0.5,1.7,0.7,2.6c8.1-2.1,17.9-2.6,26.6-4c-0.1-0.4-0.2-0.8-0.3-1.3
			c3-0.7,6.2-1.3,9.2-2.1c-0.1-2-0.3-4-0.1-5.6c1.3-0.4,2.7-0.7,4-1c0.6,2.5,0.5,5.8,1.5,7.8c3.3-1.3,6.9-2.3,10.4-3.4
			c-0.2,2.5-0.3,5.1-0.5,7.5c3.8-1.1,8.1-1.9,12.1-2.8c-0.1-2-0.3-4-0.1-5.6c1.3-0.4,2.7-0.7,4-1c0.6,2.5,0.5,5.8,1.5,7.8
			c3.8-1.5,8-2.6,12-3.9c-4-14-7.6-28.4-9.6-44.7C231.6,265.6,231.5,265.6,231.3,265.6z M114.5,282.1c1.2-0.9,3.9-2.2,5.2-1.2
			c0.9,4.2-1.4,6.6-3.2,9.1C115.5,288,115.3,284.7,114.5,282.1z M120.4,304.9c-1.1-1.5-1.4-4.3-2-6.6c2.4-0.7,6.5-3.6,7.8-1.2
			C128,300.1,122.6,303,120.4,304.9z M143.3,303.6c-0.9-7.7-0.8-16.6-1.1-24.5c1.5,7.6,2.6,15.7,3.8,23.6
			C145.3,303.1,143.9,303,143.3,303.6z M196.2,296.3c-0.9-7.7-0.8-16.6-1.1-24.5c1.5,7.6,2.6,15.7,3.8,23.6
			C198.3,295.9,196.8,295.8,196.2,296.3z M223.7,298.9c-0.9-7.7-0.8-16.6-1.1-24.5c1.5,7.6,2.6,15.7,3.8,23.6
			C225.8,298.4,224.4,298.3,223.7,298.9z"/>
	</g>
	<linearGradient id="SVGID_12_" gradientUnits="userSpaceOnUse" x1="271.4077" y1="291.4136" x2="303.7427" y2="291.4136">
		<stop  offset="0" style="stop-color:#4BC1F0"/>
		<stop  offset="0.5" style="stop-color:#3AACE2"/>
		<stop  offset="1" style="stop-color:#2593D2"/>
	</linearGradient>
	<path class="st32" d="M291.8,293c-1-8.6-1.8-17.4-2.8-25.9c3.5-1,7.3-1.8,10.7-2.9c0.6,15,1.5,32.4,4,46.6
		c-3.2,1.1-6.4,2.3-9.6,3.5c-3.5-4.6-6.5-9.7-9.8-14.6c0.5,5.3,1.3,10.2,2,15.2c-3.4,1.1-6.3,2.6-9.7,3.7
		c-1.8-16.7-3.4-33.6-5.2-50.2c3.5-1,7.6-2.2,10.9-2.9C284.9,275.3,287.4,285.2,291.8,293z"/>
	<linearGradient id="SVGID_13_" gradientUnits="userSpaceOnUse" x1="304.7007" y1="288.2407" x2="331.4233" y2="288.2407">
		<stop  offset="0" style="stop-color:#4BC1F0"/>
		<stop  offset="0.5" style="stop-color:#3AACE2"/>
		<stop  offset="1" style="stop-color:#2593D2"/>
	</linearGradient>
	<path class="st33" d="M317.7,297.6c3.6-0.9,7.6-1.7,11.2-2.7c1,3.9,1.7,8.2,2.6,12.3c-8,1.4-15,3.7-21.9,6.1
		c-1.5-15.8-3.3-31.4-4.9-47.2c3.5-1,7.3-1.8,10.7-2.9C315.9,274,316.2,286.5,317.7,297.6z"/>
	<linearGradient id="SVGID_14_" gradientUnits="userSpaceOnUse" x1="254.4824" y1="312.9247" x2="269.1755" y2="312.9247">
		<stop  offset="0" style="stop-color:#4BC1F0"/>
		<stop  offset="0.5" style="stop-color:#3AACE2"/>
		<stop  offset="1" style="stop-color:#2593D2"/>
	</linearGradient>
	<path class="st34" d="M262.3,306.9c4-0.5,8.1,2.2,6.5,6.9c-1.6,4.8-11,7.7-13.6,2.7C252.5,311.3,258.1,307.3,262.3,306.9z"/>
</g>
<path class="st35" d="M317.9,88.7l19.6,48.7c0,0,0.6,1.8,3,2.4c2.4,0.6,11.3,4.5,8.6,10.3c-2.7,5.7-7.7,8.1-14.2,1.9
	c0,0-3.9,12.5-13.5,5c0,0-5.7-3.6,3-14.5l-19.5-48.8c0,0-9.9,1-13.4-7.1c0,0-2.4-8.2,9.9-6.7c0,0,8.4,4.6,9.7-2.6
	c0,0,2.9-7.9,10.9-1.6C329.9,81.9,319.8,88.4,317.9,88.7z"/>
<g>
	<path class="st36" d="M60.9,220.8c-2.6,0.4-4.3,1.4-5.1,2.9c-1.3,2.4,0,5.3,0.1,5.3l0,0.1c0,0,1.3,3.6,4,4.2
		c1.8,0.4,3.8-0.5,6.1-2.8c0.4-0.5,3.4-4.2,6.8-4.2c1,0,2,0.3,2.9,0.9c0.3-5.3-1.9-10.5-6.3-14c0,0.9-0.3,2.2-1.1,3.5
		C67,218.8,64.5,220.2,60.9,220.8z"/>
	<path class="st36" d="M72.9,228.1c-2.8,0-5.4,3.5-5.5,3.6l-0.1,0.1c-2.8,2.7-5.4,3.8-7.8,3.3c-0.7-0.2-1.3-0.4-1.8-0.8
		c-2.3-1.5-3.3-4.2-3.5-4.5c-0.2-0.4-1.6-3.9,0-6.9c1.1-2,3.2-3.3,6.4-3.9c3.1-0.5,5.2-1.6,6.3-3.3c1.1-1.7,0.7-3.5,0.7-3.5l0.2-0.1
		c-7.6-4.6-17.5-2.3-22.3,5.2c-4.9,7.6-2.7,17.8,5,22.7c7.6,4.9,17.8,2.7,22.7-5c1.2-1.8,1.9-3.7,2.3-5.7
		C74.6,228.5,73.8,228.1,72.9,228.1z"/>
</g>
<g>
	<path class="st10" d="M357.2,245.8c-0.8-9.2,0.6-17.3,4.2-24.2c2.8-5.5,7.1-10.2,12.6-14c8.6-5.9,17.7-7.7,19.1-7.9
		c0.3-0.4,0.6-1.4,0.3-1.9c-0.3-0.5-0.8-0.5-2.2-0.3l-0.7-0.7c1.8-0.3,3.1-0.3,3.6,0.5c0.7,1.1-0.3,2.8-0.4,2.9l-0.1,0.2l-0.2,0
		c-0.1,0-9.8,1.5-19,7.8c-8.4,5.8-18.1,17-16.3,37.4L357.2,245.8z"/>
</g>
<path class="st37" d="M373.7,259.7c0,0-3.3-11.9-11.3-14.1c0,0,0.2-3.1-1.2-2.9c0,0-2.2-0.3-3.1,1.9c0,0-3.2-2-4.4-0.7
	c-1.2,1.3,0,2.9,0,2.9s-8.3,5.6-5.1,21.2c0,0-3.2,5.4,0.3,8.9l2.5-1.7c0,0,3.4,4.1,5.4,5.9c0,0-7.5,5.1-3.7,14.9
	c0,0-0.2,0.6,4.3-3.8c0,0,4.2-7.5,13.2-3.1c0,0,8.4,4.2,8,1.3c0,0-0.4-7.3-7.9-11.3c0,0,2.8-5.3,3.6-9.6c0,0,6.5,3.7,6.8,0.5
	C381,270,381.7,264.2,373.7,259.7z"/>
<path class="st38" d="M359.5,248.4c-4.6,0.8-7.6,5.2-6.8,9.7c0.8,4.6,5.2,7.6,9.7,6.8c4.6-0.8,7.6-5.2,6.8-9.7
	C368.4,250.6,364.1,247.6,359.5,248.4z"/>
<path class="st37" d="M362,249.7c-1.5,0.3-2.5,1.7-2.2,3.2c0.3,1.5,1.7,2.5,3.2,2.2c1.5-0.3,2.5-1.7,2.2-3.2
	C364.9,250.4,363.5,249.4,362,249.7z"/>
<path class="st38" d="M349.8,226.8c-0.1-1.4-1.2-2.4-2.6-2.4c-1.4,0.1-2.4,1.2-2.4,2.6c0.1,1.4,1.2,2.4,2.6,2.4
	C348.8,229.3,349.9,228.2,349.8,226.8z"/>
<path class="st10" d="M349.2,227.6c0-0.8-0.7-1.4-1.5-1.4c-0.8,0-1.4,0.7-1.4,1.5c0,0.8,0.7,1.4,1.5,1.4
	C348.6,229,349.3,228.4,349.2,227.6z"/>
<path class="st39" d="M153.9,30.7l7.9,1.2c0,0,6.5-15.6-2.1-15.2C151.1,17,152.3,22.1,153.9,30.7z"/>
<path class="st16" d="M157.8,25.7l2.7-0.5L158,24c0.3-4.9,6-4.4,6-4.4c0.9,7.8-2.2,12.2-2.2,12.2l0,0.1l-4-0.6
	C157.8,31.2,157.2,28,157.8,25.7z"/>
<path class="st39" d="M142,29.9l8,0.6c0,0,5.3-16-3.2-15C138.2,16.5,139.7,21.5,142,29.9z"/>
<path class="st16" d="M145.5,24.7l2.6-0.7l-2.5-1c-0.1-4.9,5.7-4.9,5.7-4.9c1.5,7.7-1.3,12.3-1.3,12.3l0,0.1l-4.1-0.3
	C145.9,30.2,145.1,27,145.5,24.7z"/>
<path class="st16" d="M142.6,13.1c0,0,2.9-4.6,6.7-3.1C149.4,10,143.8,6.1,142.6,13.1z"/>
<path class="st40" d="M384.4,234.2c0,1.9-1.5,3.4-3.4,3.4c-1.9,0-3.4-1.5-3.4-3.4s1.5-3.4,3.4-3.4
	C382.9,230.8,384.4,232.3,384.4,234.2z"/>
<path class="st39" d="M384.1,234.2c0,0.9-0.8,1.7-1.7,1.7c-0.9,0-1.7-0.8-1.7-1.7c0-0.9,0.8-1.7,1.7-1.7
	C383.3,232.5,384.1,233.2,384.1,234.2z"/>
<path class="st40" d="M393.3,214c0,1.4-1.1,2.5-2.5,2.5c-1.4,0-2.5-1.1-2.5-2.5c0-1.4,1.1-2.5,2.5-2.5
	C392.2,211.4,393.3,212.6,393.3,214z"/>
<path class="st39" d="M391.8,213c0,0.7-0.6,1.3-1.3,1.3c-0.7,0-1.3-0.6-1.3-1.3c0-0.7,0.6-1.3,1.3-1.3
	C391.2,211.7,391.8,212.3,391.8,213z"/>
<path class="st40" d="M358.1,204.1c-0.6,1.2-2,1.7-3.2,1.1c-1.2-0.6-1.7-2-1.1-3.2c0.6-1.2,2-1.7,3.2-1.1
	C358.1,201.5,358.7,202.9,358.1,204.1z"/>
<path class="st39" d="M357.2,202.7c-0.3,0.6-1,0.9-1.6,0.6c-0.6-0.3-0.9-1-0.6-1.6c0.3-0.6,1-0.9,1.6-0.6
	C357.2,201.3,357.5,202.1,357.2,202.7z"/>
<path class="st41" d="M23.3,287c0,0,1.6-6.1,9.7-10.9c0,0-7.9,5.2-5.4,10.9H23.3z"/>
<path class="st41" d="M26.8,287c0,0,1.3-4.5,7.7-8c0,0-6.3,3.8-4.3,8H26.8z"/>
<path class="st41" d="M19.5,287c0,0,1.5-5.4,8.7-9.6c0,0-7.1,4.6-4.8,9.6H19.5z"/>
<path class="st41" d="M20,285.6c0,0,43.2-4,64.8,1.3c0,0,7.3,5.4-14.6,10.8c-21.9,5.4-14.2-0.6-30.9,2.2S6,288.3,20,285.6z"/>
<path class="st42" d="M76,271.8c0,0,1.8,8.4-4.1,15.9c0,0,0.2,3,1.1,4c0,0,2.4,2-1.8,2c0,0-0.8,0-1.6-0.4c0,0-0.3-0.2-0.6,0
	c-0.2,0.2-1.6,1.3-4.2,0.1c0,0-1.1-0.4-1.5-1.4c-0.4-1-0.4-1.5-0.4-1.5s-1.1,0.3-1.6,0c0,0,0.7,2.2-2.4,2.2c-3.1,0-3.5-1.2-3.8-2.5
	c0,0-5.4-4.9-2.4-12.6c3-7.7,6.7-10.6,12.5-10.6c0,0,0.2-0.9,0.6-1.2c0,0-0.6-1.4-3.1-2.3c-2.4-0.9-3.7-2.7-4.8-4.9s-1.2-3-1.8-4
	c-0.6-1,0.2-1.7,1.9-1.3c1.8,0.4,6.7,2.5,8.5,5.6c0,0-0.1-2.2,1-4.4c1.1-2.2,0.6-4,2-4c1.4,0,4.5,6.5,3.8,10.3c0,0,1.7,0.2,3.2,1.6
	c1.4,1.4,5.1,4.8,2.6,7.1C79.1,269.3,78.9,271.3,76,271.8z"/>
<g>
	<path class="st39" d="M76.2,262.7c0,0.6-0.5,1-1.1,1c-0.6,0-1.1-0.5-1.1-1c0-0.6,0.5-1,1.1-1C75.7,261.7,76.2,262.1,76.2,262.7z"/>
	<path class="st42" d="M75.8,262.7c0,0.4-0.3,0.7-0.7,0.7c-0.4,0-0.7-0.3-0.7-0.7c0-0.4,0.3-0.7,0.7-0.7
		C75.5,262,75.8,262.3,75.8,262.7z"/>
</g>
<path class="st42" d="M34.8,285.1c0,0-3.5-2.1-3-8.7c0,0-2.7,2.3-4.6,0.6c0,0-1-0.7,0.4-2.2c1.5-1.5,3.7-2.7,3.2-4.2
	c-0.5-1.6-0.1-4.2,0.5-5.5c0,0,1.4-2.3-0.1-3c-1.6-0.7-3.4-3.5-0.4-5.9c3.1-2.4,4.8-2.9,7.9-2.4c0,0,0.8-2.8,3-4.1
	c2.2-1.3,3,0.7,2.5,1.6c0,0,1.2,0.2,1,1.5c-0.3,1.9-2.3,3.6-3,4c0,0-0.5,0.9-0.2,1.6c0.4,0.7-0.1,3-0.3,3.4
	c-0.2,0.4-0.1,2.7,0.7,3.8c0.8,1.1,1.5,4.5,1.5,6.9c0,0,0.1,1.4,0.9,2.5c0.8,1,2,4.2,2,6.7c0,2.6,0,2.4,0,2.4s-0.1,0.3,0.3,0.3
	c0.4,0,3.5-1,1.8,2c-1.7,3-5.3-0.2-8.1,2.5c0,0-1.5,0.7-3.5-0.3c-2-1-5,1.3-5,1.3s-1.8,1-2.7-0.5c-0.9-1.5,2.7-4.2,3.3-4.2
	C33.6,285.3,35.1,285.4,34.8,285.1z"/>
<g>
	<path class="st39" d="M35.7,255.9c0,0.6-0.4,1-1,1c-0.6,0-1-0.4-1-1c0-0.6,0.4-1,1-1C35.3,254.9,35.7,255.4,35.7,255.9z"/>
	<path class="st42" d="M35.4,255.9c0,0.4-0.3,0.7-0.7,0.7c-0.4,0-0.7-0.3-0.7-0.7c0-0.4,0.3-0.7,0.7-0.7
		C35.1,255.3,35.4,255.6,35.4,255.9z"/>
</g>
</svg>
