<svg viewBox="0 0 259 155" fill="none" xmlns="http://www.w3.org/2000/svg">
<g clip-path="url(#clip0_75_203)">
<path d="M101.91 66.01L102.76 51.24L91.1199 60.35C90.3799 60.92 89.7299 61.65 89.2699 62.54C87.5499 65.84 88.8099 69.9 92.0999 71.63C95.3899 73.36 99.4499 72.09 101.17 68.79C101.63 67.9 101.86 66.95 101.91 66.01Z" fill="white" stroke="#0091D0" stroke-width="3" stroke-miterlimit="10"/>
<path d="M75.12 78.32L75.97 63.55L64.33 72.66C63.59 73.23 62.94 73.96 62.48 74.85C60.76 78.15 62.0199 82.21 65.3099 83.94C68.5999 85.67 72.6599 84.4 74.3799 81.1C74.8399 80.21 75.07 79.26 75.12 78.32Z" fill="white" stroke="#0091D0" stroke-width="3" stroke-miterlimit="10"/>
<path d="M94.0799 42.08L94.9299 27.31L83.2899 36.42C82.5499 36.99 81.8999 37.72 81.4399 38.61C79.7099 41.91 80.9799 45.97 84.2699 47.7C87.5599 49.43 91.6199 48.16 93.3399 44.86C93.7999 43.97 94.0399 43.02 94.0799 42.08Z" fill="white" stroke="#0091D0" stroke-width="3" stroke-miterlimit="10"/>
<path d="M88.1699 18L89.0199 3.23L77.3799 12.34C76.6399 12.91 75.9899 13.64 75.5299 14.53C73.8099 17.83 75.0699 21.89 78.3599 23.62C81.6499 25.35 85.7099 24.08 87.4299 20.78C87.8899 19.88 88.1199 18.94 88.1699 18Z" fill="white" stroke="#0091D0" stroke-width="3" stroke-miterlimit="10"/>
<path d="M68.2099 56.13L69.0599 41.36L57.4199 50.47C56.6799 51.04 56.0299 51.77 55.5699 52.66C53.8499 55.96 55.1099 60.02 58.3999 61.75C61.6899 63.48 65.7499 62.21 67.4699 58.91C67.9299 58.02 68.1599 57.07 68.2099 56.13Z" fill="white" stroke="#0091D0" stroke-width="3" stroke-miterlimit="10"/>
<path d="M129.73 52.84L130.58 38.07L118.94 47.18C118.2 47.75 117.55 48.48 117.09 49.37C115.37 52.67 116.63 56.73 119.92 58.46C123.21 60.19 127.27 58.92 128.99 55.62C129.46 54.73 129.69 53.78 129.73 52.84Z" fill="white" stroke="#0091D0" stroke-width="3" stroke-miterlimit="10"/>
<path d="M110.97 88.7L111.82 73.93L100.18 83.04C99.4399 83.61 98.7899 84.34 98.3299 85.23C96.6099 88.53 97.8699 92.59 101.16 94.32C104.45 96.05 108.51 94.78 110.23 91.48C110.69 90.59 110.92 89.64 110.97 88.7Z" fill="white" stroke="#0091D0" stroke-width="3" stroke-miterlimit="10"/>
<path d="M121.55 28.48L122.4 13.71L110.76 22.82C110.02 23.39 109.37 24.12 108.91 25.01C107.19 28.31 108.45 32.37 111.74 34.1C115.03 35.83 119.09 34.56 120.81 31.26C121.27 30.37 121.5 29.43 121.55 28.48Z" fill="white" stroke="#0091D0" stroke-width="3" stroke-miterlimit="10"/>
<path d="M83.2999 101.57L84.1499 86.8L72.5099 95.9C71.7699 96.47 71.1199 97.2 70.6599 98.09C68.9399 101.39 70.1999 105.45 73.4899 107.18C76.7799 108.91 80.8399 107.64 82.5599 104.34C83.0199 103.46 83.2599 102.51 83.2999 101.57Z" fill="white" stroke="#0091D0" stroke-width="3" stroke-miterlimit="10"/>
<path d="M45.42 15.66L30.71 139.78L163.78 77.71L45.42 15.66Z" fill="#0091D0"/>
<path d="M101.91 66.01L102.76 51.24L91.1199 60.35C90.3799 60.92 89.7299 61.65 89.2699 62.54C87.5499 65.84 88.8099 69.9 92.0999 71.63C95.3899 73.36 99.4499 72.09 101.17 68.79C101.63 67.9 101.86 66.95 101.91 66.01Z" fill="white"/>
<path d="M75.12 78.32L75.97 63.55L64.33 72.66C63.59 73.23 62.94 73.96 62.48 74.85C60.76 78.15 62.0199 82.21 65.3099 83.94C68.5999 85.67 72.6599 84.4 74.3799 81.1C74.8399 80.21 75.07 79.26 75.12 78.32Z" fill="white"/>
<path d="M94.0799 42.08L94.9299 27.31L83.2899 36.42C82.5499 36.99 81.8999 37.72 81.4399 38.61C79.7099 41.91 80.9799 45.97 84.2699 47.7C87.5599 49.43 91.6199 48.16 93.3399 44.86C93.7999 43.97 94.0399 43.02 94.0799 42.08Z" fill="white"/>
<path d="M88.1699 18L89.0199 3.23L77.3799 12.34C76.6399 12.91 75.9899 13.64 75.5299 14.53C73.8099 17.83 75.0699 21.89 78.3599 23.62C81.6499 25.35 85.7099 24.08 87.4299 20.78C87.8899 19.88 88.1199 18.94 88.1699 18Z" fill="white"/>
<path d="M68.2099 56.13L69.0599 41.36L57.4199 50.47C56.6799 51.04 56.0299 51.77 55.5699 52.66C53.8499 55.96 55.1099 60.02 58.3999 61.75C61.6899 63.48 65.7499 62.21 67.4699 58.91C67.9299 58.02 68.1599 57.07 68.2099 56.13Z" fill="white"/>
<path d="M129.73 52.84L130.58 38.07L118.94 47.18C118.2 47.75 117.55 48.48 117.09 49.37C115.37 52.67 116.63 56.73 119.92 58.46C123.21 60.19 127.27 58.92 128.99 55.62C129.46 54.73 129.69 53.78 129.73 52.84Z" fill="white"/>
<path d="M110.97 88.7L111.82 73.93L100.18 83.04C99.4399 83.61 98.7899 84.34 98.3299 85.23C96.6099 88.53 97.8699 92.59 101.16 94.32C104.45 96.05 108.51 94.78 110.23 91.48C110.69 90.59 110.92 89.64 110.97 88.7Z" fill="white"/>
<path d="M121.55 28.48L122.4 13.71L110.76 22.82C110.02 23.39 109.37 24.12 108.91 25.01C107.19 28.31 108.45 32.37 111.74 34.1C115.03 35.83 119.09 34.56 120.81 31.26C121.27 30.37 121.5 29.43 121.55 28.48Z" fill="white"/>
<path d="M83.2999 101.57L84.1499 86.8L72.5099 95.9C71.7699 96.47 71.1199 97.2 70.6599 98.09C68.9399 101.39 70.1999 105.45 73.4899 107.18C76.7799 108.91 80.8399 107.64 82.5599 104.34C83.0199 103.46 83.2599 102.51 83.2999 101.57Z" fill="white"/>
<path d="M0 153.86V101.45H9.57V153.86H0Z" fill="#0D2F46"/>
<path d="M18.87 153.86V115.59H27.52V124.1L26.82 122.83C27.71 119.97 29.09 117.98 30.97 116.85C32.89 115.72 35.19 115.16 37.86 115.16H40.11V123.32H36.8C34.17 123.32 32.06 124.14 30.47 125.78C28.88 127.37 28.08 129.63 28.08 132.53V153.85H18.87V153.86Z" fill="#0D2F46"/>
<path d="M45.1899 153.86V115.59H53.8399V124.1L53.1399 122.83C54.0299 119.97 55.4099 117.98 57.2899 116.85C59.2099 115.72 61.5099 115.16 64.1799 115.16H66.4299V123.32H63.1199C60.4899 123.32 58.3799 124.14 56.7899 125.78C55.1999 127.37 54.3999 129.63 54.3999 132.53V153.85H45.1899V153.86Z" fill="#0D2F46"/>
<path d="M71.5 153.86V115.59H80.72V153.86H71.5Z" fill="#0D2F46"/>
<path d="M107.02 154.71C103.32 154.71 100.01 153.84 97.1001 152.11C94.1901 150.33 91.8901 147.91 90.2101 144.86C88.5201 141.81 87.6801 138.43 87.6801 134.73C87.6801 130.98 88.5201 127.6 90.2101 124.6C91.9001 121.6 94.2001 119.21 97.1001 117.42C100.05 115.64 103.34 114.75 106.95 114.75C109.86 114.75 112.44 115.34 114.69 116.51C116.99 117.64 118.79 119.23 120.11 121.29L118.7 123.19V100.61H127.92V153.86H119.2V146.47L120.18 148.3C118.87 150.36 117.04 151.96 114.69 153.08C112.34 154.17 109.79 154.71 107.02 154.71ZM108 146.26C110.11 146.26 111.96 145.77 113.56 144.78C115.15 143.8 116.4 142.44 117.29 140.7C118.23 138.96 118.7 136.97 118.7 134.72C118.7 132.52 118.23 130.55 117.29 128.81C116.4 127.03 115.16 125.64 113.56 124.66C111.97 123.68 110.11 123.18 108 123.18C105.94 123.18 104.08 123.7 102.44 124.73C100.8 125.71 99.5101 127.07 98.5701 128.81C97.6801 130.5 97.2301 132.47 97.2301 134.72C97.2301 136.97 97.6801 138.96 98.5701 140.7C99.5101 142.44 100.8 143.8 102.44 144.78C104.09 145.77 105.94 146.26 108 146.26Z" fill="#0D2F46"/>
<path d="M154.64 154.71C150.7 154.71 147.25 153.82 144.3 152.04C141.35 150.26 139.05 147.84 137.41 144.79C135.77 141.74 134.95 138.36 134.95 134.66C134.95 130.81 135.77 127.41 137.41 124.46C139.1 121.46 141.37 119.09 144.23 117.35C147.14 115.61 150.37 114.75 153.94 114.75C156.94 114.75 159.57 115.24 161.82 116.23C164.12 117.21 166.06 118.57 167.66 120.31C169.25 122.05 170.47 124.04 171.32 126.29C172.16 128.49 172.59 130.89 172.59 133.47C172.59 134.13 172.54 134.81 172.45 135.51C172.4 136.21 172.29 136.82 172.1 137.34H142.55V130.31H166.89L162.53 133.62C162.95 131.46 162.83 129.54 162.18 127.85C161.57 126.16 160.54 124.83 159.08 123.84C157.67 122.86 155.96 122.36 153.94 122.36C152.02 122.36 150.31 122.85 148.8 123.84C147.3 124.78 146.15 126.18 145.35 128.06C144.6 129.89 144.32 132.12 144.51 134.74C144.32 137.08 144.63 139.17 145.42 141C146.26 142.78 147.48 144.17 149.08 145.15C150.72 146.13 152.6 146.63 154.71 146.63C156.82 146.63 158.6 146.18 160.06 145.29C161.56 144.4 162.73 143.2 163.58 141.7L171.04 145.36C170.29 147.19 169.12 148.81 167.52 150.21C165.93 151.62 164.03 152.72 161.82 153.52C159.65 154.31 157.26 154.71 154.64 154.71Z" fill="#0D2F46"/>
<path d="M179.56 153.86V100.61H188.78V153.86H179.56Z" fill="#0D2F46"/>
<path d="M214.73 154.28C210.42 154.28 207.06 153.11 204.67 150.76C202.33 148.37 201.15 145.01 201.15 140.7V123.82H194.54V115.59H195.24C197.12 115.59 198.57 115.1 199.6 114.11C200.63 113.13 201.15 111.69 201.15 109.82V106.87H210.37V115.59H219.16V123.82H210.37V140.21C210.37 141.48 210.58 142.55 211 143.45C211.47 144.34 212.17 145.02 213.11 145.49C214.09 145.96 215.34 146.19 216.84 146.19C217.17 146.19 217.54 146.17 217.97 146.12C218.44 146.07 218.88 146.03 219.31 145.98V153.86C218.65 153.95 217.9 154.05 217.06 154.14C216.21 154.24 215.44 154.28 214.73 154.28Z" fill="#0D2F46"/>
<path d="M237.82 154.71C235.15 154.71 232.83 154.26 230.86 153.37C228.89 152.48 227.37 151.21 226.29 149.57C225.21 147.88 224.67 145.94 224.67 143.73C224.67 141.62 225.14 139.74 226.08 138.1C227.02 136.41 228.47 135 230.44 133.88C232.41 132.75 234.9 131.96 237.9 131.49L250.42 129.45V136.48L239.66 138.31C237.83 138.64 236.47 139.22 235.58 140.07C234.69 140.91 234.24 142.02 234.24 143.38C234.24 144.69 234.73 145.75 235.72 146.55C236.75 147.3 238.02 147.68 239.52 147.68C241.44 147.68 243.13 147.28 244.59 146.48C246.09 145.64 247.24 144.49 248.04 143.03C248.88 141.58 249.31 139.98 249.31 138.25V128.4C249.31 126.76 248.65 125.4 247.34 124.32C246.07 123.19 244.39 122.63 242.27 122.63C240.3 122.63 238.54 123.17 236.99 124.25C235.49 125.28 234.39 126.67 233.68 128.4L226.15 124.74C226.9 122.72 228.07 120.99 229.67 119.53C231.31 118.03 233.23 116.86 235.44 116.01C237.64 115.17 240.04 114.74 242.62 114.74C245.76 114.74 248.53 115.33 250.92 116.5C253.31 117.63 255.16 119.22 256.48 121.28C257.84 123.3 258.52 125.67 258.52 128.39V153.86H249.8V147.32L251.77 147.18C250.79 148.82 249.61 150.2 248.25 151.33C246.89 152.41 245.34 153.25 243.61 153.86C241.85 154.42 239.93 154.71 237.82 154.71Z" fill="#0D2F46"/>
</g>
<defs>
<clipPath id="clip0_75_203">
<rect width="258.5" height="154.71" fill="white"/>
</clipPath>
</defs>
</svg>
