<svg fill="none" viewBox="0 0 136 36" xmlns="http://www.w3.org/2000/svg">
<path clip-rule="evenodd" d="M22.1212 4.63805C22.6892 5.19638 22.6892 6.10161 22.1212 6.65994L15.6083 13.0626C15.0404 13.6209 14.1196 13.6209 13.5516 13.0626C12.9837 12.5043 12.9837 11.599 13.5516 11.0407L20.0645 4.63805C20.6325 4.07972 21.5533 4.07972 22.1212 4.63805ZM18.8648 1.43673C19.4327 1.99506 19.4327 2.90029 18.8648 3.45862L12.3519 9.86127C11.7839 10.4196 10.8631 10.4196 10.2952 9.86127C9.72723 9.30294 9.72723 8.3977 10.2952 7.83938L16.8081 1.43673C17.376 0.878397 18.2968 0.878397 18.8648 1.43673ZM25.3777 7.83938C25.9456 8.3977 25.9456 9.30294 25.3777 9.86127L18.8648 16.2639C18.2968 16.8222 17.376 16.8222 16.8081 16.2639C16.2401 15.7056 16.2401 14.8004 16.8081 14.242L23.321 7.83938C23.8889 7.28105 24.8097 7.28105 25.3777 7.83938Z" fill="#FF8A00" fill-rule="evenodd"></path>
<path clip-rule="evenodd" d="M22.1207 23.8465C22.6887 24.4049 22.6887 25.3101 22.1207 25.8684L15.6078 32.2711C15.0399 32.8294 14.1191 32.8294 13.5511 32.2711C12.9832 31.7128 12.9832 30.8075 13.5511 30.2492L20.064 23.8465C20.632 23.2882 21.5528 23.2882 22.1207 23.8465ZM18.8643 20.6452C19.4322 21.2036 19.4322 22.1088 18.8643 22.6671L12.3514 29.0698C11.7834 29.6281 10.8626 29.6281 10.2947 29.0698C9.72674 28.5114 9.72674 27.6062 10.2947 27.0479L16.8076 20.6452C17.3755 20.0869 18.2963 20.0869 18.8643 20.6452ZM25.3772 27.0479C25.9451 27.6062 25.9451 28.5114 25.3772 29.0698L18.8643 35.4724C18.2963 36.0307 17.3755 36.0307 16.8076 35.4724C16.2396 34.9141 16.2396 34.0089 16.8076 33.4505L23.3205 27.0479C23.8884 26.4895 24.8092 26.4895 25.3772 27.0479Z" fill="#FF8A00" fill-rule="evenodd"></path>
<path clip-rule="evenodd" d="M12.3505 22.6669C11.7825 23.2252 10.8617 23.2252 10.2937 22.6669L3.78085 16.2642C3.2129 15.7059 3.2129 14.8006 3.78085 14.2423C4.34879 13.684 5.26961 13.684 5.83755 14.2423L12.3505 20.645C12.9184 21.2033 12.9184 22.1085 12.3505 22.6669ZM15.6069 19.4655C15.039 20.0239 14.1181 20.0239 13.5502 19.4655L7.0373 13.0629C6.46935 12.5046 6.46935 11.5993 7.0373 11.041C7.60524 10.4827 8.52606 10.4827 9.094 11.041L15.6069 17.4436C16.1748 18.002 16.1748 18.9072 15.6069 19.4655ZM9.094 25.8682C8.52606 26.4265 7.60524 26.4265 7.0373 25.8682L0.524398 19.4655C-0.043545 18.9072 -0.043545 18.002 0.524398 17.4436C1.09234 16.8853 2.01316 16.8853 2.5811 17.4436L9.094 23.8463C9.66195 24.4046 9.66195 25.3099 9.094 25.8682Z" fill="#023DB8" fill-rule="evenodd"></path>
<path clip-rule="evenodd" d="M31.8876 22.6669C31.3196 23.2252 30.3988 23.2252 29.8309 22.6669L23.318 16.2642C22.75 15.7059 22.75 14.8007 23.318 14.2423C23.8859 13.684 24.8067 13.684 25.3747 14.2423L31.8876 20.645C32.4555 21.2033 32.4555 22.1085 31.8876 22.6669ZM35.144 19.4655C34.5761 20.0239 33.6553 20.0239 33.0873 19.4655L26.5744 13.0629C26.0065 12.5046 26.0065 11.5993 26.5744 11.041C27.1424 10.4827 28.0632 10.4827 28.6311 11.041L35.144 17.4436C35.712 18.002 35.712 18.9072 35.144 19.4655ZM28.6311 25.8682C28.0632 26.4265 27.1424 26.4265 26.5744 25.8682L20.0615 19.4655C19.4936 18.9072 19.4936 18.002 20.0615 17.4436C20.6295 16.8853 21.5503 16.8853 22.1182 17.4436L28.6311 23.8463C29.1991 24.4046 29.1991 25.3099 28.6311 25.8682Z" fill="#023DB8" fill-rule="evenodd"></path>
<path clip-rule="evenodd" d="M48.317 9.70105L53.0041 22.7112L57.6662 9.70105H62.6039V27.6394H58.8317V22.7359L59.2077 14.2719L54.2824 27.6394H51.7008L46.788 14.2842L47.164 22.7359V27.6394H43.4043V9.70105H48.317ZM69.4717 27.6394H65.8373V14.3088H69.4717V27.6394ZM65.6243 10.8592C65.6243 10.3253 65.806 9.88586 66.1694 9.54089C66.5329 9.19592 67.0279 9.02344 67.6545 9.02344C68.2728 9.02344 68.7657 9.19592 69.1333 9.54089C69.501 9.88586 69.6848 10.3253 69.6848 10.8592C69.6848 11.4013 69.4989 11.8448 69.1271 12.1897C68.7553 12.5347 68.2644 12.7072 67.6545 12.7072C67.0446 12.7072 66.5537 12.5347 66.182 12.1897C65.8102 11.8448 65.6243 11.4013 65.6243 10.8592ZM80.0741 17.6476C79.5812 17.5819 79.1467 17.5491 78.7708 17.5491C77.4005 17.5491 76.5024 18.0049 76.0763 18.9166V27.6394H72.4544V14.3088H75.8758L75.976 15.8981C76.7029 14.6743 77.7097 14.0624 78.9963 14.0624C79.3974 14.0624 79.7733 14.1158 80.1243 14.2226L80.0741 17.6476ZM89.674 27.6394C89.5069 27.319 89.3857 26.9207 89.3105 26.4443C88.4332 27.4053 87.2928 27.8858 85.8892 27.8858C84.5607 27.8858 83.46 27.5079 82.5869 26.7523C81.7138 25.9966 81.2772 25.0439 81.2772 23.894C81.2772 22.4813 81.8099 21.3971 82.8751 20.6414C83.9404 19.8858 85.4798 19.5039 87.4933 19.4957H89.1601V18.7318C89.1601 18.1158 88.9993 17.623 88.6776 17.2534C88.356 16.8838 87.8484 16.699 87.1549 16.699C86.545 16.699 86.0667 16.8427 85.72 17.1302C85.3732 17.4176 85.1999 17.8119 85.1999 18.3129H81.578C81.578 17.5408 81.8203 16.8263 82.3049 16.1692C82.7895 15.5121 83.4746 14.9967 84.3602 14.623C85.2458 14.2493 86.2401 14.0624 87.3429 14.0624C89.0139 14.0624 90.3403 14.4751 91.322 15.3006C92.3037 16.1261 92.7945 17.2862 92.7945 18.7811V24.5593C92.8029 25.8242 92.9825 26.781 93.3334 27.4299V27.6394H89.674ZM86.6787 25.163C87.2134 25.163 87.7064 25.0459 88.1575 24.8119C88.6087 24.5778 88.9429 24.2636 89.1601 23.8694V21.5778H87.8066C85.9936 21.5778 85.0286 22.1938 84.9116 23.4258L84.8991 23.6353C84.8991 24.0788 85.0578 24.4443 85.3753 24.7318C85.6928 25.0192 86.1273 25.163 86.6787 25.163ZM102.921 23.9556C102.921 23.5203 102.701 23.1774 102.263 22.9269C101.824 22.6763 101.12 22.4525 100.151 22.2554C96.926 21.5901 95.3135 20.2431 95.3135 18.2144C95.3135 17.0316 95.8127 16.0439 96.8112 15.2513C97.8096 14.4587 99.115 14.0624 100.728 14.0624C102.449 14.0624 103.825 14.4608 104.857 15.2575C105.889 16.0542 106.405 17.0891 106.405 18.3622H102.783C102.783 17.853 102.616 17.432 102.282 17.0994C101.947 16.7667 101.425 16.6004 100.715 16.6004C100.105 16.6004 99.633 16.7359 99.2988 17.007C98.9646 17.278 98.7976 17.623 98.7976 18.0419C98.7976 18.4361 98.9876 18.7544 99.3678 18.9967C99.7479 19.239 100.389 19.4484 101.292 19.625C102.194 19.8016 102.954 20.0008 103.572 20.2226C105.486 20.9125 106.442 22.1075 106.442 23.8077C106.442 25.0234 105.912 26.0069 104.851 26.7585C103.79 27.51 102.419 27.8858 100.74 27.8858C99.6038 27.8858 98.5949 27.6866 97.7135 27.2882C96.832 26.8899 96.1407 26.3437 95.6394 25.6496C95.1381 24.9556 94.8874 24.2061 94.8874 23.4012H98.3213C98.3547 24.0336 98.5929 24.5182 99.0357 24.855C99.4785 25.1917 100.072 25.3601 100.815 25.3601C101.509 25.3601 102.033 25.2307 102.388 24.972C102.743 24.7133 102.921 24.3745 102.921 23.9556ZM113.849 23.2903L116.368 14.3088H120.153L115.578 27.6394H112.119L107.545 14.3088H111.33L113.849 23.2903ZM125.567 27.6394H121.932V14.3088H125.567V27.6394ZM121.719 10.8592C121.719 10.3253 121.901 9.88586 122.264 9.54089C122.628 9.19592 123.123 9.02344 123.75 9.02344C124.368 9.02344 124.861 9.19592 125.228 9.54089C125.596 9.88586 125.78 10.3253 125.78 10.8592C125.78 11.4013 125.594 11.8448 125.222 12.1897C124.85 12.5347 124.359 12.7072 123.75 12.7072C123.14 12.7072 122.649 12.5347 122.277 12.1897C121.905 11.8448 121.719 11.4013 121.719 10.8592ZM132.886 11.0316V14.3088H135.204V16.9207H132.886V23.5737C132.886 24.0665 132.982 24.4197 133.174 24.6332C133.366 24.8468 133.734 24.9535 134.277 24.9535C134.678 24.9535 135.033 24.9248 135.342 24.8673V27.5654C134.632 27.779 133.901 27.8858 133.149 27.8858C130.609 27.8858 129.314 26.625 129.264 24.1034V16.9207H127.284V14.3088H129.264V11.0316H132.886Z" fill="#023DB8" fill-rule="evenodd"></path>
</svg>
