<svg xmlns="http://www.w3.org/2000/svg" viewBox="0 0 866 148">
    <defs>
      <style>
        .cls-1{fill:#00abee}.cls-2{fill:#004a71}
      </style>
    </defs>
    <g id="Layer_2" data-name="Layer 2">
      <g id="Layer_1-2" data-name="Layer 1">
        <path d="M152 40.00642h22.79314l21.96915 54.18506 21.42-54.18506h22.51857V118h-18.94857V71.20368L204.17685 118h-15.37828l-17.30085-47.06989V118H152Zm159.82571 77.99272h-18.94712v-8.48361a22.91767 22.91767 0 0 1-18.67488 9.03075c-14.28 0-24.16628-9.85176-24.16628-26.54511V55.8779H268.986v33.93383c0 8.48361 4.66857 13.13577 11.80859 13.13577 7.41456 0 12.084-4.65216 12.084-13.13577V55.8779h18.94712v62.12124Zm9.33714-82.09686h18.95V118h-18.95ZM352.46856 71.5H344.78V55.87877h7.68857V40.00642h18.95v15.87235h12.35568v15.59877h-12.08283v25.177c0 3.55758 1.64856 5.19958 5.76714 5.19958h6.86717V118h-9.61287c-12.90714 0-21.96856-5.47316-21.96856-21.61936V71.5Zm36.24856-32.04072c0-5.747 4.67005-10.39918 11.26148-10.39918 6.5885 0 11.25855 4.65216 11.25855 10.39918 0 5.74673-4.67005 10.12561-11.25855 10.12561-6.86717 0-11.26148-4.65245-11.26148-10.12561Zm1.64861 16.41977h18.95v62.12124h-18.95Z" class="cls-1"/>
        <path d="M447.48571 118.82188c-16.75 0-30.20568-8.20975-30.75715-24.35595h20.32287c.54855 6.02059 4.39432 8.75717 9.61 8.75717 5.49429 0 9.06432-2.73658 9.06432-7.38874 0-14.5042-39.27-6.568-38.99718-34.48156 0-14.77777 12.08284-23.26108 28.83572-23.26108 17.0257 0 28.83573 8.48331 29.38432 23.53494h-20.59574c-.27574-4.926-3.84572-7.93646-9.06432-8.21-4.66713 0-7.9643 2.18944-7.9643 7.11517 0 13.40962 38.72145 7.389 38.72145 33.66055 0 13.68317-10.43428 24.6295-28.55999 24.6295Zm59.59287-63.76353c9.33713 0 15.65287 4.105 19.22285 9.57817v-8.75717h18.94713v62.12153h-18.94713v-8.75718c-3.57 5.47316-9.88572 9.57818-19.22285 9.57818-15.10428 0-27.46285-12.31506-27.46285-32.29213-.27286-19.15635 12.08284-31.4714 27.46285-31.4714ZM512.57 71.47812c-7.14 0-13.45571 5.19959-13.45571 15.05163 0 9.85175 6.31573 15.32492 13.45571 15.32492s13.4557-5.47317 13.4557-15.32492c0-9.57818-6.3157-15.05163-13.4557-15.05163Zm43.93711.02188h-6.86424V55.87877h6.86424v-1.642c0-16.14592 9.8886-24.35583 29.11146-23.53486v16.41968c-7.41571-.54743-9.88568 1.642-9.88568 8.21v.54715h10.15854v15.5988h-10.15854V118h-18.95V71.5Zm61.51429 47.321c-18.12283 0-31.5785-12.31475-31.5785-32.01855 0-19.7035 12.90712-32.01826 31.5785-32.01826 18.12577 0 31.03289 12.0409 31.03289 30.92369a38.25284 38.25284 0 0 1-.27574 5.47316H605.39c.54855 8.21 5.76714 11.76763 11.8071 11.76763a10.398 10.398 0 0 0 9.8886-6.0206h20.32C644.93575 109.5164 633.95 118.821 618.0214 118.821Zm-12.35569-37.76528h24.16572c0-6.8416-5.2186-10.67275-11.53429-10.67275-6.59143.00003-11.53429 3.55758-12.63143 10.67275Zm87.60143-25.99737c15.10428 0 27.73571 12.31505 27.73571 32.01854 0 19.42993-12.08284 32.29213-27.73571 32.29213-9.06139 0-15.65286-4.37859-19.22285-9.57818V148h-18.95V55.87935h18.95v8.75717c3.56999-5.47316 10.16146-9.57817 19.22285-9.57817ZM687.5 71.47812c-7.14 0-13.45571 5.47345-13.45571 15.3252S680.36 102.12824 687.5 102.12824s13.73145-5.47317 13.73145-15.32492S694.64 71.47812 687.5 71.47812Zm64.53569-16.41977c9.33718 0 15.65287 4.105 19.2229 9.57817v-8.75717h18.94708v62.12153h-18.94708v-8.75718c-3.57 5.47316-9.88572 9.57818-19.2229 9.57818-15.10423 0-27.46285-12.31506-27.46285-32.29213.27573-19.15635 12.35862-31.4714 27.46285-31.4714Zm6.04 16.41977c-7.14006 0-13.45575 5.19959-13.45575 15.05163 0 9.85175 6.31569 15.32492 13.45575 15.32492 7.14 0 13.45567-5.47317 13.45567-15.32492.00004-9.57818-6.31565-15.05163-13.45563-15.05163Zm87.32858-15.60022H866l-39.18293 91.1822H806.5l14.19005-30.97655L795 55.875h21.1472l14.42857 39.13632Z" class="cls-2"/>
        <path d="M118 98.8129 0 0v118h118Z" class="cls-1"/>
        <path d="M118 0 63.29094 45.77531 118 91.55091Z" class="cls-2"/>
      </g>
    </g>
  </svg>
