<svg xmlns="http://www.w3.org/2000/svg" fill="none" viewBox="0 0 64 40">
    <g clip-path="url(#a)">
      <path fill="#585FFF" d="M53.7703 39.9995H0V9.27536C0 4.16076 4.14642 0 9.24281 0H53.7703c5.097 0 9.2434 4.16076 9.2434 9.27536V30.7241c0 5.1146-4.1464 9.2754-9.2434 9.2754Z"/>
      <path fill="#fff" d="M33.1375 14.5266c-1.0324-.6159-2.2088-.9464-3.4098-.9579-1.201-.0116-2.3835.2963-3.4275.8922-1.0439.5959-1.9119 1.4586-2.5157 2.5004-.6039 1.0417-.922 2.2254-.922 3.4306 0 1.2051.3181 2.3888.922 3.4306.6038 1.0418 1.4718 1.9045 2.5157 2.5004 1.044.5959 2.2265.9037 3.4275.8922 1.201-.0116 2.3774-.3421 3.4098-.958v.8758h3.3288V13.6353h-3.3288v.8913Zm-3.4756 9.349a3.46302 3.46302 0 0 1-1.9277-.589c-.5704-.3833-1.0148-.9276-1.277-1.5642a3.49555 3.49555 0 0 1-.1959-2.0125c.1343-.6756.4653-1.2959.951-1.7828.4857-.4868 1.1043-.8182 1.7776-.9523a3.46043 3.46043 0 0 1 2.0053.1989c.6342.2638 1.1762.7103 1.5575 1.2831.3813.5728.5848 1.2462.5848 1.9351-.001.9243-.3677 1.8104-1.0194 2.4636-.6516.6532-1.5351 1.0201-2.4562 1.0201ZM15.7432 9.2207H9.16772v17.9119h3.32888v-5.4252h3.315c.8199-.0008 1.6317-.1642 2.3886-.4805.7569-.3164 1.4441-.7796 2.0222-1.3631.5781-.5835 1.0357-1.2758 1.3466-2.0372a6.2672 6.2672 0 0 0 .4649-2.3996c-.0193-3.4472-2.8571-6.2063-6.2907-6.2063Zm.0198 9.148h-3.2664v-5.811h3.315c.3846.0006.7652.0779 1.1197.2275.3545.1497.6758.3686.9451.6442.2693.2755.4813.602.6236.9606.1423.3585.212.7419.2051 1.1278-.0303 1.5899-1.3577 2.8482-2.9421 2.8482v.0027Zm38.4592 8.8788c1.1218 0 2.0313-.9126 2.0313-2.0383 0-1.1257-.9095-2.0383-2.0313-2.0383-1.1219 0-2.0313.9126-2.0313 2.0383 0 1.1257.9094 2.0383 2.0313 2.0383Zm-4.7549-13.6596-3.907 10.1406-4.0245-10.093h-3.641l5.381 13.4976h.9715l-.0176.0465c-.2533.649-.695 1.2066-1.2679 1.6007-.5729.394-1.2505.6063-1.9451.6092h-.3928v3.3403h.448c1.3657-.0059 2.6982-.4233 3.8247-1.1981 1.1265-.7749 1.9951-1.8714 2.4931-3.1475l5.7005-14.7963h-3.6229Z"/>
    </g>
    <defs>
      <clipPath id="a">
        <path fill="#fff" d="M0 0h63.0137v40H0z"/>
      </clipPath>
    </defs>
  </svg>
