<svg width="242" height="77" viewBox="0 0 242 77" fill="none" xmlns="http://www.w3.org/2000/svg">
<g id="rapidez-logo 2">
<path id="Vector" d="M64.7479 44.1856C63.1067 53.7375 67.8695 59.878 75.1745 59.878C79.6798 59.878 83.2197 57.7986 85.3437 55.1345L84.5392 59.3906H93.7429L99.0527 29.0454H89.849L89.1088 33.3016C87.9503 30.6049 85.1506 28.5581 80.6453 28.5581C73.3402 28.6231 66.4535 34.6337 64.7479 44.1856ZM87.3067 44.1856C86.4056 48.994 82.8657 51.6906 79.3902 51.6906C75.9147 51.6906 73.3402 48.929 74.1447 44.1206C74.9493 39.3121 78.5857 36.6805 81.9969 36.6805C85.5368 36.6805 88.1434 39.3771 87.3067 44.1856Z" fill="white" fill-opacity="0.95"/>
<path id="Vector_2" d="M112.054 33.3016L112.794 29.0454H103.622L95.7703 73.8484H104.974L108.256 55.1345C109.479 57.6687 112.279 59.813 116.72 59.813C124.089 59.813 130.976 53.77 132.682 44.1206C134.387 34.5037 129.56 28.5581 122.191 28.5581C117.782 28.6231 114.178 30.7024 112.054 33.3016ZM123.381 44.1856C122.48 48.994 118.876 51.7556 115.401 51.7556C111.925 51.7556 109.351 49.059 110.155 44.2505C111.056 39.4421 114.596 36.7455 118.072 36.7455C121.547 36.6805 124.186 39.3121 123.381 44.1856Z" fill="white" fill-opacity="0.95"/>
<path id="Vector_3" d="M147.292 44.1856C145.65 53.7375 150.413 59.878 157.783 59.878C162.224 59.878 165.699 57.8962 167.855 55.0696L167.115 59.3907H176.319L183.334 19.1362H174.131L171.685 33.2367C170.333 30.4751 167.179 28.6232 163.221 28.6232C155.884 28.6232 148.933 34.6337 147.292 44.1856ZM169.786 44.1856C168.885 48.9941 165.345 51.6907 161.87 51.6907C158.394 51.6907 155.82 48.9291 156.624 44.1207C157.429 39.3122 161.065 36.6806 164.476 36.6806C168.016 36.6806 170.687 39.3772 169.786 44.1856Z" fill="white" fill-opacity="0.95"/>
<path id="Vector_4" d="M198.073 36.0633C201.195 36.0633 203.383 37.9802 202.836 41.6515H191.251C192.409 38.0127 195.016 36.0633 198.073 36.0633ZM210.205 49.3515H200.39C199.36 51.0085 197.655 52.3081 195.145 52.3081C192.152 52.3081 190.028 50.3912 190.446 46.395H211.299C211.557 45.4853 211.782 44.6081 211.911 43.6984C213.552 34.4714 208.307 28.6233 199.521 28.6233C190.607 28.6233 183.302 34.6013 181.661 44.2507C179.955 53.8676 185.265 59.8781 194.051 59.8781C201.613 59.8131 207.695 55.2646 210.205 49.3515Z" fill="white" fill-opacity="0.95"/>
<path id="Vector_5" d="M238.492 29.0457H215.579L214.228 36.6805H226.617L211.492 51.9506L210.141 59.3257H233.44L234.856 51.6907H221.758L237.173 36.4206L238.492 29.0457Z" fill="white" fill-opacity="0.95"/>
<path id="Vector_6" d="M20.7244 21.2156H24.8114C26.3239 21.2156 27.5467 22.4502 27.5467 23.9772C27.5467 25.5042 26.3239 26.7388 24.8114 26.7388H20.7244C19.2119 26.7388 17.989 25.5042 17.989 23.9772C17.989 22.4502 19.2441 21.2156 20.7244 21.2156Z" fill="white"/>
<path id="Vector_7" d="M10.5232 43.0161H23.4599C24.9725 43.0161 26.1953 44.2507 26.1953 45.7777C26.1953 47.3047 24.9724 48.5393 23.4599 48.5393H10.5232C9.01071 48.5393 7.78784 47.3047 7.78784 45.7777C7.78787 44.1857 9.01075 43.0161 10.5232 43.0161Z" fill="white"/>
<path id="Vector_8" d="M53.0983 21.2156H37.6193H32.9853C31.4728 21.2156 30.2499 22.4502 30.2499 23.9772C30.2499 25.2768 31.2153 26.3814 32.4382 26.6738H36.3965C36.4608 26.6738 36.5895 26.6738 36.6539 26.6738C36.7183 26.6738 36.847 26.6738 36.9113 26.6738C38.1342 26.9337 39.0996 28.0384 39.0996 29.3704C39.0996 30.8974 37.8768 32.132 36.3643 32.132H36.2355H35.7207H18.8257C17.6028 32.3919 16.6374 33.4967 16.6374 34.8287C16.6374 36.1608 17.6028 37.2329 18.8257 37.5253H34.7552H36.2677H37.7802C39.2927 37.5253 40.5156 38.7599 40.5156 40.2869C40.5156 41.814 39.2927 43.0486 37.7802 43.0486H34.9161H33.822H31.0866C29.8637 43.3085 28.8983 44.4131 28.8983 45.7452C28.8983 47.0772 29.8637 48.1494 31.0866 48.4418H32.8566H33.6611C33.8542 48.4418 34.0151 48.4418 34.2082 48.5068C34.2725 48.5068 34.2725 48.5068 34.3369 48.5718C34.4656 48.5718 34.53 48.6367 34.6909 48.6367C34.7552 48.6367 34.8196 48.7017 34.884 48.7017C34.9483 48.7667 35.077 48.7667 35.1414 48.8317C35.2058 48.8967 35.2701 48.8967 35.3345 48.9616C35.3988 49.0266 35.4632 49.0916 35.5276 49.1566C35.5919 49.2215 35.5919 49.2215 35.6563 49.2865C35.7207 49.3515 35.785 49.4165 35.8494 49.4815C35.9137 49.5464 35.9137 49.6114 35.9781 49.6764C36.0425 49.7414 36.0425 49.8713 36.1068 49.9363C36.1068 50.0013 36.1712 50.0663 36.1712 50.1313C36.2355 50.2612 36.2355 50.3262 36.2355 50.4886C36.2355 50.5536 36.2355 50.6186 36.2999 50.6186C36.2999 50.7486 36.3643 50.976 36.3643 51.1709C36.3643 52.6979 35.1414 53.9325 33.6289 53.9325H33.5002H31.859H7.78768C7.59459 53.9325 7.43369 53.9325 7.2406 53.8675H3.70071C2.1882 53.8675 0.965332 55.1021 0.965332 56.6291C0.965332 58.1561 2.1882 59.3907 3.70071 59.3907H30.9579H40.1616L42.6717 44.9979H44.86L50.1699 59.3907H60.5321L54.4821 44.1857C60.6286 42.4637 64.0398 37.9152 64.8443 33.1718C66.0672 26.5763 62.3664 21.2156 53.0983 21.2156ZM55.4153 33.5941C54.8683 36.5507 52.9696 38.4026 49.4941 38.4026H43.7659L45.4071 28.8506H51.1353C54.6752 28.8506 55.9624 30.7025 55.4153 33.5941Z" fill="white" fill-opacity="0.95"/>
<path id="Vector_9" d="M137.219 56.9541C138.989 56.9541 140.534 57.9288 141.435 59.3908H141.918L146.23 34.4064C146.712 31.6123 144.589 29.0457 141.757 29.0457C139.568 29.0457 137.67 30.6376 137.284 32.847L132.682 59.3908H133.003C133.937 57.9288 135.481 56.9541 137.219 56.9541Z" fill="white" fill-opacity="0.95"/>
<path id="Vector_10" d="M112.569 73.6861C113.212 73.1338 114.017 72.7764 114.886 72.7764C114.95 71.2494 116.108 70.0148 117.557 70.0148C117.718 70.0148 117.911 70.0148 118.072 70.0798C118.715 69.5275 119.52 69.1051 120.324 68.9102C120.839 66.6359 122.77 64.9789 125.087 64.9789C127.05 64.9789 128.788 66.2135 129.56 68.0654C130.204 68.1304 130.783 68.3578 131.233 68.6827C131.459 65.9861 133.615 63.8093 136.222 63.8093C139.021 63.8093 141.274 66.2135 141.274 69.1701C141.274 69.3 141.274 69.43 141.274 69.4625C141.724 69.2676 142.272 69.1701 142.786 69.1701C143.494 69.1701 144.074 69.365 144.653 69.6574C145.522 68.0654 147.163 67.0258 148.997 67.0258C151.797 67.0258 154.114 69.43 154.114 72.4515C154.114 72.8739 154.05 73.3287 153.953 73.7511H112.569V73.6861Z" fill="white"/>
<path id="Vector_11" d="M146.069 23.8797L149.834 26.3489L150.96 22.1903L149.094 18.389C149.545 16.797 149.802 15.465 149.802 15.465C151.282 5.45821 147.324 1.52699 147.163 1.36454C147.099 1.29956 147.099 1.29956 147.034 1.29956C146.97 1.29956 146.938 1.29956 146.874 1.29956C146.68 1.39703 141.757 3.86622 140.019 13.873C140.019 13.873 139.826 15.205 139.762 16.8945L136.801 19.916L136.543 24.1721L140.856 23.035L146.069 23.8797Z" fill="white" fill-opacity="0.95"/>
<path id="Vector_12" d="M145.007 11.5012C146.262 11.5012 147.292 12.5409 147.292 13.808C147.292 15.0751 146.262 16.1147 145.007 16.1147C143.752 16.1147 142.722 15.0751 142.722 13.808C142.722 12.5409 143.752 11.5012 145.007 11.5012Z" fill="#013137"/>
</g>
</svg>
