<svg xmlns="http://www.w3.org/2000/svg" fill="none" viewBox="0 0 12 21">
    <path fill="currentColor" d="M7.92857 18.5285 11.0625 20.5 12 17.1796l-1.5536-3.035c.375-1.2711.5893-2.3346.5893-2.3346C12.2679 3.82036 8.97321.68158 8.83928.55188 8.78571.5 8.78571.5 8.73214.5h-.13393C8.4375.57782 4.33929 2.54928 2.89286 10.5389c0 0-.16072 1.0636-.21429 2.4125L.21429 15.3638 0 18.762l3.58929-.9079 4.33928.6744Z"/>
    <path fill="#fff" d="M7 8.5c1.09859 0 2 .90141 2 2 0 1.0986-.90141 2-2 2s-2-.9014-2-2c0-1.09859.90141-2 2-2Z"/>
  </svg>
