<svg xmlns="http://www.w3.org/2000/svg" fill="none" viewBox="0 0 486 571">
    <path fill="currentColor" d="M334.108 293.354c-.455-3.94 2.97-7.23 6.889-6.617l29.867 4.675c4.007.628 6.251 4.968 4.445 8.599l-23.799 47.866c-2.658 5.348-10.647 3.951-11.332-1.983l-6.07-52.54Z"/>
    <path fill="currentColor" d="m392.397 278.289 46.404 30.431 13.881-51.253-23.003-46.849c5.552-19.62 8.725-36.037 8.725-36.037C456.648 51.2531 407.865 2.80291 405.882.80083 405.089 0 405.089 0 404.296 0h-1.983c-2.38 1.20125-63.062 31.6328-84.479 154.961 0 0-2.38 16.417-3.173 37.238l-36.488 37.239L275 281.892l53.146-14.014 64.251 10.411Z"/>
    <path fill="#fff" d="M379.309 125.73c15.468 0 28.16 12.814 28.16 28.43s-12.692 28.429-28.16 28.429c-15.467 0-28.159-12.813-28.159-28.429 0-15.616 12.692-28.43 28.159-28.43Z"/>
    <path fill="currentColor" fill-rule="evenodd" d="M295.58 457.08c.217-1.933.328-3.899.328-5.89 0-28.824-23.366-52.19-52.189-52.19-26.562 0-48.49 19.843-51.767 45.514-5.542-2.394-11.582-3.856-17.92-4.186-7.948-18.675-26.467-31.769-48.043-31.769-20.263 0-37.8286 11.548-46.4755 28.421-7.9475-4.893-17.306-7.716-27.3238-7.716-28.794 0-52.14183 23.318-52.18963 52.101H0v89.092h431v-.123c.726.03 1.456.045 2.19.045 28.823 0 52.189-23.366 52.189-52.189 0-28.824-23.366-52.19-52.189-52.19-1.593 0-3.168.071-4.725.211-6.789-20.938-26.454-36.076-49.654-36.076-18.191 0-34.207 9.306-43.549 23.417-4.918-1.535-10.149-2.362-15.573-2.362-8.697 0-16.898 2.127-24.109 5.89Z" clip-rule="evenodd"/>
  </svg>
