<svg width="29" height="29" viewBox="0 0 29 29" fill="none" xmlns="http://www.w3.org/2000/svg">
<g clip-path="url(#clip0_463_573)">
<path d="M6.21096 18.2676C6.21096 19.9345 4.86372 21.2818 3.19679 21.2818C1.52986 21.2818 0.182617 19.9345 0.182617 18.2676C0.182617 16.6007 1.52986 15.2534 3.19679 15.2534H6.21096V18.2676ZM7.71805 18.2676C7.71805 16.6007 9.06529 15.2534 10.7322 15.2534C12.3992 15.2534 13.7464 16.6007 13.7464 18.2676V25.803C13.7464 27.47 12.3992 28.8172 10.7322 28.8172C9.06529 28.8172 7.71805 27.47 7.71805 25.803V18.2676Z" fill="#E01E5A"/>
<path d="M10.7321 6.16555C9.06518 6.16555 7.71794 4.81831 7.71794 3.15138C7.71794 1.48445 9.06518 0.137207 10.7321 0.137207C12.399 0.137207 13.7463 1.48445 13.7463 3.15138V6.16555H10.7321ZM10.7321 7.69548C12.399 7.69548 13.7463 9.04272 13.7463 10.7096C13.7463 12.3766 12.399 13.7238 10.7321 13.7238H3.17384C1.50691 13.7238 0.159668 12.3766 0.159668 10.7096C0.159668 9.04272 1.50691 7.69548 3.17384 7.69548H10.7321Z" fill="#36C5F0"/>
<path d="M22.8118 10.7096C22.8118 9.04272 24.159 7.69548 25.826 7.69548C27.4929 7.69548 28.8401 9.04272 28.8401 10.7096C28.8401 12.3766 27.4929 13.7238 25.826 13.7238H22.8118V10.7096ZM21.3047 10.7096C21.3047 12.3766 19.9575 13.7238 18.2905 13.7238C16.6236 13.7238 15.2764 12.3766 15.2764 10.7096V3.15138C15.2764 1.48445 16.6236 0.137207 18.2905 0.137207C19.9575 0.137207 21.3047 1.48445 21.3047 3.15138V10.7096Z" fill="#2EB67D"/>
<path d="M18.2905 22.7889C19.9575 22.7889 21.3047 24.1361 21.3047 25.803C21.3047 27.47 19.9575 28.8172 18.2905 28.8172C16.6236 28.8172 15.2764 27.47 15.2764 25.803V22.7889H18.2905ZM18.2905 21.2818C16.6236 21.2818 15.2764 19.9345 15.2764 18.2676C15.2764 16.6007 16.6236 15.2534 18.2905 15.2534H25.8488C27.5157 15.2534 28.863 16.6007 28.863 18.2676C28.863 19.9345 27.5157 21.2818 25.8488 21.2818H18.2905Z" fill="#ECB22E"/>
</g>
<defs>
<clipPath id="clip0_463_573">
<rect width="29" height="29" fill="white"/>
</clipPath>
</defs>
</svg>
