<svg width="1728" height="224" viewBox="0 0 1728 224" fill="none" xmlns="http://www.w3.org/2000/svg">
    <g clip-path="url(#clip0_143_366)">
    <path fill-rule="evenodd" clip-rule="evenodd" d="M530.992 419.98C521.6 421.259 512.01 421.919 502.266 421.919C449.104 421.919 400.534 402.255 363.434 369.802C324.753 414.429 267.653 442.656 203.96 442.656C87.4499 442.656 -7 348.206 -7 231.696C-7 115.186 87.4499 20.7362 203.96 20.7362C257.122 20.7362 305.692 40.4011 342.792 72.8536C381.473 28.2268 438.573 0 502.266 0C563.18 0 618.064 25.8171 656.573 67.1061C665.966 65.8273 675.555 65.1667 685.299 65.1667C733.742 65.1667 778.372 81.4953 813.985 108.949C852.658 61.0932 911.831 30.4896 978.151 30.4896C1047.81 30.4896 1109.58 64.2519 1148 116.305C1184.89 84.676 1232.83 65.5677 1285.24 65.5677C1317.48 65.5677 1348.03 72.8001 1375.36 85.731C1413.51 47.7397 1466.12 24.2569 1524.22 24.2569C1640.73 24.2569 1735.18 118.707 1735.18 235.217C1735.18 351.727 1640.73 446.176 1524.22 446.176C1491.97 446.176 1461.42 438.944 1434.1 426.013C1395.94 464.004 1343.33 487.487 1285.24 487.487C1215.58 487.487 1153.81 453.725 1115.39 401.671C1078.5 433.301 1030.56 452.409 978.151 452.409C929.708 452.409 885.078 436.081 849.466 408.627C810.792 456.483 751.62 487.086 685.299 487.086C624.385 487.086 569.501 461.269 530.992 419.98Z" fill="white"/>
    </g>
    <defs>
    <clipPath id="clip0_143_366">
    <rect width="1742" height="224" fill="white" transform="translate(-7)"/>
    </clipPath>
    </defs>
    </svg>
