<svg width="1742" height="346" viewBox="0 0 1742 346" fill="none" xmlns="http://www.w3.org/2000/svg">
<g clip-path="url(#clip0_188_11)">
<path fill-rule="evenodd" clip-rule="evenodd" d="M1196.11 210.96C1196.11 219.01 1195.66 226.956 1194.78 234.772C1223.93 219.56 1257.08 210.96 1292.24 210.96C1314.16 210.96 1335.3 214.304 1355.18 220.51C1392.94 163.47 1457.69 125.853 1531.22 125.853C1646.43 125.853 1740.07 218.214 1742.14 332.934H1742.18V336.813V693.058H0V333.292V332.934H0.00029729C0.193539 216.589 94.5692 122.333 210.96 122.333C251.453 122.333 289.281 133.741 321.406 153.52C356.358 85.3164 427.361 38.6403 509.266 38.6403C596.483 38.6403 671.337 91.5666 703.465 167.053C729.087 168.39 753.499 174.298 775.901 183.977C789.149 80.2097 877.783 0 985.151 0C1101.66 0 1196.11 94.4499 1196.11 210.96Z" fill="white"/>
</g>
<defs>
<clipPath id="clip0_188_11">
<rect width="1742" height="346" fill="white"/>
</clipPath>
</defs>
</svg>
