<svg xmlns="http://www.w3.org/2000/svg" fill="none" viewBox="0 0 33 32">
    <g fill-rule="evenodd" clip-path="url(#a)" clip-rule="evenodd">
      <path fill="#000" d="M16.5 6c-2.6522 0-5.1957 1.05357-7.07107 2.92893C7.55357 10.8043 6.5 13.3478 6.5 16c0 2.6522 1.05357 5.1957 2.92893 7.0711C11.3043 24.9464 13.8478 26 16.5 26c2.6522 0 5.1957-1.0536 7.0711-2.9289C25.4464 21.1957 26.5 18.6522 26.5 16c0-2.6522-1.0536-5.1957-2.9289-7.07107C21.6957 7.05357 19.1522 6 16.5 6Zm-14 10c0-7.732 6.268-14 14-14s14 6.268 14 14-6.268 14-14 14-14-6.268-14-14Z" opacity=".1"/>
      <path fill="#25AF60" d="M16.5013 6.00002c-2.5782-.0058-5.0579.98999-6.91599 2.77733a2.00002 2.00002 0 0 1-2.76666-2.888C9.4212 3.38863 12.892 1.99446 16.5013 2.00002a1.9999 1.9999 0 0 1 1.4142.58578c.3751.37508.5858.88378.5858 1.41422a1.9999 1.9999 0 0 1-.5858 1.41421 1.99991 1.99991 0 0 1-1.4142.58579Z"/>
    </g>
    <defs>
      <clipPath id="a">
        <path fill="#fff" d="M.5 0h32v32H.5z"/>
      </clipPath>
    </defs>
  </svg>
