<svg width="701" height="121" viewBox="0 0 701 121" fill="none" xmlns="http://www.w3.org/2000/svg">
<path d="M180.768 35.028V88H173.852V35.028H180.768ZM212.847 45.592C217.914 45.592 222.018 47.1373 225.159 50.228C228.3 53.268 229.871 57.676 229.871 63.452V88H223.031V64.44C223.031 60.2853 221.992 57.1187 219.915 54.94C217.838 52.7107 215 51.596 211.403 51.596C207.755 51.596 204.842 52.736 202.663 55.016C200.535 57.296 199.471 60.6147 199.471 64.972V88H192.555V46.352H199.471V52.28C200.839 50.152 202.688 48.5053 205.019 47.34C207.4 46.1747 210.01 45.592 212.847 45.592ZM255.912 88.684C252.72 88.684 249.858 88.152 247.324 87.088C244.791 85.9733 242.79 84.4533 241.32 82.528C239.851 80.552 239.04 78.2973 238.888 75.764H246.032C246.235 77.8413 247.198 79.5387 248.92 80.856C250.694 82.1733 252.999 82.832 255.836 82.832C258.471 82.832 260.548 82.2493 262.068 81.084C263.588 79.9187 264.348 78.4493 264.348 76.676C264.348 74.852 263.538 73.5093 261.916 72.648C260.295 71.736 257.787 70.8493 254.392 69.988C251.302 69.1773 248.768 68.3667 246.792 67.556C244.867 66.6947 243.195 65.4533 241.776 63.832C240.408 62.16 239.724 59.9813 239.724 57.296C239.724 55.168 240.358 53.2173 241.624 51.444C242.891 49.6707 244.69 48.2773 247.02 47.264C249.351 46.2 252.011 45.668 255 45.668C259.611 45.668 263.335 46.8333 266.172 49.164C269.01 51.4947 270.53 54.6867 270.732 58.74H263.816C263.664 56.5613 262.778 54.8133 261.156 53.496C259.586 52.1787 257.458 51.52 254.772 51.52C252.29 51.52 250.314 52.052 248.844 53.116C247.375 54.18 246.64 55.5733 246.64 57.296C246.64 58.664 247.071 59.804 247.932 60.716C248.844 61.5773 249.959 62.2867 251.276 62.844C252.644 63.3507 254.519 63.9333 256.9 64.592C259.89 65.4027 262.322 66.2133 264.196 67.024C266.071 67.784 267.667 68.9493 268.984 70.52C270.352 72.0907 271.062 74.1427 271.112 76.676C271.112 78.956 270.479 81.008 269.212 82.832C267.946 84.656 266.147 86.1 263.816 87.164C261.536 88.1773 258.902 88.684 255.912 88.684ZM289.311 52.052V76.6C289.311 78.6267 289.742 80.0707 290.603 80.932C291.465 81.7427 292.959 82.148 295.087 82.148H300.179V88H293.947C290.097 88 287.209 87.1133 285.283 85.34C283.358 83.5667 282.395 80.6533 282.395 76.6V52.052H276.999V46.352H282.395V35.864H289.311V46.352H300.179V52.052H289.311ZM305.975 67.024C305.975 62.768 306.836 59.044 308.559 55.852C310.282 52.6093 312.638 50.1013 315.627 48.328C318.667 46.5547 322.036 45.668 325.735 45.668C329.383 45.668 332.55 46.4533 335.235 48.024C337.92 49.5947 339.922 51.5707 341.239 53.952V46.352H348.231V88H341.239V80.248C339.871 82.68 337.819 84.7067 335.083 86.328C332.398 87.8987 329.256 88.684 325.659 88.684C321.96 88.684 318.616 87.772 315.627 85.948C312.638 84.124 310.282 81.5653 308.559 78.272C306.836 74.9787 305.975 71.2293 305.975 67.024ZM341.239 67.1C341.239 63.9587 340.606 61.2227 339.339 58.892C338.072 56.5613 336.35 54.788 334.171 53.572C332.043 52.3053 329.687 51.672 327.103 51.672C324.519 51.672 322.163 52.28 320.035 53.496C317.907 54.712 316.21 56.4853 314.943 58.816C313.676 61.1467 313.043 63.8827 313.043 67.024C313.043 70.216 313.676 73.0027 314.943 75.384C316.21 77.7147 317.907 79.5133 320.035 80.78C322.163 81.996 324.519 82.604 327.103 82.604C329.687 82.604 332.043 81.996 334.171 80.78C336.35 79.5133 338.072 77.7147 339.339 75.384C340.606 73.0027 341.239 70.2413 341.239 67.1ZM380.21 45.592C385.277 45.592 389.381 47.1373 392.522 50.228C395.664 53.268 397.234 57.676 397.234 63.452V88H390.394V64.44C390.394 60.2853 389.356 57.1187 387.278 54.94C385.201 52.7107 382.364 51.596 378.766 51.596C375.118 51.596 372.205 52.736 370.026 55.016C367.898 57.296 366.834 60.6147 366.834 64.972V88H359.918V46.352H366.834V52.28C368.202 50.152 370.052 48.5053 372.382 47.34C374.764 46.1747 377.373 45.592 380.21 45.592ZM416.968 52.052V76.6C416.968 78.6267 417.398 80.0707 418.26 80.932C419.121 81.7427 420.616 82.148 422.744 82.148H427.836V88H421.604C417.753 88 414.865 87.1133 412.94 85.34C411.014 83.5667 410.052 80.6533 410.052 76.6V52.052H404.656V46.352H410.052V35.864H416.968V46.352H427.836V52.052H416.968ZM453.011 88.532C449.515 88.532 446.374 87.924 443.587 86.708C440.851 85.4413 438.698 83.7187 437.127 81.54C435.557 79.3107 434.746 76.752 434.695 73.864H442.067C442.321 76.3467 443.334 78.4493 445.107 80.172C446.931 81.844 449.566 82.68 453.011 82.68C456.305 82.68 458.889 81.8693 460.763 80.248C462.689 78.576 463.651 76.448 463.651 73.864C463.651 71.8373 463.094 70.1907 461.979 68.924C460.865 67.6573 459.471 66.6947 457.799 66.036C456.127 65.3773 453.873 64.668 451.035 63.908C447.539 62.996 444.727 62.084 442.599 61.172C440.522 60.26 438.723 58.8413 437.203 56.916C435.734 54.94 434.999 52.3053 434.999 49.012C434.999 46.124 435.734 43.5653 437.203 41.336C438.673 39.1067 440.725 37.384 443.359 36.168C446.045 34.952 449.11 34.344 452.555 34.344C457.521 34.344 461.574 35.5853 464.715 38.068C467.907 40.5507 469.706 43.844 470.111 47.948H462.511C462.258 45.9213 461.194 44.148 459.319 42.628C457.445 41.0573 454.962 40.272 451.871 40.272C448.983 40.272 446.627 41.032 444.803 42.552C442.979 44.0213 442.067 46.0987 442.067 48.784C442.067 50.7093 442.599 52.28 443.663 53.496C444.778 54.712 446.121 55.6493 447.691 56.308C449.313 56.916 451.567 57.6253 454.455 58.436C457.951 59.3987 460.763 60.3613 462.891 61.324C465.019 62.236 466.843 63.68 468.363 65.656C469.883 67.5813 470.643 70.216 470.643 73.56C470.643 76.144 469.959 78.576 468.591 80.856C467.223 83.136 465.197 84.9853 462.511 86.404C459.826 87.8227 456.659 88.532 453.011 88.532ZM518.821 65.58C518.821 66.8973 518.745 68.2907 518.593 69.76H485.305C485.558 73.864 486.951 77.0813 489.485 79.412C492.069 81.692 495.185 82.832 498.833 82.832C501.822 82.832 504.305 82.148 506.281 80.78C508.307 79.3613 509.726 77.4867 510.537 75.156H517.985C516.87 79.1587 514.641 82.4267 511.297 84.96C507.953 87.4427 503.798 88.684 498.833 88.684C494.881 88.684 491.334 87.7973 488.193 86.024C485.102 84.2507 482.67 81.7427 480.897 78.5C479.123 75.2067 478.237 71.4067 478.237 67.1C478.237 62.7933 479.098 59.0187 480.821 55.776C482.543 52.5333 484.95 50.0507 488.041 48.328C491.182 46.5547 494.779 45.668 498.833 45.668C502.785 45.668 506.281 46.5293 509.321 48.252C512.361 49.9747 514.691 52.356 516.313 55.396C517.985 58.3853 518.821 61.78 518.821 65.58ZM511.677 64.136C511.677 61.5013 511.094 59.2467 509.929 57.372C508.763 55.4467 507.167 54.0027 505.141 53.04C503.165 52.0267 500.961 51.52 498.529 51.52C495.033 51.52 492.043 52.6347 489.561 54.864C487.129 57.0933 485.735 60.184 485.381 64.136H511.677ZM525.366 67.024C525.366 62.768 526.227 59.044 527.95 55.852C529.672 52.6093 532.028 50.1013 535.018 48.328C538.058 46.5547 541.427 45.668 545.126 45.668C548.774 45.668 551.94 46.4533 554.626 48.024C557.311 49.5947 559.312 51.5707 560.63 53.952V46.352H567.622V88H560.63V80.248C559.262 82.68 557.21 84.7067 554.474 86.328C551.788 87.8987 548.647 88.684 545.05 88.684C541.351 88.684 538.007 87.772 535.018 85.948C532.028 84.124 529.672 81.5653 527.95 78.272C526.227 74.9787 525.366 71.2293 525.366 67.024ZM560.63 67.1C560.63 63.9587 559.996 61.2227 558.73 58.892C557.463 56.5613 555.74 54.788 553.562 53.572C551.434 52.3053 549.078 51.672 546.494 51.672C543.91 51.672 541.554 52.28 539.426 53.496C537.298 54.712 535.6 56.4853 534.334 58.816C533.067 61.1467 532.434 63.8827 532.434 67.024C532.434 70.216 533.067 73.0027 534.334 75.384C535.6 77.7147 537.298 79.5133 539.426 80.78C541.554 81.996 543.91 82.604 546.494 82.604C549.078 82.604 551.434 81.996 553.562 80.78C555.74 79.5133 557.463 77.7147 558.73 75.384C559.996 73.0027 560.63 70.2413 560.63 67.1ZM586.225 53.116C587.441 50.7347 589.164 48.8853 591.393 47.568C593.673 46.2507 596.434 45.592 599.677 45.592V52.736H597.853C590.101 52.736 586.225 56.9413 586.225 65.352V88H579.309V46.352H586.225V53.116ZM605.077 67.1C605.077 62.7933 605.938 59.044 607.661 55.852C609.383 52.6093 611.765 50.1013 614.805 48.328C617.895 46.5547 621.417 45.668 625.369 45.668C630.486 45.668 634.691 46.9093 637.985 49.392C641.329 51.8747 643.533 55.32 644.597 59.728H637.149C636.439 57.1947 635.046 55.1933 632.969 53.724C630.942 52.2547 628.409 51.52 625.369 51.52C621.417 51.52 618.225 52.888 615.793 55.624C613.361 58.3093 612.145 62.1347 612.145 67.1C612.145 72.116 613.361 75.992 615.793 78.728C618.225 81.464 621.417 82.832 625.369 82.832C628.409 82.832 630.942 82.1227 632.969 80.704C634.995 79.2853 636.389 77.2587 637.149 74.624H644.597C643.482 78.88 641.253 82.3 637.909 84.884C634.565 87.4173 630.385 88.684 625.369 88.684C621.417 88.684 617.895 87.7973 614.805 86.024C611.765 84.2507 609.383 81.7427 607.661 78.5C605.938 75.2573 605.077 71.4573 605.077 67.1ZM674.497 45.592C677.638 45.592 680.475 46.276 683.009 47.644C685.542 48.9613 687.518 50.9627 688.937 53.648C690.406 56.3333 691.141 59.6013 691.141 63.452V88H684.301V64.44C684.301 60.2853 683.262 57.1187 681.185 54.94C679.107 52.7107 676.27 51.596 672.673 51.596C669.025 51.596 666.111 52.736 663.933 55.016C661.805 57.296 660.741 60.6147 660.741 64.972V88H653.825V31.76H660.741V52.28C662.109 50.152 663.983 48.5053 666.365 47.34C668.797 46.1747 671.507 45.592 674.497 45.592Z" fill="#9CA3AF"/>
<g clip-path="url(#clip0_403_21)">
<path d="M63.9176 53.4307C66.7125 53.3318 69.4759 52.8052 72.1122 51.8689L76.8651 60.089L80.061 65.8431C80.4823 66.6086 81.0989 67.248 81.8477 67.6958C82.5965 68.1436 83.4505 68.3836 84.3222 68.3913C85.2104 68.388 86.0837 68.1619 86.8625 67.7337C87.4293 67.3954 87.9238 66.9479 88.3174 66.4171C88.7111 65.8862 88.9961 65.2825 89.156 64.6406C89.316 63.9988 89.3478 63.3315 89.2495 62.6773C89.1512 62.0231 88.9248 61.3949 88.5834 60.8288L85.3875 55.0747L80.6346 46.8546C83.5605 44.3551 85.9217 41.2588 87.5609 37.7719C89.2 34.285 90.0793 30.4878 90.1404 26.6332C90.1837 23.165 89.5428 19.7226 88.2546 16.5039C86.9664 13.2852 85.0564 10.3538 82.6344 7.8785C80.2125 5.40317 77.3264 3.43274 74.1423 2.08063C70.9583 0.728514 67.539 0.0214056 64.0815 0C60.6163 0.0429119 57.1934 0.770121 54.0084 2.1401C50.8233 3.51008 47.9385 5.49599 45.5187 7.98443C43.0988 10.4729 41.1914 13.4151 39.9052 16.6431C38.619 19.871 37.9793 23.3216 38.0226 26.7976C37.9793 30.252 38.6147 33.6811 39.8927 36.8891C41.1706 40.0972 43.066 43.0213 45.4707 45.4944C47.8753 47.9676 50.742 49.9414 53.9072 51.3031C57.0723 52.6648 60.4739 53.3878 63.9176 53.4307ZM63.9176 10.1107C67.1591 10.1107 70.3278 11.0749 73.023 12.8814C75.7182 14.6879 77.8188 17.2555 79.0593 20.2596C80.2997 23.2636 80.6243 26.5692 79.9919 29.7583C79.3595 32.9474 77.7986 35.8767 75.5065 38.1759C73.2145 40.4751 70.2942 42.0409 67.115 42.6753C63.9358 43.3096 60.6404 42.9841 57.6457 41.7397C54.651 40.4954 52.0913 38.3882 50.2904 35.6846C48.4896 32.9811 47.5283 29.8025 47.5283 26.551C47.5283 22.1907 49.2551 18.0091 52.3286 14.926C55.4022 11.8428 59.5709 10.1107 63.9176 10.1107Z" fill="#9CA3AF"/>
<path d="M102.024 67.6515C95.9381 67.7413 90.0721 69.945 85.425 73.8871C80.7779 77.8292 77.6372 83.2658 76.5382 89.2704H60.8046C59.5074 89.3131 58.2777 89.8601 57.3754 90.7959C56.4731 91.7317 55.969 92.9828 55.9697 94.2846C55.9695 95.5786 56.4763 96.8208 57.3807 97.7434C58.2852 98.666 59.5148 99.1951 60.8046 99.2167H76.5382C77.5599 104.047 79.9245 108.488 83.3583 112.026C86.7921 115.564 91.1546 118.054 95.9408 119.208C100.727 120.362 105.741 120.132 110.403 118.545C115.064 116.959 119.182 114.08 122.28 110.243C125.378 106.406 127.329 101.767 127.908 96.8636C128.487 91.9601 127.669 86.9925 125.549 82.5359C123.43 78.0793 120.095 74.3161 115.932 71.6819C111.768 69.0477 106.946 67.6503 102.024 67.6515ZM102.024 110.889C98.782 110.889 95.6133 109.925 92.9181 108.119C90.2229 106.312 88.1223 103.745 86.8818 100.74C85.6413 97.7364 85.3168 94.4308 85.9492 91.2417C86.5816 88.0526 88.1425 85.1233 90.4346 82.8241C92.7266 80.5249 95.6469 78.9591 98.8261 78.3247C102.005 77.6904 105.301 78.0159 108.295 79.2603C111.29 80.5046 113.85 82.6118 115.651 85.3154C117.452 88.0189 118.413 91.1975 118.413 94.449C118.413 98.8093 116.686 102.991 113.612 106.074C110.539 109.157 106.37 110.889 102.024 110.889Z" fill="#9CA3AF"/>
<path d="M47.6932 65.7609L50.971 60.0068C51.5436 58.8564 51.6764 57.5354 51.3442 56.2935C51.012 55.0516 50.238 53.9747 49.1682 53.2663C48.0257 52.6076 46.6702 52.4281 45.3965 52.7668C44.1228 53.1054 43.0339 53.9349 42.3667 55.0747L39.1708 60.8288L34.4998 69.0489C31.8622 68.1291 29.097 67.6298 26.3052 67.5693C19.5079 67.948 13.1133 70.9233 8.43484 75.8841C3.7564 80.845 1.14941 87.4146 1.14941 94.2436C1.14941 101.072 3.7564 107.642 8.43484 112.603C13.1133 117.564 19.5079 120.539 26.3052 120.918C31.6599 120.739 36.8372 118.949 41.1648 115.781C45.4924 112.612 48.7703 108.212 50.5729 103.151C52.3754 98.0899 52.6192 92.6021 51.2728 87.4003C49.9263 82.1985 47.0516 77.523 43.0222 73.981L47.6932 65.7609ZM25.8955 110.889C21.5488 110.889 17.3801 109.157 14.3065 106.074C11.2329 102.991 9.50622 98.8093 9.50622 94.4491C9.50622 90.0888 11.2329 85.9072 14.3065 82.8241C17.3801 79.7409 21.5488 78.0088 25.8955 78.0088C30.2422 78.0088 34.4108 79.7409 37.4844 82.8241C40.558 85.9072 42.2847 90.0888 42.2847 94.4491C42.2847 98.8093 40.558 102.991 37.4844 106.074C34.4108 109.157 30.2422 110.889 25.8955 110.889Z" fill="#9CA3AF"/>
</g>
<defs>
<clipPath id="clip0_403_21">
<rect width="128" height="121" fill="white"/>
</clipPath>
</defs>
</svg>
