<svg width="95" height="57" viewBox="0 0 95 57" fill="none" xmlns="http://www.w3.org/2000/svg">
<g clip-path="url(#clip0_145_35)">
<path d="M37.4525 24.3201L37.7648 18.8784L33.4871 22.2348C33.2151 22.4448 32.9762 22.7138 32.8072 23.0417C32.1751 24.2575 32.6381 25.7533 33.8472 26.3907C35.0563 27.0281 36.5484 26.5602 37.1805 25.3444C37.3496 25.0165 37.4341 24.6665 37.4525 24.3201Z" fill="white" stroke="#0091D0" stroke-width="3" stroke-miterlimit="10"/>
<path d="M27.607 28.8555L27.9194 23.4138L23.6416 26.7702C23.3697 26.9802 23.1308 27.2492 22.9617 27.5771C22.3296 28.7929 22.7927 30.2887 24.0018 30.9261C25.2109 31.5635 26.7029 31.0956 27.335 29.8798C27.5041 29.5519 27.5886 29.2019 27.607 28.8555Z" fill="white" stroke="#0091D0" stroke-width="3" stroke-miterlimit="10"/>
<path d="M34.5749 15.5036L34.8873 10.0619L30.6096 13.4183C30.3376 13.6283 30.0987 13.8973 29.9297 14.2252C29.2939 15.441 29.7606 16.9368 30.9697 17.5742C32.1788 18.2116 33.6709 17.7437 34.303 16.5279C34.472 16.2 34.5602 15.8499 34.5749 15.5036Z" fill="white" stroke="#0091D0" stroke-width="3" stroke-miterlimit="10"/>
<path d="M32.403 6.63179L32.7154 1.19006L28.4376 4.54647C28.1657 4.75648 27.9268 5.02543 27.7578 5.35334C27.1257 6.56916 27.5887 8.06499 28.7978 8.70238C30.0069 9.33976 31.499 8.87186 32.1311 7.65603C32.3001 7.32444 32.3846 6.97812 32.403 6.63179Z" fill="white" stroke="#0091D0" stroke-width="3" stroke-miterlimit="10"/>
<path d="M25.0676 20.6801L25.3799 15.2383L21.1022 18.5948C20.8302 18.8048 20.5914 19.0737 20.4223 19.4016C19.7902 20.6174 20.2533 22.1133 21.4623 22.7507C22.6714 23.388 24.1635 22.9201 24.7956 21.7043C24.9647 21.3764 25.0492 21.0264 25.0676 20.6801Z" fill="white" stroke="#0091D0" stroke-width="3" stroke-miterlimit="10"/>
<path d="M47.6765 19.4679L47.9888 14.0262L43.7111 17.3826C43.4391 17.5926 43.2002 17.8616 43.0312 18.1895C42.3991 19.4053 42.8621 20.9011 44.0712 21.5385C45.2803 22.1759 46.7724 21.708 47.4045 20.4922C47.5772 20.1642 47.6618 19.8142 47.6765 19.4679Z" fill="white" stroke="#0091D0" stroke-width="3" stroke-miterlimit="10"/>
<path d="M40.782 32.6799L41.0944 27.2382L36.8167 30.5946C36.5447 30.8046 36.3058 31.0735 36.1368 31.4014C35.5047 32.6173 35.9677 34.1131 37.1768 34.7505C38.3859 35.3879 39.878 34.92 40.5101 33.7041C40.6791 33.3762 40.7637 33.0262 40.782 32.6799Z" fill="white" stroke="#0091D0" stroke-width="3" stroke-miterlimit="10"/>
<path d="M44.6702 10.4929L44.9826 5.05121L40.7049 8.40762C40.4329 8.61762 40.194 8.88658 40.025 9.21448C39.3929 10.4303 39.8559 11.9261 41.065 12.5635C42.2741 13.2009 43.7662 12.733 44.3983 11.5172C44.5673 11.1893 44.6519 10.8429 44.6702 10.4929Z" fill="white" stroke="#0091D0" stroke-width="3" stroke-miterlimit="10"/>
<path d="M30.6132 37.4216L30.9256 31.9799L26.6478 35.3326C26.3759 35.5426 26.137 35.8115 25.968 36.1394C25.3359 37.3553 25.7989 38.8511 27.008 39.4885C28.2171 40.1259 29.7092 39.658 30.3413 38.4421C30.5103 38.1179 30.5985 37.7679 30.6132 37.4216Z" fill="white" stroke="#0091D0" stroke-width="3" stroke-miterlimit="10"/>
<path d="M16.6921 5.76965L11.2861 51.4993L60.19 28.6308L16.6921 5.76965Z" fill="#0091D0"/>
<path d="M37.4525 24.3201L37.7648 18.8784L33.4871 22.2348C33.2151 22.4448 32.9762 22.7138 32.8072 23.0417C32.1751 24.2575 32.6381 25.7533 33.8472 26.3907C35.0563 27.0281 36.5484 26.5602 37.1805 25.3444C37.3496 25.0165 37.4341 24.6665 37.4525 24.3201Z" fill="white"/>
<path d="M27.607 28.8555L27.9194 23.4138L23.6416 26.7702C23.3697 26.9802 23.1308 27.2492 22.9617 27.5771C22.3296 28.7929 22.7927 30.2887 24.0018 30.9261C25.2109 31.5635 26.7029 31.0956 27.335 29.8798C27.5041 29.5519 27.5886 29.2019 27.607 28.8555Z" fill="white"/>
<path d="M34.5749 15.5036L34.8873 10.0619L30.6096 13.4183C30.3376 13.6283 30.0987 13.8973 29.9297 14.2252C29.2939 15.441 29.7606 16.9368 30.9697 17.5742C32.1788 18.2116 33.6709 17.7437 34.303 16.5279C34.472 16.2 34.5602 15.8499 34.5749 15.5036Z" fill="white"/>
<path d="M32.403 6.63179L32.7154 1.19006L28.4376 4.54647C28.1657 4.75648 27.9268 5.02543 27.7578 5.35334C27.1257 6.56916 27.5887 8.06499 28.7978 8.70238C30.0069 9.33976 31.499 8.87186 32.1311 7.65603C32.3001 7.32444 32.3846 6.97812 32.403 6.63179Z" fill="white"/>
<path d="M25.0676 20.6801L25.3799 15.2383L21.1022 18.5948C20.8302 18.8048 20.5914 19.0737 20.4223 19.4016C19.7902 20.6174 20.2533 22.1133 21.4623 22.7507C22.6714 23.388 24.1635 22.9201 24.7956 21.7043C24.9647 21.3764 25.0492 21.0264 25.0676 20.6801Z" fill="white"/>
<path d="M47.6765 19.4679L47.9888 14.0262L43.7111 17.3826C43.4391 17.5926 43.2002 17.8616 43.0312 18.1895C42.3991 19.4053 42.8621 20.9011 44.0712 21.5385C45.2803 22.1759 46.7724 21.708 47.4045 20.4922C47.5772 20.1642 47.6618 19.8142 47.6765 19.4679Z" fill="white"/>
<path d="M40.782 32.6799L41.0944 27.2382L36.8167 30.5946C36.5447 30.8046 36.3058 31.0735 36.1368 31.4014C35.5047 32.6173 35.9677 34.1131 37.1768 34.7505C38.3859 35.3879 39.878 34.92 40.5101 33.7041C40.6791 33.3762 40.7637 33.0262 40.782 32.6799Z" fill="white"/>
<path d="M44.6702 10.4929L44.9826 5.05121L40.7049 8.40762C40.4329 8.61762 40.194 8.88658 40.025 9.21448C39.3929 10.4303 39.8559 11.9261 41.065 12.5635C42.2741 13.2009 43.7662 12.733 44.3983 11.5172C44.5673 11.1893 44.6519 10.8429 44.6702 10.4929Z" fill="white"/>
<path d="M30.6132 37.4216L30.9256 31.9799L26.6478 35.3326C26.3759 35.5426 26.137 35.8115 25.968 36.1394C25.3359 37.3553 25.7989 38.8511 27.008 39.4885C28.2171 40.1259 29.7092 39.658 30.3413 38.4421C30.5103 38.1179 30.5985 37.7679 30.6132 37.4216Z" fill="white"/>
<path d="M0 56.6868V37.3773H3.51702V56.6868H0Z" fill="#0D2F46"/>
<path d="M6.93481 56.6868V42.587H10.1137V45.7223L9.85648 45.2544C10.1836 44.2007 10.6907 43.4675 11.3816 43.0512C12.0872 42.6348 12.9325 42.4285 13.9137 42.4285H14.7406V45.4349H13.5242C12.5576 45.4349 11.7822 45.737 11.1979 46.3413C10.6135 46.9271 10.3195 47.7597 10.3195 48.8282V56.6831H6.93481V56.6868Z" fill="#0D2F46"/>
<path d="M16.6075 56.6868V42.587H19.7865V45.7223L19.5292 45.2544C19.8563 44.2007 20.3634 43.4675 21.0544 43.0512C21.76 42.6348 22.6052 42.4285 23.5865 42.4285H24.4133V45.4349H23.1969C22.2304 45.4349 21.4549 45.737 20.8706 46.3413C20.2863 46.9271 19.9923 47.7597 19.9923 48.8282V56.6831H16.6075V56.6868Z" fill="#0D2F46"/>
<path d="M26.2766 56.6868V42.587H29.665V56.6868H26.2766Z" fill="#0D2F46"/>
<path d="M39.3303 57C37.9706 57 36.7541 56.6795 35.6847 56.0421C34.6152 55.3863 33.77 54.4947 33.1526 53.371C32.5315 52.2472 32.2228 51.0019 32.2228 49.6387C32.2228 48.2571 32.5315 47.0118 33.1526 45.9065C33.7736 44.8012 34.6189 43.9207 35.6847 43.2612C36.7688 42.6054 37.9779 42.2775 39.3046 42.2775C40.374 42.2775 41.3222 42.4949 42.1491 42.9259C42.9943 43.3423 43.6559 43.9281 44.141 44.687L43.6228 45.387V37.0679H47.0112V56.6868H43.8065V53.9641L44.1667 54.6384C43.6853 55.3973 43.0127 55.9868 42.1491 56.3995C41.2854 56.801 40.3483 57 39.3303 57ZM39.6905 53.8868C40.4659 53.8868 41.1458 53.7062 41.7338 53.3415C42.3181 52.9804 42.7775 52.4793 43.1046 51.8383C43.4501 51.1972 43.6228 50.464 43.6228 49.6351C43.6228 48.8245 43.4501 48.0987 43.1046 47.4576C42.7775 46.8018 42.3218 46.2897 41.7338 45.9286C41.1495 45.5676 40.4659 45.3834 39.6905 45.3834C38.9334 45.3834 38.2499 45.5749 37.6472 45.9544C37.0444 46.3155 36.5704 46.8166 36.2249 47.4576C35.8978 48.0803 35.7325 48.8061 35.7325 49.6351C35.7325 50.464 35.8978 51.1972 36.2249 51.8383C36.5704 52.4793 37.0444 52.9804 37.6472 53.3415C38.2535 53.7062 38.9334 53.8868 39.6905 53.8868Z" fill="#0D2F46"/>
<path d="M56.8309 57C55.3829 57 54.115 56.6721 53.0309 56.0163C51.9468 55.3605 51.1015 54.4689 50.4988 53.3452C49.8961 52.2215 49.5947 50.9762 49.5947 49.613C49.5947 48.1945 49.8961 46.9418 50.4988 45.855C51.1199 44.7497 51.9541 43.8765 53.0052 43.2354C54.0746 42.5943 55.2617 42.2775 56.5736 42.2775C57.6762 42.2775 58.6427 42.458 59.4696 42.8228C60.3148 43.1838 61.0278 43.6849 61.6158 44.326C62.2001 44.967 62.6485 45.7002 62.9609 46.5292C63.2696 47.3397 63.4276 48.224 63.4276 49.1745C63.4276 49.4177 63.4092 49.6682 63.3762 49.9261C63.3578 50.184 63.3174 50.4088 63.2475 50.6004H52.3878V48.0103H61.3328L59.7305 49.2298C59.8849 48.434 59.8408 47.7266 59.6019 47.1039C59.3777 46.4813 58.9992 45.9913 58.4626 45.6265C57.9444 45.2655 57.316 45.0813 56.5736 45.0813C55.868 45.0813 55.2396 45.2618 54.6847 45.6265C54.1334 45.9729 53.7108 46.4887 53.4168 47.1813C53.1412 47.8555 53.0382 48.6771 53.1081 49.6424C53.0382 50.5046 53.1522 51.2746 53.4425 51.9488C53.7512 52.6046 54.1996 53.1167 54.7876 53.4778C55.3903 53.8389 56.0812 54.0231 56.8566 54.0231C57.6321 54.0231 58.2862 53.8573 58.8228 53.5294C59.374 53.2015 59.804 52.7594 60.1164 52.2067L62.858 53.5552C62.5823 54.2294 62.1524 54.8263 61.5644 55.3421C60.98 55.8616 60.2818 56.2668 59.4696 56.5616C58.6721 56.8526 57.7938 57 56.8309 57Z" fill="#0D2F46"/>
<path d="M65.9891 56.6868V37.0679H69.3775V56.6868H65.9891Z" fill="#0D2F46"/>
<path d="M78.9143 56.8416C77.3304 56.8416 76.0955 56.4105 75.2172 55.5447C74.3572 54.6641 73.9236 53.4262 73.9236 51.8383V45.6191H71.4944V42.587H71.7516C72.4426 42.587 72.9754 42.4064 73.354 42.0417C73.7325 41.6806 73.9236 41.1501 73.9236 40.4611V39.3742H77.312V42.587H80.5424V45.6191H77.312V51.6577C77.312 52.1256 77.3892 52.5199 77.5435 52.8514C77.7162 53.1794 77.9735 53.4299 78.319 53.6031C78.6791 53.7762 79.1385 53.861 79.6897 53.861C79.811 53.861 79.947 53.8536 80.105 53.8352C80.2778 53.8167 80.4395 53.802 80.5975 53.7836V56.6868C80.3549 56.72 80.0793 56.7568 79.7706 56.79C79.4582 56.8268 79.1752 56.8416 78.9143 56.8416Z" fill="#0D2F46"/>
<path d="M87.4 57C86.4187 57 85.5661 56.8342 84.8421 56.5063C84.1181 56.1784 83.5595 55.7105 83.1626 55.1063C82.7657 54.4836 82.5673 53.7689 82.5673 52.9546C82.5673 52.1772 82.74 51.4846 83.0854 50.8804C83.4309 50.2577 83.9638 49.7382 84.6878 49.3256C85.4117 48.9093 86.3268 48.6182 87.4293 48.445L92.0305 47.6934V50.2835L88.0762 50.9577C87.4036 51.0793 86.9038 51.293 86.5767 51.6062C86.2497 51.9157 86.0843 52.3246 86.0843 52.8257C86.0843 53.3083 86.2644 53.6989 86.6282 53.9936C87.0067 54.2699 87.4735 54.4099 88.0247 54.4099C88.7303 54.4099 89.3514 54.2626 89.888 53.9678C90.4392 53.6583 90.8618 53.2346 91.1558 52.6967C91.4646 52.1625 91.6226 51.573 91.6226 50.9356V47.3066C91.6226 46.7023 91.38 46.2013 90.8986 45.8034C90.4319 45.387 89.8145 45.1807 89.0353 45.1807C88.3114 45.1807 87.6646 45.3797 87.0949 45.7776C86.5437 46.1571 86.1394 46.6692 85.8785 47.3066L83.1112 45.9581C83.3868 45.2139 83.8168 44.5765 84.4048 44.0386C85.0075 43.4859 85.7131 43.0549 86.5253 42.7417C87.3338 42.4322 88.2158 42.2738 89.164 42.2738C90.3179 42.2738 91.3359 42.4912 92.2143 42.9222C93.0926 43.3386 93.7725 43.9244 94.2576 44.6833C94.7574 45.4276 95.0073 46.3008 95.0073 47.3029V56.6868H91.8027V54.2773L92.5266 54.2257C92.1665 54.8299 91.7328 55.3384 91.233 55.7547C90.7332 56.1526 90.1636 56.4621 89.5278 56.6868C88.881 56.8932 88.1754 57 87.4 57Z" fill="#0D2F46"/>
</g>
<defs>
<clipPath id="clip0_145_35">
<rect width="95" height="57" fill="white"/>
</clipPath>
</defs>
</svg>
