<svg width="64" height="40" viewBox="0 0 64 40" fill="none" xmlns="http://www.w3.org/2000/svg">
    <g clip-path="url(#clip0_596_748)">
    <path d="M53.7703 39.9995H0V9.27536C0 4.16076 4.14642 0 9.24281 0H53.7703C58.8673 0 63.0137 4.16076 63.0137 9.27536V30.7241C63.0137 35.8387 58.8673 39.9995 53.7703 39.9995Z" fill="#9CA3AF"></path>
    <path d="M33.1375 14.5266C32.1051 13.9107 30.9287 13.5802 29.7277 13.5687C28.5267 13.5571 27.3442 13.865 26.3002 14.4609C25.2563 15.0568 24.3883 15.9195 23.7845 16.9613C23.1806 18.003 22.8625 19.1867 22.8625 20.3919C22.8625 21.597 23.1806 22.7807 23.7845 23.8225C24.3883 24.8643 25.2563 25.727 26.3002 26.3229C27.3442 26.9188 28.5267 27.2266 29.7277 27.2151C30.9287 27.2035 32.1051 26.873 33.1375 26.2571V27.1329H36.4663V13.6353H33.1375V14.5266ZM29.6619 23.8756C28.9754 23.8748 28.3046 23.6699 27.7342 23.2866C27.1638 22.9033 26.7194 22.359 26.4572 21.7224C26.1951 21.0857 26.1269 20.3854 26.2613 19.7099C26.3956 19.0343 26.7266 18.414 27.2123 17.9271C27.698 17.4403 28.3166 17.1089 28.9899 16.9748C29.6632 16.8407 30.3611 16.9099 30.9952 17.1737C31.6294 17.4375 32.1714 17.884 32.5527 18.4568C32.934 19.0296 33.1375 19.703 33.1375 20.3919C33.1365 21.3162 32.7698 22.2023 32.1181 22.8555C31.4665 23.5087 30.583 23.8756 29.6619 23.8756Z" fill="#E2E8F0"></path>
    <path d="M15.7432 9.2207H9.16772V27.1326H12.4966V21.7074H15.8116C16.6315 21.7066 17.4433 21.5432 18.2002 21.2269C18.9571 20.9105 19.6443 20.4473 20.2224 19.8638C20.8005 19.2803 21.2581 18.588 21.569 17.8266C21.8799 17.0652 22.0379 16.2498 22.0339 15.427C22.0146 11.9798 19.1768 9.2207 15.7432 9.2207ZM15.763 18.3687H12.4966V12.5577H15.8116C16.1962 12.5583 16.5768 12.6356 16.9313 12.7852C17.2858 12.9349 17.6071 13.1538 17.8764 13.4294C18.1457 13.7049 18.3577 14.0314 18.5 14.39C18.6423 14.7485 18.712 15.1319 18.7051 15.5178C18.6748 17.1077 17.3474 18.366 15.763 18.366V18.3687Z" fill="#E2E8F0"></path>
    <path d="M54.2222 27.2475C55.344 27.2475 56.2535 26.3349 56.2535 25.2092C56.2535 24.0835 55.344 23.1709 54.2222 23.1709C53.1003 23.1709 52.1909 24.0835 52.1909 25.2092C52.1909 26.3349 53.1003 27.2475 54.2222 27.2475Z" fill="#E2E8F0"></path>
    <path d="M49.4673 13.5879L45.5603 23.7285L41.5358 13.6355H37.8948L43.2758 27.1331H44.2473L44.2297 27.1796C43.9764 27.8286 43.5347 28.3862 42.9618 28.7803C42.3889 29.1743 41.7113 29.3866 41.0167 29.3895H40.6239V32.7298H41.0719C42.4376 32.7239 43.7701 32.3065 44.8966 31.5317C46.0231 30.7568 46.8917 29.6603 47.3897 28.3842L53.0902 13.5879H49.4673Z" fill="#E2E8F0"></path>
    </g>
    <defs>
    <clipPath id="clip0_596_748">
    <rect width="63.0137" height="40" fill="#E2E8F0"></rect>
    </clipPath>
    </defs>
</svg>
