<svg width="1680" height="358" viewBox="0 0 1680 358" fill="none" xmlns="http://www.w3.org/2000/svg">
<g clip-path="url(#clip0)">
<path d="M207.386 0.549939L540.272 0.549997C579.191 0.550004 610.658 32.2912 610.658 71.55C610.658 110.809 579.191 142.55 540.272 142.55L207.386 142.55C168.467 142.55 137 110.809 137 71.5499C137 30.6205 168.467 0.549932 207.386 0.549939Z" fill="#F3F4F6"/>
<path d="M2680.32 -573.45L2269.59 -573.45L2146.63 -573.45C2106.5 -573.45 2074.05 -540.98 2074.05 -500.82C2074.05 -466.641 2099.66 -437.589 2132.11 -429.899L2237.14 -429.899C2238.85 -429.899 2242.27 -429.899 2243.97 -429.899C2245.68 -429.899 2249.1 -429.899 2250.8 -429.899C2283.25 -423.063 2308.87 -394.012 2308.87 -358.978C2308.87 -318.818 2276.42 -286.349 2236.29 -286.349L2232.87 -286.349L2219.21 -286.349L1770.91 -286.349C1738.47 -279.513 1712.85 -250.461 1712.85 -215.428C1712.85 -180.395 1738.47 -152.197 1770.91 -144.507L2193.59 -144.507L2233.73 -144.507L2273.86 -144.507C2313.99 -144.507 2346.44 -112.037 2346.44 -71.8772C2346.44 -31.7172 1743.99 0.752502 1703.86 0.752495L862.863 0.752348L833.83 0.752343L761.249 0.75233C728.801 7.58808 703.184 36.64 703.184 71.6732C703.184 106.706 728.801 134.904 761.249 142.594L1443.21 142.594L1464.56 142.594C1469.68 142.594 1473.95 142.594 1479.08 144.303C1480.78 144.303 1480.78 144.303 1482.49 146.012C1485.91 146.012 1487.62 147.721 1491.89 147.721C1493.59 147.721 1495.3 149.43 1497.01 149.43C1498.72 151.139 1502.13 151.139 1503.84 152.848C1505.55 154.557 1507.26 154.557 1508.96 156.266C1510.67 157.975 1512.38 159.683 1514.09 161.392C1515.79 163.101 1515.79 163.101 1517.5 164.81C1519.21 166.519 1520.92 168.228 1522.63 169.937C1524.33 171.646 1524.33 173.355 1526.04 175.064C1527.75 176.773 1527.75 180.191 1529.46 181.9C1529.46 183.609 1531.16 185.318 1531.16 187.026C1532.87 190.444 1532.87 192.153 1532.87 196.426C1532.87 198.134 1532.87 199.843 1534.58 199.843C1534.58 203.261 1536.29 209.243 1536.29 214.369C1536.29 254.529 1503.84 286.999 1463.71 286.999L1460.29 286.999L1416.74 286.999L181.026 286.999C175.903 286.999 171.633 288.999 166.51 287.29L72.5812 287.29C32.448 287.29 -0.000155824 317.76 -0.000162846 357.92C-0.000169868 398.08 32.448 430.55 72.5812 430.55L1392.83 430.55L1707.05 430.55L1703.65 52.0206L1761.72 52.0206L1902.61 430.55L2177.57 430.55L2017.03 30.6589C2180.13 -14.6279 2970.64 -134.253 2991.99 -259.005C3024.44 -432.462 2926.24 -573.45 2680.32 -573.45ZM2741.8 -247.897C2727.28 -170.141 2676.9 -121.436 2584.68 -121.436L2432.68 -121.436L2476.23 -372.65L2628.23 -372.65C2722.16 -372.65 2756.31 -323.945 2741.8 -247.897Z" fill="#F3F4F6"/>
</g>
<defs>
<clipPath id="clip0">
<rect width="1680" height="358" fill="white"/>
</clipPath>
</defs>
</svg>
