<svg width="1440" height="343" viewBox="0 0 1440 343" fill="none" xmlns="http://www.w3.org/2000/svg">
<path d="M-5.958e-05 340.758C22.4322 321.702 50.4726 309.372 80.7561 309.372C82.9993 256.689 123.377 214.095 173.85 214.095C179.458 214.095 186.187 214.095 191.796 216.336C214.228 197.281 242.268 182.709 270.308 175.984C288.254 97.5197 355.551 40.353 436.307 40.353C504.725 40.3531 565.292 82.9478 592.211 146.84C614.643 149.082 634.832 156.928 650.534 168.137C658.386 75.1013 733.534 0.000128255 824.384 0.00014414C921.964 0.000161201 1000.48 82.9478 1000.48 184.951C1000.48 189.435 1000.48 193.918 1000.48 195.039C1016.18 188.314 1035.25 184.951 1053.19 184.951C1077.87 184.951 1098.06 191.676 1118.25 201.765C1148.53 146.84 1205.73 110.971 1269.66 110.971C1367.24 110.971 1448 193.918 1448 298.163C1448 312.735 1445.76 328.428 1442.39 343L-5.9972e-05 343L-5.958e-05 340.758Z" fill="white"/>
</svg>
