<svg width="1380" height="327" viewBox="0 0 1380 327" fill="none" xmlns="http://www.w3.org/2000/svg">
<path d="M-5.68007e-05 324.863C21.3787 306.696 48.1023 294.941 76.9637 294.941C79.1016 244.716 117.583 204.108 165.685 204.108C171.03 204.108 177.444 204.108 182.789 206.245C204.167 188.078 230.891 174.186 257.614 167.775C274.717 92.9707 338.854 38.4707 415.817 38.4707C481.023 38.4707 538.745 79.0785 564.4 139.99C585.779 142.127 605.019 149.608 619.984 160.294C627.467 71.5981 699.086 0.000122232 785.67 0.000137371C878.668 0.000153631 953.493 79.0785 953.493 176.324C953.493 180.598 953.493 184.873 953.493 185.941C968.459 179.53 986.631 176.324 1003.73 176.324C1027.25 176.324 1046.49 182.735 1065.73 192.353C1094.59 139.99 1149.11 105.794 1210.04 105.794C1303.04 105.794 1380 184.873 1380 284.255C1380 298.147 1377.86 313.108 1374.66 327L-5.71744e-05 327L-5.68007e-05 324.863Z" fill="#F3F4F6"/>
</svg>
