<svg width="1061" height="176" viewBox="0 0 1061 176" fill="none" xmlns="http://www.w3.org/2000/svg">
<path d="M253.256 92.3647V130H247.23V43.6221H267.791C278.504 43.6221 286.421 45.6112 291.542 49.5894C296.662 53.5282 299.222 59.4757 299.222 67.4321C299.222 73.2222 297.686 78.1063 294.614 82.0845C291.581 86.0627 286.953 88.9183 280.729 90.6514L304.185 130H296.977L274.703 92.3647H253.256ZM253.256 87.1655H269.74C277.027 87.1655 282.679 85.5506 286.697 82.3208C290.714 79.0516 292.723 74.2463 292.723 67.9048C292.723 61.327 290.754 56.5413 286.815 53.5479C282.876 50.5544 276.456 49.0576 267.554 49.0576H253.256V87.1655ZM340.022 131.182C330.687 131.182 323.4 128.306 318.162 122.556C312.962 116.805 310.363 108.75 310.363 98.3911C310.363 88.1502 312.884 79.9575 317.925 73.813C322.967 67.6291 329.761 64.5371 338.308 64.5371C345.871 64.5371 351.838 67.1761 356.21 72.4541C360.582 77.7321 362.768 84.9007 362.768 93.96V98.6865H316.507C316.586 107.509 318.634 114.245 322.652 118.893C326.709 123.54 332.499 125.864 340.022 125.864C343.685 125.864 346.895 125.608 349.652 125.096C352.449 124.584 355.974 123.481 360.228 121.788V127.105C356.604 128.681 353.256 129.744 350.184 130.295C347.112 130.886 343.724 131.182 340.022 131.182ZM338.308 69.7363C332.125 69.7363 327.162 71.7845 323.42 75.8809C319.678 79.9378 317.492 85.8066 316.862 93.4873H356.565C356.565 86.043 354.95 80.2332 351.72 76.0581C348.49 71.8436 344.02 69.7363 338.308 69.7363ZM415.857 130L414.38 119.838H413.907C410.678 123.974 407.349 126.908 403.923 128.641C400.535 130.335 396.518 131.182 391.87 131.182C385.568 131.182 380.664 129.567 377.158 126.337C373.653 123.107 371.9 118.637 371.9 112.925C371.9 106.663 374.5 101.798 379.699 98.332C384.938 94.8659 392.5 93.0343 402.386 92.8374L414.616 92.4829V88.229C414.616 82.1239 413.376 77.5155 410.894 74.4038C408.413 71.2922 404.415 69.7363 398.901 69.7363C392.953 69.7363 386.789 71.3906 380.408 74.6992L378.222 69.6182C385.272 66.3096 392.244 64.6553 399.137 64.6553C406.187 64.6553 411.446 66.4868 414.912 70.1499C418.417 73.813 420.17 79.5243 420.17 87.2837V130H415.857ZM392.224 125.864C399.078 125.864 404.474 123.915 408.413 120.015C412.391 116.076 414.38 110.621 414.38 103.649V97.3276L403.155 97.8003C394.135 98.2336 387.695 99.6515 383.835 102.054C380.014 104.417 378.104 108.12 378.104 113.162C378.104 117.179 379.325 120.311 381.767 122.556C384.248 124.761 387.734 125.864 392.224 125.864ZM463.038 131.182C453.86 131.182 446.672 128.287 441.473 122.497C436.274 116.707 433.674 108.632 433.674 98.2729C433.674 87.6382 436.372 79.3667 441.768 73.4585C447.164 67.5109 454.55 64.5371 463.924 64.5371C469.478 64.5371 474.795 65.5021 479.876 67.4321L478.281 72.6313C472.727 70.7801 467.902 69.8545 463.806 69.8545C455.928 69.8545 449.961 72.2965 445.904 77.1807C441.847 82.0254 439.818 89.0168 439.818 98.1548C439.818 106.82 441.847 113.615 445.904 118.538C449.961 123.422 455.633 125.864 462.92 125.864C468.749 125.864 474.165 124.82 479.167 122.733V128.168C475.071 130.177 469.694 131.182 463.038 131.182ZM508.269 125.982C511.971 125.982 515.201 125.667 517.958 125.037V129.764C515.122 130.709 511.853 131.182 508.15 131.182C502.479 131.182 498.284 129.665 495.566 126.632C492.888 123.599 491.548 118.833 491.548 112.334V70.8589H482.036V67.4321L491.548 64.7734L494.502 50.2393H497.516V65.7778H516.363V70.8589H497.516V111.507C497.516 116.431 498.382 120.074 500.115 122.438C501.848 124.801 504.566 125.982 508.269 125.982ZM534.061 130H528.212V65.7778H534.061V130ZM527.385 47.9351C527.385 44.1538 528.626 42.2632 531.107 42.2632C532.328 42.2632 533.274 42.7555 533.943 43.7402C534.652 44.7249 535.007 46.1232 535.007 47.9351C535.007 49.7075 534.652 51.1058 533.943 52.1299C533.274 53.154 532.328 53.666 531.107 53.666C528.626 53.666 527.385 51.7557 527.385 47.9351ZM566.058 130L541.243 65.7778H547.27L563.872 109.439C566.078 115.033 567.732 119.917 568.835 124.092H569.189C570.804 118.735 572.458 113.812 574.152 109.321L590.754 65.7778H596.781L571.966 130H566.058ZM629.84 131.182C620.506 131.182 613.219 128.306 607.98 122.556C602.781 116.805 600.181 108.75 600.181 98.3911C600.181 88.1502 602.702 79.9575 607.744 73.813C612.785 67.6291 619.58 64.5371 628.127 64.5371C635.69 64.5371 641.657 67.1761 646.029 72.4541C650.401 77.7321 652.587 84.9007 652.587 93.96V98.6865H606.326C606.405 107.509 608.453 114.245 612.47 118.893C616.527 123.54 622.317 125.864 629.84 125.864C633.504 125.864 636.714 125.608 639.471 125.096C642.267 124.584 645.793 123.481 650.047 121.788V127.105C646.423 128.681 643.075 129.744 640.003 130.295C636.93 130.886 633.543 131.182 629.84 131.182ZM628.127 69.7363C621.943 69.7363 616.98 71.7845 613.238 75.8809C609.497 79.9378 607.311 85.8066 606.68 93.4873H646.383C646.383 86.043 644.769 80.2332 641.539 76.0581C638.309 71.8436 633.838 69.7363 628.127 69.7363ZM744.939 106.544C744.939 114.225 742.163 120.251 736.609 124.624C731.055 128.996 723.394 131.182 713.626 131.182C703.858 131.182 695.862 129.665 689.639 126.632V113.28C693.577 115.131 697.753 116.588 702.164 117.652C706.615 118.715 710.751 119.247 714.571 119.247C720.164 119.247 724.28 118.184 726.919 116.057C729.598 113.93 730.937 111.074 730.937 107.49C730.937 104.26 729.716 101.522 727.274 99.2773C724.832 97.0322 719.79 94.3735 712.149 91.3013C704.271 88.1108 698.718 84.4674 695.488 80.3711C692.258 76.2747 690.643 71.3512 690.643 65.6006C690.643 58.3926 693.203 52.7207 698.324 48.585C703.444 44.4492 710.317 42.3813 718.943 42.3813C727.215 42.3813 735.447 44.1932 743.64 47.8169L739.149 59.3379C731.469 56.1081 724.615 54.4932 718.589 54.4932C714.02 54.4932 710.554 55.4976 708.19 57.5063C705.827 59.4757 704.645 62.0951 704.645 65.3643C704.645 67.6094 705.118 69.5394 706.063 71.1543C707.009 72.7298 708.565 74.2266 710.731 75.6445C712.897 77.0625 716.797 78.9334 722.429 81.2573C728.771 83.8963 733.418 86.3581 736.372 88.6426C739.327 90.9271 741.493 93.507 742.871 96.3823C744.25 99.2576 744.939 102.645 744.939 106.544ZM785.089 131.182C774.927 131.182 766.971 128.228 761.22 122.319C755.509 116.372 752.653 108.199 752.653 97.8003C752.653 87.1261 755.312 78.7365 760.629 72.6313C765.947 66.5262 773.253 63.4736 782.549 63.4736C791.175 63.4736 797.989 66.0929 802.991 71.3315C807.993 76.5701 810.494 83.7782 810.494 92.9556V100.459H766.951C767.148 106.8 768.861 111.685 772.091 115.111C775.321 118.499 779.87 120.192 785.739 120.192C789.599 120.192 793.183 119.838 796.492 119.129C799.84 118.381 803.424 117.16 807.245 115.466V126.75C803.858 128.365 800.431 129.508 796.965 130.177C793.499 130.847 789.54 131.182 785.089 131.182ZM782.549 73.9902C778.137 73.9902 774.592 75.3885 771.914 78.1851C769.275 80.9816 767.699 85.0583 767.187 90.415H796.846C796.768 85.0189 795.468 80.9422 792.947 78.1851C790.426 75.3885 786.96 73.9902 782.549 73.9902ZM863.524 130L860.747 120.901H860.275C857.124 124.88 853.953 127.597 850.762 129.055C847.572 130.473 843.476 131.182 838.473 131.182C832.053 131.182 827.031 129.449 823.407 125.982C819.823 122.516 818.031 117.612 818.031 111.271C818.031 104.536 820.532 99.4546 825.534 96.0278C830.537 92.6011 838.158 90.7301 848.399 90.415L859.684 90.0605V86.5747C859.684 82.3996 858.699 79.2879 856.73 77.2397C854.8 75.1522 851.786 74.1084 847.69 74.1084C844.342 74.1084 841.132 74.6007 838.06 75.5854C834.987 76.5701 832.033 77.7321 829.197 79.0713L824.707 69.1455C828.252 67.2943 832.132 65.896 836.346 64.9507C840.561 63.966 844.539 63.4736 848.281 63.4736C856.592 63.4736 862.855 65.2855 867.069 68.9092C871.323 72.5329 873.45 78.2244 873.45 85.9839V130H863.524ZM842.845 120.547C847.887 120.547 851.924 119.149 854.957 116.352C858.029 113.516 859.566 109.558 859.566 104.477V98.8047L851.176 99.1592C844.638 99.3955 839.872 100.498 836.878 102.468C833.924 104.398 832.447 107.372 832.447 111.389C832.447 114.304 833.313 116.569 835.047 118.184C836.78 119.759 839.379 120.547 842.845 120.547ZM922.344 63.4736C925.14 63.4736 927.445 63.6706 929.256 64.0645L927.898 77.0034C925.928 76.5308 923.88 76.2944 921.753 76.2944C916.199 76.2944 911.689 78.1063 908.223 81.73C904.796 85.3537 903.083 90.0605 903.083 95.8506V130H889.199V64.6553H900.07L901.901 76.1763H902.61C904.777 72.2769 907.593 69.1849 911.059 66.9004C914.565 64.6159 918.326 63.4736 922.344 63.4736ZM964.148 131.182C954.261 131.182 946.738 128.306 941.579 122.556C936.458 116.766 933.898 108.474 933.898 97.6821C933.898 86.6929 936.576 78.2441 941.933 72.3359C947.329 66.4277 955.108 63.4736 965.27 63.4736C972.163 63.4736 978.367 64.7537 983.881 67.314L979.686 78.4805C973.818 76.196 968.973 75.0537 965.152 75.0537C953.848 75.0537 948.196 82.5571 948.196 97.564C948.196 104.89 949.594 110.404 952.391 114.107C955.227 117.77 959.362 119.602 964.798 119.602C970.982 119.602 976.831 118.065 982.345 114.993V127.105C979.864 128.562 977.205 129.606 974.369 130.236C971.573 130.867 968.165 131.182 964.148 131.182ZM1051.56 130H1037.62V89.8242C1037.62 84.7826 1036.6 81.021 1034.55 78.5396C1032.54 76.0581 1029.33 74.8174 1024.92 74.8174C1019.09 74.8174 1014.79 76.5701 1012.04 80.0757C1009.32 83.5418 1007.96 89.3713 1007.96 97.564V130H994.076V38.0684H1007.96V61.4058C1007.96 65.1476 1007.72 69.1455 1007.25 73.3994H1008.14C1010.03 70.2484 1012.65 67.8063 1016 66.0732C1019.38 64.3402 1023.32 63.4736 1027.81 63.4736C1043.65 63.4736 1051.56 71.4497 1051.56 87.4019V130Z" fill="#9CA3AF"/>
<path d="M165 0H11C4.92487 0 0 4.92487 0 11V165C0 171.075 4.92487 176 11 176H165C171.075 176 176 171.075 176 165V11C176 4.92487 171.075 0 165 0Z" fill="#9CA3AF"/>
<path fill-rule="evenodd" clip-rule="evenodd" d="M65.0376 33.4391V40.2212H68.9632V74.9018L33.4404 144.32H144.32L109.563 74.9323V40.2212H113.716V33.4391H65.0376ZM75.7867 76.5274V40.2212H102.74V48.3605H97.1083V52.4291H102.74V60.5684H97.1083V64.637H102.74V72.7762H97.1083V76.8448H102.899L106.976 84.9841H97.0919V89.0527H109.014L133.3 137.538H44.5662L75.7867 76.5274Z" fill="#E2E8F0"/>
<path fill-rule="evenodd" clip-rule="evenodd" d="M62.5465 103.051L115.069 94.0009L136.983 139.197H41.4648L62.5465 103.051Z" fill="#E2E8F0"/>
</svg>
