<svg width="528" height="164" viewBox="0 0 528 164" fill="none" xmlns="http://www.w3.org/2000/svg">
<path d="M140.787 12H175.983L87.9917 163.862L0 12H67.3137L87.9917 47.2145L108.23 12H140.787Z" fill="#9CA3AF"/>
<path d="M0 12L87.9917 163.862L175.983 12H140.787L87.9917 103.117L34.7567 12H0Z" fill="#9CA3AF"/>
<path d="M34.7568 12L87.9919 103.558L140.787 12H108.23L87.9919 47.2145L67.3138 12H34.7568Z" fill="#E2E8F0"/>
<path d="M237.21 42.52C237.21 41.22 237.903 40.1367 239.29 39.27C240.763 38.4033 242.28 37.97 243.84 37.97C246.007 37.97 247.35 38.7933 247.87 40.44L270.75 117.66L293.5 40.44C294.107 38.7933 295.407 37.97 297.4 37.97C299.047 37.97 300.563 38.4467 301.95 39.4C303.423 40.3533 304.16 41.4367 304.16 42.65C304.16 42.7367 304.117 42.8667 304.03 43.04C304.03 43.2133 304.03 43.3867 304.03 43.56L277.64 130.01C276.687 132.523 274.39 133.78 270.75 133.78C267.11 133.78 264.9 132.523 264.12 130.01L237.47 43.56C237.297 43.04 237.21 42.6933 237.21 42.52ZM308.8 109.08V75.28C308.8 74.24 309.32 73.33 310.36 72.55C311.487 71.77 312.787 71.38 314.26 71.38C315.647 71.38 316.86 71.8133 317.9 72.68C319.027 73.46 319.59 74.3267 319.59 75.28V109.08C319.59 112.98 321.064 116.49 324.01 119.61C326.957 122.73 330.467 124.29 334.54 124.29C338.527 124.29 341.994 122.773 344.94 119.74C347.887 116.62 349.36 113.067 349.36 109.08V75.15C349.36 74.1967 349.88 73.33 350.92 72.55C352.047 71.77 353.347 71.38 354.82 71.38C356.38 71.38 357.637 71.77 358.59 72.55C359.63 73.2433 360.15 74.11 360.15 75.15V109.08C360.15 115.753 357.594 121.603 352.48 126.63C347.454 131.57 341.474 134.04 334.54 134.04C327.52 134.04 321.454 131.57 316.34 126.63C311.314 121.603 308.8 115.753 308.8 109.08ZM372.615 108.82V95.17C372.615 88.4967 375.128 82.7333 380.155 77.88C385.268 73.0267 391.378 70.6 398.485 70.6C405.245 70.6 411.095 72.8967 416.035 77.49C420.975 81.9967 423.445 87.6733 423.445 94.52C423.445 97.0333 423.142 99.07 422.535 100.63C421.928 102.103 420.975 103.187 419.675 103.88C418.462 104.487 417.292 104.877 416.165 105.05C415.125 105.223 413.695 105.31 411.875 105.31H383.405V109.21C383.405 113.977 385.095 117.79 388.475 120.65C391.942 123.51 396.405 124.94 401.865 124.94C404.725 124.94 407.195 124.507 409.275 123.64C411.442 122.773 413.175 121.95 414.475 121.17C415.775 120.303 416.815 119.87 417.595 119.87C418.808 119.87 419.848 120.433 420.715 121.56C421.582 122.6 422.015 123.683 422.015 124.81C422.015 126.803 420.022 128.84 416.035 130.92C412.135 133 407.282 134.04 401.475 134.04C392.982 134.04 386.048 131.743 380.675 127.15C375.302 122.47 372.615 116.36 372.615 108.82ZM383.405 98.03H407.455C409.708 98.03 411.225 97.77 412.005 97.25C412.785 96.6433 413.175 95.5167 413.175 93.87C413.175 89.97 411.745 86.5467 408.885 83.6C406.025 80.6533 402.515 79.18 398.355 79.18C394.282 79.18 390.772 80.5667 387.825 83.34C384.878 86.0267 383.405 89.3633 383.405 93.35V98.03ZM432.525 127.02C432.525 125.113 433.175 123.51 434.475 122.21C435.775 120.823 437.378 120.13 439.285 120.13C441.105 120.13 442.665 120.823 443.965 122.21C445.265 123.51 445.915 125.113 445.915 127.02C445.915 128.84 445.265 130.443 443.965 131.83C442.665 133.13 441.105 133.78 439.285 133.78C437.378 133.78 435.775 133.13 434.475 131.83C433.175 130.443 432.525 128.84 432.525 127.02ZM445.756 158.09C445.756 156.703 446.19 155.533 447.056 154.58C447.923 153.713 448.963 153.28 450.176 153.28C453.556 153.28 455.766 152.023 456.806 149.51C457.846 146.997 458.366 143.227 458.366 138.2V75.15C458.366 74.0233 458.843 73.1133 459.796 72.42C460.836 71.7267 462.136 71.38 463.696 71.38C465.256 71.38 466.556 71.7267 467.596 72.42C468.636 73.1133 469.156 74.0233 469.156 75.15V138.2C469.156 145.74 467.683 151.72 464.736 156.14C461.79 160.56 457.326 162.77 451.346 162.77C447.62 162.77 445.756 161.21 445.756 158.09ZM458.886 52.66C457.586 51.36 456.936 49.8867 456.936 48.24C456.936 46.5933 457.586 45.1633 458.886 43.95C460.186 42.7367 461.79 42.13 463.696 42.13C465.516 42.13 467.076 42.7367 468.376 43.95C469.676 45.1633 470.326 46.5933 470.326 48.24C470.326 49.8867 469.676 51.36 468.376 52.66C467.076 53.8733 465.516 54.48 463.696 54.48C461.876 54.48 460.273 53.8733 458.886 52.66ZM480.873 124.16C480.873 123.033 481.219 121.95 481.913 120.91C482.693 119.783 483.603 119.22 484.643 119.22C485.336 119.22 486.333 119.74 487.633 120.78C488.933 121.82 490.796 122.86 493.223 123.9C495.649 124.853 498.509 125.33 501.803 125.33C506.136 125.33 509.256 124.55 511.163 122.99C513.156 121.43 514.153 119.48 514.153 117.14C514.153 114.28 513.069 112.027 510.903 110.38C508.736 108.647 506.093 107.347 502.973 106.48C499.853 105.613 496.733 104.66 493.613 103.62C490.493 102.58 487.849 100.847 485.683 98.42C483.516 95.9933 482.433 92.7867 482.433 88.8C482.433 83.86 484.166 79.6133 487.633 76.06C491.186 72.42 496.559 70.6 503.753 70.6C508.346 70.6 512.549 71.3367 516.363 72.81C520.176 74.1967 522.083 75.8 522.083 77.62C522.083 78.66 521.649 79.83 520.783 81.13C520.003 82.43 519.006 83.08 517.793 83.08C517.446 83.08 515.756 82.4733 512.723 81.26C509.776 79.96 506.829 79.31 503.883 79.31C499.896 79.31 496.906 80.2633 494.913 82.17C493.006 83.99 492.053 86.07 492.053 88.41C492.053 90.8367 493.136 92.7433 495.303 94.13C497.469 95.5167 500.113 96.6 503.233 97.38C506.439 98.16 509.603 99.1133 512.723 100.24C515.843 101.367 518.486 103.317 520.653 106.09C522.819 108.777 523.903 112.287 523.903 116.62C523.903 121.993 521.996 126.24 518.183 129.36C514.369 132.48 509.039 134.04 502.193 134.04C496.299 134.04 491.273 133 487.113 130.92C482.953 128.753 480.873 126.5 480.873 124.16Z" fill="#9CA3AF"/>
</svg>
